<svg xmlns="http://www.w3.org/2000/svg" xmlns:xlink="http://www.w3.org/1999/xlink" width="315" height="80" contentScriptType="text/ecmascript" contentStyleType="text/css" preserveAspectRatio="xMidYMid meet" version="1.2" viewBox="0 0 236.25 60" zoomAndPan="magnify"><defs><clipPath id="clip1" xml:id="clip1"><path d="M 0 0.09375 L 69.527344 0.09375 L 69.527344 59.902344 L 0 59.902344 Z M 0 0.09375"/></clipPath></defs><g id="surface1" xml:id="surface1"><g style="fill:#fff;fill-opacity:1"><g><path style="stroke:none" d="M 8.796875 -5.515625 L 3.765625 -5.515625 L 3.765625 -2.109375 L 9.671875 -2.109375 L 9.671875 0 L 1.140625 0 L 1.140625 -12.734375 L 9.65625 -12.734375 L 9.65625 -10.609375 L 3.765625 -10.609375 L 3.765625 -7.578125 L 8.796875 -7.578125 Z M 8.796875 -5.515625" transform="translate(75.072431, 30.70102)"/></g></g><g style="fill:#fff;fill-opacity:1"><g><path style="stroke:none" d="M 5.890625 -4.4375 L 0.96875 -4.4375 L 0.96875 -6.46875 L 5.890625 -6.46875 Z M 5.890625 -4.4375" transform="translate(85.152247, 30.70102)"/></g></g><g style="fill:#fff;fill-opacity:1"><g><path style="stroke:none" d="M 11.5 0 L 8.875 0 L 8.875 -5.453125 L 3.765625 -5.453125 L 3.765625 0 L 1.140625 0 L 1.140625 -12.734375 L 3.765625 -12.734375 L 3.765625 -7.578125 L 8.875 -7.578125 L 8.875 -12.734375 L 11.5 -12.734375 Z M 11.5 0" transform="translate(92.099621, 30.70102)"/></g></g><g style="fill:#fff;fill-opacity:1"><g><path style="stroke:none" d="M 8.796875 -5.515625 L 3.765625 -5.515625 L 3.765625 -2.109375 L 9.671875 -2.109375 L 9.671875 0 L 1.140625 0 L 1.140625 -12.734375 L 9.65625 -12.734375 L 9.65625 -10.609375 L 3.765625 -10.609375 L 3.765625 -7.578125 L 8.796875 -7.578125 Z M 8.796875 -5.515625" transform="translate(104.760641, 30.70102)"/></g></g><g style="fill:#fff;fill-opacity:1"><g><path style="stroke:none" d="M 8.328125 -2.625 L 3.734375 -2.625 L 2.859375 0 L 0.0625 0 L 4.796875 -12.734375 L 7.234375 -12.734375 L 12 0 L 9.21875 0 Z M 4.4375 -4.75 L 7.625 -4.75 L 6.015625 -9.515625 Z M 4.4375 -4.75" transform="translate(114.840457, 30.70102)"/></g></g><g style="fill:#fff;fill-opacity:1"><g><path style="stroke:none" d="M 3.765625 -2.109375 L 9.34375 -2.109375 L 9.34375 0 L 1.140625 0 L 1.140625 -12.734375 L 3.765625 -12.734375 Z M 3.765625 -2.109375" transform="translate(126.897738, 30.70102)"/></g></g><g style="fill:#fff;fill-opacity:1"><g><path style="stroke:none" d="M 10.734375 -10.609375 L 6.828125 -10.609375 L 6.828125 0 L 4.203125 0 L 4.203125 -10.609375 L 0.34375 -10.609375 L 0.34375 -12.734375 L 10.734375 -12.734375 Z M 10.734375 -10.609375" transform="translate(136.601311, 30.70102)"/></g></g><g style="fill:#fff;fill-opacity:1"><g><path style="stroke:none" d="M 11.5 0 L 8.875 0 L 8.875 -5.453125 L 3.765625 -5.453125 L 3.765625 0 L 1.140625 0 L 1.140625 -12.734375 L 3.765625 -12.734375 L 3.765625 -7.578125 L 8.875 -7.578125 L 8.875 -12.734375 L 11.5 -12.734375 Z M 11.5 0" transform="translate(147.68736, 30.70102)"/></g></g><g style="fill:#fff;fill-opacity:1"><g><path style="stroke:none" transform="translate(160.348379, 30.70102)"/></g></g><g style="fill:#fff;fill-opacity:1"><g><path style="stroke:none" d="M 11.140625 -4.25 C 11.035156 -2.875 10.523438 -1.789062 9.609375 -1 C 8.703125 -0.21875 7.503906 0.171875 6.015625 0.171875 C 4.378906 0.171875 3.09375 -0.375 2.15625 -1.46875 C 1.21875 -2.570312 0.75 -4.082031 0.75 -6 L 0.75 -6.78125 C 0.75 -8.007812 0.960938 -9.085938 1.390625 -10.015625 C 1.828125 -10.953125 2.445312 -11.671875 3.25 -12.171875 C 4.050781 -12.671875 4.984375 -12.921875 6.046875 -12.921875 C 7.515625 -12.921875 8.695312 -12.523438 9.59375 -11.734375 C 10.5 -10.941406 11.019531 -9.835938 11.15625 -8.421875 L 8.53125 -8.421875 C 8.46875 -9.242188 8.238281 -9.835938 7.84375 -10.203125 C 7.445312 -10.578125 6.847656 -10.765625 6.046875 -10.765625 C 5.171875 -10.765625 4.515625 -10.445312 4.078125 -9.8125 C 3.648438 -9.1875 3.425781 -8.21875 3.40625 -6.90625 L 3.40625 -5.9375 C 3.40625 -4.5625 3.613281 -3.554688 4.03125 -2.921875 C 4.457031 -2.285156 5.117188 -1.96875 6.015625 -1.96875 C 6.828125 -1.96875 7.429688 -2.148438 7.828125 -2.515625 C 8.222656 -2.890625 8.453125 -3.46875 8.515625 -4.25 Z M 11.140625 -4.25" transform="translate(164.810798, 30.70102)"/></g></g><g style="fill:#fff;fill-opacity:1"><g><path style="stroke:none" d="M 8.328125 -2.625 L 3.734375 -2.625 L 2.859375 0 L 0.0625 0 L 4.796875 -12.734375 L 7.234375 -12.734375 L 12 0 L 9.21875 0 Z M 4.4375 -4.75 L 7.625 -4.75 L 6.015625 -9.515625 Z M 4.4375 -4.75" transform="translate(176.535585, 30.70102)"/></g></g><g style="fill:#fff;fill-opacity:1"><g><path style="stroke:none" d="M 5.859375 -4.671875 L 3.765625 -4.671875 L 3.765625 0 L 1.140625 0 L 1.140625 -12.734375 L 5.875 -12.734375 C 7.375 -12.734375 8.53125 -12.398438 9.34375 -11.734375 C 10.164062 -11.066406 10.578125 -10.117188 10.578125 -8.890625 C 10.578125 -8.023438 10.390625 -7.300781 10.015625 -6.71875 C 9.640625 -6.132812 9.066406 -5.671875 8.296875 -5.328125 L 11.0625 -0.125 L 11.0625 0 L 8.25 0 Z M 3.765625 -6.796875 L 5.875 -6.796875 C 6.539062 -6.796875 7.050781 -6.960938 7.40625 -7.296875 C 7.769531 -7.628906 7.953125 -8.09375 7.953125 -8.6875 C 7.953125 -9.28125 7.78125 -9.75 7.4375 -10.09375 C 7.101562 -10.4375 6.582031 -10.609375 5.875 -10.609375 L 3.765625 -10.609375 Z M 3.765625 -6.796875" transform="translate(188.592865, 30.70102)"/></g></g><g style="fill:#fff;fill-opacity:1"><g><path style="stroke:none" d="M 8.796875 -5.515625 L 3.765625 -5.515625 L 3.765625 -2.109375 L 9.671875 -2.109375 L 9.671875 0 L 1.140625 0 L 1.140625 -12.734375 L 9.65625 -12.734375 L 9.65625 -10.609375 L 3.765625 -10.609375 L 3.765625 -7.578125 L 8.796875 -7.578125 Z M 8.796875 -5.515625" transform="translate(200.028907, 30.70102)"/></g></g><g style="fill:#fff;fill-opacity:1"><g><path style="stroke:none" d="M 3.921875 -1.703125 C 3.921875 -1.953125 3.832031 -2.144531 3.65625 -2.28125 C 3.476562 -2.414062 3.160156 -2.554688 2.703125 -2.703125 C 2.242188 -2.847656 1.878906 -2.992188 1.609375 -3.140625 C 0.867188 -3.535156 0.5 -4.070312 0.5 -4.75 C 0.5 -5.09375 0.597656 -5.398438 0.796875 -5.671875 C 0.992188 -5.953125 1.273438 -6.164062 1.640625 -6.3125 C 2.015625 -6.46875 2.429688 -6.546875 2.890625 -6.546875 C 3.347656 -6.546875 3.757812 -6.460938 4.125 -6.296875 C 4.488281 -6.128906 4.769531 -5.894531 4.96875 -5.59375 C 5.164062 -5.289062 5.265625 -4.945312 5.265625 -4.5625 L 3.9375 -4.5625 C 3.9375 -4.851562 3.84375 -5.082031 3.65625 -5.25 C 3.46875 -5.414062 3.207031 -5.5 2.875 -5.5 C 2.539062 -5.5 2.285156 -5.425781 2.109375 -5.28125 C 1.929688 -5.144531 1.84375 -4.96875 1.84375 -4.75 C 1.84375 -4.53125 1.945312 -4.347656 2.15625 -4.203125 C 2.363281 -4.066406 2.675781 -3.9375 3.09375 -3.8125 C 3.851562 -3.582031 4.40625 -3.296875 4.75 -2.953125 C 5.09375 -2.617188 5.265625 -2.203125 5.265625 -1.703125 C 5.265625 -1.140625 5.050781 -0.695312 4.625 -0.375 C 4.207031 -0.0625 3.640625 0.09375 2.921875 0.09375 C 2.421875 0.09375 1.96875 0.00390625 1.5625 -0.171875 C 1.15625 -0.359375 0.84375 -0.609375 0.625 -0.921875 C 0.414062 -1.242188 0.3125 -1.613281 0.3125 -2.03125 L 1.640625 -2.03125 C 1.640625 -1.320312 2.066406 -0.96875 2.921875 -0.96875 C 3.234375 -0.96875 3.476562 -1.03125 3.65625 -1.15625 C 3.832031 -1.28125 3.921875 -1.460938 3.921875 -1.703125 Z M 3.921875 -1.703125" transform="translate(75.072431, 48.258658)"/></g></g><g style="fill:#fff;fill-opacity:1"><g><path style="stroke:none" d="M 5.890625 -3.09375 C 5.890625 -2.445312 5.773438 -1.882812 5.546875 -1.40625 C 5.328125 -0.925781 5.003906 -0.554688 4.578125 -0.296875 C 4.160156 -0.0351562 3.679688 0.09375 3.140625 0.09375 C 2.609375 0.09375 2.128906 -0.0351562 1.703125 -0.296875 C 1.285156 -0.554688 0.960938 -0.925781 0.734375 -1.40625 C 0.503906 -1.882812 0.382812 -2.429688 0.375 -3.046875 L 0.375 -3.375 C 0.375 -4.007812 0.488281 -4.566406 0.71875 -5.046875 C 0.945312 -5.535156 1.269531 -5.90625 1.6875 -6.15625 C 2.113281 -6.414062 2.59375 -6.546875 3.125 -6.546875 C 3.664062 -6.546875 4.144531 -6.414062 4.5625 -6.15625 C 4.988281 -5.90625 5.316406 -5.535156 5.546875 -5.046875 C 5.773438 -4.566406 5.890625 -4.007812 5.890625 -3.375 Z M 4.53125 -3.375 C 4.53125 -4.050781 4.410156 -4.566406 4.171875 -4.921875 C 3.929688 -5.273438 3.585938 -5.453125 3.140625 -5.453125 C 2.691406 -5.453125 2.34375 -5.273438 2.09375 -4.921875 C 1.851562 -4.578125 1.734375 -4.070312 1.734375 -3.40625 L 1.734375 -3.09375 C 1.734375 -2.425781 1.851562 -1.910156 2.09375 -1.546875 C 2.332031 -1.179688 2.679688 -1 3.140625 -1 C 3.585938 -1 3.929688 -1.175781 4.171875 -1.53125 C 4.410156 -1.882812 4.53125 -2.394531 4.53125 -3.0625 Z M 4.53125 -3.375" transform="translate(84.299254, 48.258658)"/></g></g><g style="fill:#fff;fill-opacity:1"><g><path style="stroke:none" d="M 1.90625 -1.0625 L 4.734375 -1.0625 L 4.734375 0 L 0.578125 0 L 0.578125 -6.46875 L 1.90625 -6.46875 Z M 1.90625 -1.0625" transform="translate(94.213915, 48.258658)"/></g></g><g style="fill:#fff;fill-opacity:1"><g><path style="stroke:none" d="M 5.46875 -6.46875 L 5.46875 -2.203125 C 5.46875 -1.492188 5.242188 -0.929688 4.796875 -0.515625 C 4.359375 -0.109375 3.757812 0.09375 3 0.09375 C 2.238281 0.09375 1.632812 -0.101562 1.1875 -0.5 C 0.75 -0.90625 0.523438 -1.457031 0.515625 -2.15625 L 0.515625 -6.46875 L 1.84375 -6.46875 L 1.84375 -2.203125 C 1.84375 -1.773438 1.941406 -1.460938 2.140625 -1.265625 C 2.347656 -1.078125 2.632812 -0.984375 3 -0.984375 C 3.738281 -0.984375 4.117188 -1.375 4.140625 -2.15625 L 4.140625 -6.46875 Z M 5.46875 -6.46875" transform="translate(102.775088, 48.258658)"/></g></g><g style="fill:#fff;fill-opacity:1"><g><path style="stroke:none" d="M 5.4375 -5.390625 L 3.46875 -5.390625 L 3.46875 0 L 2.125 0 L 2.125 -5.390625 L 0.171875 -5.390625 L 0.171875 -6.46875 L 5.4375 -6.46875 Z M 5.4375 -5.390625" transform="translate(112.396864, 48.258658)"/></g></g><g style="fill:#fff;fill-opacity:1"><g><path style="stroke:none" d="M 2 0 L 0.65625 0 L 0.65625 -6.46875 L 2 -6.46875 Z M 2 0" transform="translate(121.65919, 48.258658)"/></g></g><g style="fill:#fff;fill-opacity:1"><g><path style="stroke:none" d="M 5.890625 -3.09375 C 5.890625 -2.445312 5.773438 -1.882812 5.546875 -1.40625 C 5.328125 -0.925781 5.003906 -0.554688 4.578125 -0.296875 C 4.160156 -0.0351562 3.679688 0.09375 3.140625 0.09375 C 2.609375 0.09375 2.128906 -0.0351562 1.703125 -0.296875 C 1.285156 -0.554688 0.960938 -0.925781 0.734375 -1.40625 C 0.503906 -1.882812 0.382812 -2.429688 0.375 -3.046875 L 0.375 -3.375 C 0.375 -4.007812 0.488281 -4.566406 0.71875 -5.046875 C 0.945312 -5.535156 1.269531 -5.90625 1.6875 -6.15625 C 2.113281 -6.414062 2.59375 -6.546875 3.125 -6.546875 C 3.664062 -6.546875 4.144531 -6.414062 4.5625 -6.15625 C 4.988281 -5.90625 5.316406 -5.535156 5.546875 -5.046875 C 5.773438 -4.566406 5.890625 -4.007812 5.890625 -3.375 Z M 4.53125 -3.375 C 4.53125 -4.050781 4.410156 -4.566406 4.171875 -4.921875 C 3.929688 -5.273438 3.585938 -5.453125 3.140625 -5.453125 C 2.691406 -5.453125 2.34375 -5.273438 2.09375 -4.921875 C 1.851562 -4.578125 1.734375 -4.070312 1.734375 -3.40625 L 1.734375 -3.09375 C 1.734375 -2.425781 1.851562 -1.910156 2.09375 -1.546875 C 2.332031 -1.179688 2.679688 -1 3.140625 -1 C 3.585938 -1 3.929688 -1.175781 4.171875 -1.53125 C 4.410156 -1.882812 4.53125 -2.394531 4.53125 -3.0625 Z M 4.53125 -3.375" transform="translate(127.948278, 48.258658)"/></g></g><g style="fill:#fff;fill-opacity:1"><g><path style="stroke:none" d="M 5.828125 0 L 4.5 0 L 1.90625 -4.25 L 1.90625 0 L 0.578125 0 L 0.578125 -6.46875 L 1.90625 -6.46875 L 4.5 -2.203125 L 4.5 -6.46875 L 5.828125 -6.46875 Z M 5.828125 0" transform="translate(137.862937, 48.258658)"/></g></g><g style="fill:#fff;fill-opacity:1"><g><path style="stroke:none" d="M 3.921875 -1.703125 C 3.921875 -1.953125 3.832031 -2.144531 3.65625 -2.28125 C 3.476562 -2.414062 3.160156 -2.554688 2.703125 -2.703125 C 2.242188 -2.847656 1.878906 -2.992188 1.609375 -3.140625 C 0.867188 -3.535156 0.5 -4.070312 0.5 -4.75 C 0.5 -5.09375 0.597656 -5.398438 0.796875 -5.671875 C 0.992188 -5.953125 1.273438 -6.164062 1.640625 -6.3125 C 2.015625 -6.46875 2.429688 -6.546875 2.890625 -6.546875 C 3.347656 -6.546875 3.757812 -6.460938 4.125 -6.296875 C 4.488281 -6.128906 4.769531 -5.894531 4.96875 -5.59375 C 5.164062 -5.289062 5.265625 -4.945312 5.265625 -4.5625 L 3.9375 -4.5625 C 3.9375 -4.851562 3.84375 -5.082031 3.65625 -5.25 C 3.46875 -5.414062 3.207031 -5.5 2.875 -5.5 C 2.539062 -5.5 2.285156 -5.425781 2.109375 -5.28125 C 1.929688 -5.144531 1.84375 -4.96875 1.84375 -4.75 C 1.84375 -4.53125 1.945312 -4.347656 2.15625 -4.203125 C 2.363281 -4.066406 2.675781 -3.9375 3.09375 -3.8125 C 3.851562 -3.582031 4.40625 -3.296875 4.75 -2.953125 C 5.09375 -2.617188 5.265625 -2.203125 5.265625 -1.703125 C 5.265625 -1.140625 5.050781 -0.695312 4.625 -0.375 C 4.207031 -0.0625 3.640625 0.09375 2.921875 0.09375 C 2.421875 0.09375 1.96875 0.00390625 1.5625 -0.171875 C 1.15625 -0.359375 0.84375 -0.609375 0.625 -0.921875 C 0.414062 -1.242188 0.3125 -1.613281 0.3125 -2.03125 L 1.640625 -2.03125 C 1.640625 -1.320312 2.066406 -0.96875 2.921875 -0.96875 C 3.234375 -0.96875 3.476562 -1.03125 3.65625 -1.15625 C 3.832031 -1.28125 3.921875 -1.460938 3.921875 -1.703125 Z M 3.921875 -1.703125" transform="translate(147.919601, 48.258658)"/></g></g><g style="fill:#fff;fill-opacity:1"><g><path style="stroke:none" transform="translate(157.146422, 48.258658)"/></g></g><g style="fill:#fff;fill-opacity:1"><g><path style="stroke:none" d="M 2 0 L 0.65625 0 L 0.65625 -6.46875 L 2 -6.46875 Z M 2 0" transform="translate(163.049433, 48.258658)"/></g></g><g style="fill:#fff;fill-opacity:1"><g><path style="stroke:none" d="M 3.921875 -1.703125 C 3.921875 -1.953125 3.832031 -2.144531 3.65625 -2.28125 C 3.476562 -2.414062 3.160156 -2.554688 2.703125 -2.703125 C 2.242188 -2.847656 1.878906 -2.992188 1.609375 -3.140625 C 0.867188 -3.535156 0.5 -4.070312 0.5 -4.75 C 0.5 -5.09375 0.597656 -5.398438 0.796875 -5.671875 C 0.992188 -5.953125 1.273438 -6.164062 1.640625 -6.3125 C 2.015625 -6.46875 2.429688 -6.546875 2.890625 -6.546875 C 3.347656 -6.546875 3.757812 -6.460938 4.125 -6.296875 C 4.488281 -6.128906 4.769531 -5.894531 4.96875 -5.59375 C 5.164062 -5.289062 5.265625 -4.945312 5.265625 -4.5625 L 3.9375 -4.5625 C 3.9375 -4.851562 3.84375 -5.082031 3.65625 -5.25 C 3.46875 -5.414062 3.207031 -5.5 2.875 -5.5 C 2.539062 -5.5 2.285156 -5.425781 2.109375 -5.28125 C 1.929688 -5.144531 1.84375 -4.96875 1.84375 -4.75 C 1.84375 -4.53125 1.945312 -4.347656 2.15625 -4.203125 C 2.363281 -4.066406 2.675781 -3.9375 3.09375 -3.8125 C 3.851562 -3.582031 4.40625 -3.296875 4.75 -2.953125 C 5.09375 -2.617188 5.265625 -2.203125 5.265625 -1.703125 C 5.265625 -1.140625 5.050781 -0.695312 4.625 -0.375 C 4.207031 -0.0625 3.640625 0.09375 2.921875 0.09375 C 2.421875 0.09375 1.96875 0.00390625 1.5625 -0.171875 C 1.15625 -0.359375 0.84375 -0.609375 0.625 -0.921875 C 0.414062 -1.242188 0.3125 -1.613281 0.3125 -2.03125 L 1.640625 -2.03125 C 1.640625 -1.320312 2.066406 -0.96875 2.921875 -0.96875 C 3.234375 -0.96875 3.476562 -1.03125 3.65625 -1.15625 C 3.832031 -1.28125 3.921875 -1.460938 3.921875 -1.703125 Z M 3.921875 -1.703125" transform="translate(169.338521, 48.258658)"/></g></g><g style="fill:#fff;fill-opacity:1"><g><path style="stroke:none" transform="translate(178.565342, 48.258658)"/></g></g><g style="fill:#fff;fill-opacity:1"><g><path style="stroke:none" d="M 5.84375 0 L 4.5 0 L 4.5 -2.765625 L 1.90625 -2.765625 L 1.90625 0 L 0.578125 0 L 0.578125 -6.46875 L 1.90625 -6.46875 L 1.90625 -3.84375 L 4.5 -3.84375 L 4.5 -6.46875 L 5.84375 -6.46875 Z M 5.84375 0" transform="translate(184.468359, 48.258658)"/></g></g><g style="fill:#fff;fill-opacity:1"><g><path style="stroke:none" d="M 4.46875 -2.796875 L 1.90625 -2.796875 L 1.90625 -1.0625 L 4.90625 -1.0625 L 4.90625 0 L 0.578125 0 L 0.578125 -6.46875 L 4.90625 -6.46875 L 4.90625 -5.390625 L 1.90625 -5.390625 L 1.90625 -3.84375 L 4.46875 -3.84375 Z M 4.46875 -2.796875" transform="translate(194.529467, 48.258658)"/></g></g><g style="fill:#fff;fill-opacity:1"><g><path style="stroke:none" d="M 2.96875 -2.359375 L 1.90625 -2.359375 L 1.90625 0 L 0.578125 0 L 0.578125 -6.46875 L 2.984375 -6.46875 C 3.742188 -6.46875 4.332031 -6.296875 4.75 -5.953125 C 5.164062 -5.609375 5.375 -5.128906 5.375 -4.515625 C 5.375 -4.066406 5.273438 -3.695312 5.078125 -3.40625 C 4.890625 -3.113281 4.601562 -2.878906 4.21875 -2.703125 L 5.609375 -0.0625 L 5.609375 0 L 4.1875 0 Z M 1.90625 -3.453125 L 2.984375 -3.453125 C 3.316406 -3.453125 3.570312 -3.535156 3.75 -3.703125 C 3.9375 -3.867188 4.03125 -4.101562 4.03125 -4.40625 C 4.03125 -4.707031 3.941406 -4.945312 3.765625 -5.125 C 3.597656 -5.300781 3.335938 -5.390625 2.984375 -5.390625 L 1.90625 -5.390625 Z M 1.90625 -3.453125" transform="translate(203.281463, 48.258658)"/></g></g><g style="fill:#fff;fill-opacity:1"><g><path style="stroke:none" d="M 4.46875 -2.796875 L 1.90625 -2.796875 L 1.90625 -1.0625 L 4.90625 -1.0625 L 4.90625 0 L 0.578125 0 L 0.578125 -6.46875 L 4.90625 -6.46875 L 4.90625 -5.390625 L 1.90625 -5.390625 L 1.90625 -3.84375 L 4.46875 -3.84375 Z M 4.46875 -2.796875" transform="translate(212.721298, 48.258658)"/></g></g><g clip-path="url(#clip1)" clip-rule="nonzero"><path style="stroke:none;fill-rule:nonzero;fill:#ed4c4c;fill-opacity:1" d="M 69.574219 15.550781 C 69.507812 14.726562 69.386719 13.914062 69.203125 13.109375 C 69.019531 12.304688 68.78125 11.519531 68.480469 10.75 C 68.183594 9.980469 67.832031 9.238281 67.425781 8.519531 C 67.015625 7.800781 66.558594 7.117188 66.054688 6.46875 C 65.546875 5.816406 64.992188 5.207031 64.398438 4.636719 C 63.800781 4.066406 63.164062 3.542969 62.492188 3.066406 C 61.820312 2.589844 61.113281 2.167969 60.378906 1.792969 C 59.644531 1.417969 58.882812 1.101562 58.101562 0.839844 C 57.320312 0.578125 56.523438 0.375 55.710938 0.230469 C 54.898438 0.0820312 54.082031 0 53.257812 -0.0273438 C 52.429688 -0.0507812 51.609375 -0.0195312 50.789062 0.078125 C 49.972656 0.171875 49.164062 0.328125 48.367188 0.539062 C 47.570312 0.753906 46.792969 1.023438 46.035156 1.351562 C 45.277344 1.679688 44.546875 2.058594 43.847656 2.496094 C 43.144531 2.929688 42.480469 3.410156 41.847656 3.945312 C 41.21875 4.476562 40.628906 5.050781 40.085938 5.667969 L 26.691406 20.851562 C 26.390625 21.15625 26.105469 21.472656 25.839844 21.804688 C 25.574219 22.140625 25.328125 22.488281 25.101562 22.847656 C 24.875 23.207031 24.664062 23.578125 24.476562 23.960938 C 24.289062 24.34375 24.125 24.738281 23.980469 25.140625 C 23.835938 25.539062 23.714844 25.949219 23.613281 26.363281 C 23.511719 26.777344 23.4375 27.195312 23.382812 27.617188 C 23.328125 28.042969 23.296875 28.464844 23.289062 28.890625 C 23.28125 29.320312 23.292969 29.742188 23.332031 30.167969 C 23.371094 30.59375 23.433594 31.015625 23.515625 31.433594 C 23.601562 31.851562 23.707031 32.261719 23.835938 32.667969 C 23.964844 33.074219 24.117188 33.472656 24.289062 33.863281 C 24.460938 34.253906 24.65625 34.632812 24.871094 35 C 25.082031 35.371094 25.316406 35.726562 25.570312 36.070312 C 25.824219 36.414062 26.09375 36.742188 26.382812 37.054688 C 26.671875 37.371094 26.976562 37.667969 27.296875 37.949219 C 27.617188 38.226562 27.953125 38.492188 28.300781 38.734375 C 28.652344 38.980469 29.015625 39.203125 29.386719 39.40625 C 29.761719 39.613281 30.144531 39.796875 30.539062 39.957031 C 30.933594 40.121094 31.335938 40.261719 31.746094 40.378906 C 32.15625 40.5 32.570312 40.59375 32.992188 40.667969 C 33.410156 40.742188 33.832031 40.792969 34.257812 40.820312 C 34.683594 40.847656 35.109375 40.851562 35.535156 40.832031 C 35.960938 40.816406 36.386719 40.773438 36.808594 40.707031 C 37.226562 40.640625 37.644531 40.554688 38.058594 40.445312 C 38.46875 40.332031 38.875 40.199219 39.269531 40.046875 C 39.667969 39.890625 40.054688 39.714844 40.433594 39.519531 C 40.8125 39.320312 41.179688 39.105469 41.53125 38.867188 C 41.886719 38.628906 42.226562 38.375 42.554688 38.101562 C 42.882812 37.828125 43.191406 37.535156 43.488281 37.226562 C 43.78125 36.921875 44.058594 36.597656 44.320312 36.257812 C 44.578125 35.921875 44.820312 35.570312 45.039062 35.203125 C 45.261719 34.839844 45.460938 34.464844 45.644531 34.078125 C 45.824219 33.691406 45.980469 33.296875 46.121094 32.894531 C 46.257812 32.488281 46.371094 32.078125 46.464844 31.664062 C 46.558594 31.246094 46.628906 30.828125 46.671875 30.402344 C 46.71875 29.980469 46.746094 29.554688 46.746094 29.128906 C 46.746094 28.703125 46.722656 28.277344 46.675781 27.851562 C 46.628906 27.429688 46.5625 27.007812 46.46875 26.59375 C 46.378906 26.175781 46.265625 25.765625 46.128906 25.363281 C 45.992188 24.957031 45.832031 24.5625 45.652344 24.175781 C 45.472656 23.789062 45.273438 23.414062 45.054688 23.046875 C 44.832031 22.683594 44.59375 22.332031 44.335938 21.992188 C 44.074219 21.652344 43.796875 21.328125 43.503906 21.019531 C 43.210938 20.710938 42.898438 20.421875 42.574219 20.144531 C 42.246094 19.871094 41.90625 19.617188 41.554688 19.378906 C 41.199219 19.140625 40.832031 18.921875 40.457031 18.722656 C 40.078125 18.527344 39.691406 18.351562 39.292969 18.195312 C 38.898438 18.039062 38.492188 17.90625 38.082031 17.792969 L 44.96875 9.984375 C 45.40625 9.460938 45.886719 8.984375 46.414062 8.558594 C 46.945312 8.128906 47.511719 7.757812 48.113281 7.441406 C 48.714844 7.125 49.339844 6.867188 49.992188 6.675781 C 50.644531 6.480469 51.308594 6.355469 51.988281 6.292969 C 52.664062 6.230469 53.34375 6.234375 54.019531 6.304688 C 54.695312 6.375 55.359375 6.511719 56.007812 6.714844 C 56.660156 6.914062 57.28125 7.179688 57.878906 7.503906 C 58.476562 7.828125 59.039062 8.207031 59.5625 8.640625 C 60.085938 9.074219 60.5625 9.558594 60.988281 10.085938 C 61.417969 10.613281 61.789062 11.179688 62.109375 11.78125 C 62.425781 12.382812 62.679688 13.011719 62.875 13.664062 C 63.066406 14.316406 63.195312 14.980469 63.257812 15.65625 C 63.320312 16.335938 63.316406 17.011719 63.246094 17.6875 C 63.175781 18.367188 63.039062 19.027344 62.835938 19.679688 C 62.636719 20.328125 62.375 20.953125 62.050781 21.550781 C 61.726562 22.148438 61.34375 22.710938 60.910156 23.234375 L 38.347656 52.15625 C 38.167969 52.382812 37.96875 52.585938 37.746094 52.769531 C 37.523438 52.953125 37.285156 53.105469 37.027344 53.234375 C 36.769531 53.367188 36.503906 53.464844 36.222656 53.535156 C 35.945312 53.601562 35.660156 53.640625 35.375 53.648438 C 35.085938 53.652344 34.800781 53.628906 34.519531 53.570312 C 34.238281 53.511719 33.964844 53.425781 33.703125 53.308594 C 33.441406 53.191406 33.195312 53.042969 32.964844 52.871094 C 32.734375 52.699219 32.527344 52.503906 32.339844 52.285156 L 9.6875 25.667969 C 9.253906 25.152344 8.867188 24.605469 8.53125 24.019531 C 8.195312 23.4375 7.910156 22.828125 7.683594 22.191406 C 7.453125 21.558594 7.285156 20.910156 7.171875 20.246094 C 7.058594 19.582031 7.003906 18.910156 7.007812 18.238281 C 7.015625 17.5625 7.078125 16.894531 7.203125 16.230469 C 7.328125 15.570312 7.511719 14.921875 7.75 14.292969 C 7.992188 13.664062 8.285156 13.058594 8.628906 12.480469 C 8.976562 11.902344 9.371094 11.359375 9.816406 10.851562 C 10.320312 10.28125 10.875 9.761719 11.484375 9.304688 C 12.09375 8.84375 12.742188 8.449219 13.429688 8.121094 C 14.117188 7.792969 14.832031 7.535156 15.570312 7.351562 C 16.3125 7.167969 17.0625 7.058594 17.824219 7.027344 C 18.585938 6.996094 19.34375 7.039062 20.09375 7.160156 C 20.847656 7.277344 21.582031 7.472656 22.296875 7.742188 C 23.007812 8.011719 23.6875 8.347656 24.332031 8.753906 C 24.980469 9.160156 25.578125 9.625 26.128906 10.152344 L 27.019531 11.003906 L 31.394531 6.164062 L 30.632812 5.441406 C 29.816406 4.660156 28.929688 3.964844 27.976562 3.351562 C 27.027344 2.742188 26.027344 2.226562 24.976562 1.804688 C 23.925781 1.382812 22.847656 1.0625 21.734375 0.847656 C 20.625 0.632812 19.503906 0.523438 18.371094 0.519531 C 17.242188 0.515625 16.121094 0.621094 15.007812 0.832031 C 13.898438 1.042969 12.816406 1.355469 11.761719 1.773438 C 10.710938 2.191406 9.707031 2.703125 8.753906 3.308594 C 7.800781 3.917969 6.910156 4.609375 6.089844 5.386719 C 5.265625 6.164062 4.523438 7.007812 3.863281 7.925781 C 3.199219 8.84375 2.632812 9.816406 2.15625 10.84375 C 1.679688 11.871094 1.304688 12.929688 1.027344 14.027344 C 0.753906 15.125 0.585938 16.238281 0.523438 17.367188 C 0.460938 18.5 0.503906 19.625 0.65625 20.746094 C 0.808594 21.867188 1.0625 22.960938 1.421875 24.035156 C 1.785156 25.109375 2.242188 26.136719 2.796875 27.121094 C 3.355469 28.105469 3.996094 29.03125 4.730469 29.894531 L 27.375 56.515625 C 28.359375 57.679688 29.542969 58.578125 30.925781 59.21875 C 32.308594 59.859375 33.761719 60.175781 35.285156 60.175781 L 35.511719 60.175781 C 37.074219 60.144531 38.554688 59.777344 39.953125 59.078125 C 41.351562 58.375 42.527344 57.410156 43.488281 56.175781 L 66.050781 27.238281 C 67.347656 25.578125 68.300781 23.742188 68.90625 21.722656 C 69.515625 19.707031 69.738281 17.648438 69.574219 15.550781 Z M 35.011719 23.90625 C 35.398438 23.902344 35.785156 23.945312 36.164062 24.03125 C 36.542969 24.117188 36.910156 24.242188 37.261719 24.410156 C 37.613281 24.578125 37.941406 24.78125 38.246094 25.019531 C 38.550781 25.261719 38.828125 25.535156 39.074219 25.835938 C 39.316406 26.136719 39.527344 26.464844 39.699219 26.8125 C 39.871094 27.160156 40.003906 27.523438 40.09375 27.902344 C 40.1875 28.28125 40.234375 28.664062 40.242188 29.054688 C 40.246094 29.441406 40.207031 29.828125 40.128906 30.207031 C 40.046875 30.589844 39.925781 30.957031 39.765625 31.308594 C 39.601562 31.664062 39.402344 31.996094 39.164062 32.304688 C 38.929688 32.613281 38.660156 32.890625 38.363281 33.140625 C 38.0625 33.390625 37.738281 33.601562 37.394531 33.78125 C 37.046875 33.957031 36.683594 34.09375 36.308594 34.191406 C 35.929688 34.285156 35.546875 34.339844 35.160156 34.347656 C 34.769531 34.359375 34.382812 34.328125 34.003906 34.25 C 33.621094 34.175781 33.253906 34.058594 32.894531 33.902344 C 32.539062 33.742188 32.207031 33.546875 31.894531 33.316406 C 31.582031 33.082031 31.300781 32.816406 31.046875 32.523438 C 30.792969 32.226562 30.578125 31.90625 30.394531 31.5625 C 30.214844 31.21875 30.074219 30.859375 29.972656 30.480469 C 29.871094 30.105469 29.8125 29.722656 29.796875 29.335938 C 29.78125 28.945312 29.8125 28.558594 29.882812 28.175781 C 29.953125 27.792969 30.066406 27.425781 30.21875 27.066406 C 30.371094 26.710938 30.5625 26.375 30.792969 26.058594 L 31.441406 25.320312 C 32.441406 24.375 33.632812 23.902344 35.011719 23.90625 Z M 35.011719 23.90625"/></g><path style="fill:none;stroke-width:1;stroke-linecap:round;stroke-linejoin:miter;stroke:#ed4c4c;stroke-opacity:1;stroke-miterlimit:4" d="M 3.998939 -0.00111236 L 111.491282 -0.00111236" transform="matrix(1.495455,0,0,1.483662,51.156484,36.427432)"/><path style="fill-rule:nonzero;fill:#ed4c4c;fill-opacity:1;stroke-width:1;stroke-linecap:butt;stroke-linejoin:miter;stroke:#ed4c4c;stroke-opacity:1;stroke-miterlimit:4" d="M 3.500031 -0.00111236 C 3.500031 0.198984 3.46085 0.391181 3.3851 0.572848 C 3.309349 0.757147 3.202254 0.920383 3.061202 1.059924 C 2.920149 1.202097 2.7582 1.310044 2.572743 1.386396 C 2.389897 1.462749 2.199215 1.499608 2.000697 1.499608 C 1.802179 1.499608 1.608885 1.462749 1.426039 1.386396 C 1.243194 1.310044 1.081245 1.202097 0.940192 1.059924 C 0.79914 0.920383 0.689433 0.757147 0.613682 0.572848 C 0.537932 0.391181 0.498751 0.198984 0.498751 -0.00111236 C 0.498751 -0.198576 0.537932 -0.390773 0.613682 -0.575072 C 0.689433 -0.756738 0.79914 -0.919975 0.940192 -1.059515 C 1.081245 -1.201689 1.243194 -1.309636 1.426039 -1.385988 C 1.608885 -1.462341 1.802179 -1.4992 2.000697 -1.4992 C 2.199215 -1.4992 2.389897 -1.462341 2.572743 -1.385988 C 2.7582 -1.309636 2.920149 -1.201689 3.061202 -1.059515 C 3.202254 -0.919975 3.309349 -0.756738 3.3851 -0.575072 C 3.46085 -0.390773 3.500031 -0.198576 3.500031 -0.00111236 Z M 3.500031 -0.00111236" transform="matrix(1.495455,0,0,1.483662,51.156484,36.427432)"/><path style="fill-rule:nonzero;fill:#ed4c4c;fill-opacity:1;stroke-width:1;stroke-linecap:butt;stroke-linejoin:miter;stroke:#ed4c4c;stroke-opacity:1;stroke-miterlimit:4" d="M -0.498988 -0.00111236 C -0.498988 0.198984 -0.53817 0.391181 -0.61392 0.572848 C -0.68967 0.757147 -0.799378 0.920383 -0.94043 1.059924 C -1.07887 1.202097 -1.243431 1.310044 -1.426277 1.386396 C -1.609123 1.462749 -1.799805 1.499608 -2.000935 1.499608 C -2.199453 1.499608 -2.390135 1.462749 -2.572981 1.386396 C -2.758438 1.310044 -2.920387 1.202097 -3.06144 1.059924 C -3.202492 0.920383 -3.309587 0.757147 -3.385338 0.572848 C -3.461088 0.391181 -3.500269 0.198984 -3.500269 -0.00111236 C -3.500269 -0.198576 -3.461088 -0.390773 -3.385338 -0.575072 C -3.309587 -0.756738 -3.202492 -0.919975 -3.06144 -1.059515 C -2.920387 -1.201689 -2.758438 -1.309636 -2.572981 -1.385988 C -2.390135 -1.462341 -2.199453 -1.4992 -2.000935 -1.4992 C -1.799805 -1.4992 -1.609123 -1.462341 -1.426277 -1.385988 C -1.243431 -1.309636 -1.07887 -1.201689 -0.94043 -1.059515 C -0.799378 -0.919975 -0.68967 -0.756738 -0.61392 -0.575072 C -0.53817 -0.390773 -0.498988 -0.198576 -0.498988 -0.00111236 Z M -0.498988 -0.00111236" transform="matrix(1.495455,0,0,1.483662,223.867309,36.427432)"/></g></svg>