<svg xmlns="http://www.w3.org/2000/svg" xmlns:xlink="http://www.w3.org/1999/xlink" width="450" height="600" version="1.2" viewBox="0 0 337.5 450"><defs><clipPath id="clip1"><path d="M 250 28 L 303.855469 28 L 303.855469 81 L 250 81 Z M 250 28"/></clipPath><clipPath id="clip2"><path d="M 249.855469 27.457031 L 303.855469 27.457031 L 303.855469 81.457031 L 249.855469 81.457031 Z M 249.855469 27.457031"/></clipPath><clipPath id="clip3"><path d="M 33.761719 355.457031 L 79.441406 355.457031 L 79.441406 415.878906 L 33.761719 415.878906 Z M 33.761719 355.457031"/></clipPath><clipPath id="clip4"><path d="M 53 348.726562 L 59 348.726562 L 59 356 L 53 356 Z M 53 348.726562"/></clipPath><clipPath id="clip5"><path d="M 0 54.402344 L 70.5 54.402344 L 70.5 146.652344 L 0 146.652344 Z M 0 54.402344"/></clipPath><clipPath id="clip6"><path d="M 123 130.4375 L 168 130.4375 L 168 166 L 123 166 Z M 123 130.4375"/></clipPath><clipPath id="clip7"><path d="M 122.285156 132.554688 L 168.789062 132.554688 L 168.789062 179.875 L 122.285156 179.875 Z M 122.285156 132.554688"/></clipPath><clipPath id="clip8"><path d="M 132 149 L 176.847656 149 L 176.847656 175 L 132 175 Z M 132 149"/></clipPath><clipPath id="clip9"><path d="M 288.402344 255.875 L 336.8125 255.875 L 336.8125 304.25 L 288.402344 304.25 Z M 288.402344 255.875"/></clipPath><clipPath id="clip10"><path d="M 288.402344 256.164062 L 336.8125 256.164062 L 336.8125 304.25 L 288.402344 304.25 Z M 288.402344 256.164062"/></clipPath><clipPath id="clip11"><path d="M 169 298.203125 L 220 298.203125 L 220 348 L 169 348 Z M 169 298.203125"/></clipPath><clipPath id="clip12"><path d="M 168.75 298.203125 L 220.417969 298.203125 L 220.417969 348.1875 L 168.75 348.1875 Z M 168.75 298.203125"/></clipPath></defs><g id="surface1"><g clip-path="url(#clip1)" clip-rule="nonzero"><path style="stroke:none;fill-rule:nonzero;fill:#8ed2e8;fill-opacity:1" d="M 276.925781 28.328125 C 262.457031 28.328125 250.730469 40.058594 250.730469 54.523438 C 250.730469 63.5 255.238281 71.417969 262.117188 76.136719 C 264.367188 77.351562 266.820312 78.234375 269.410156 78.71875 C 269.410156 78.722656 269.414062 78.722656 269.414062 78.722656 C 270.949219 79.011719 272.527344 79.164062 274.140625 79.164062 C 288.167969 79.164062 299.582031 67.75 299.582031 53.722656 C 299.582031 53.304688 299.921875 52.964844 300.339844 52.964844 C 300.757812 52.964844 301.097656 53.304688 301.097656 53.722656 C 301.097656 65.257812 293.816406 75.121094 283.605469 78.960938 C 283.605469 78.964844 283.601562 78.964844 283.59375 78.964844 C 280.941406 79.964844 278.089844 80.554688 275.117188 80.660156 C 275.714844 80.699219 276.316406 80.722656 276.925781 80.722656 C 291.394531 80.722656 303.121094 68.992188 303.121094 54.523438 C 303.121094 40.058594 291.394531 28.328125 276.925781 28.328125 Z M 286.753906 58.894531 L 281.292969 58.894531 L 281.292969 64.355469 C 281.292969 66.570312 279.339844 68.367188 276.925781 68.367188 C 274.511719 68.367188 272.554688 66.570312 272.554688 64.355469 L 272.554688 58.894531 L 267.09375 58.894531 C 264.878906 58.894531 263.082031 56.9375 263.082031 54.523438 C 263.082031 52.113281 264.878906 50.15625 267.09375 50.15625 L 272.554688 50.15625 L 272.554688 44.695312 C 272.554688 42.476562 274.511719 40.679688 276.925781 40.679688 C 279.339844 40.679688 281.292969 42.476562 281.292969 44.695312 L 281.292969 50.15625 L 286.753906 50.15625 C 288.972656 50.15625 290.769531 52.113281 290.769531 54.523438 C 290.769531 56.9375 288.972656 58.894531 286.753906 58.894531 Z M 299.773438 47.09375 C 299.023438 47.84375 297.808594 47.84375 297.058594 47.09375 C 296.308594 46.339844 296.308594 45.125 297.058594 44.375 C 297.808594 43.625 299.023438 43.625 299.773438 44.375 C 300.527344 45.125 300.527344 46.34375 299.773438 47.09375 Z M 299.773438 47.09375"/></g><g clip-path="url(#clip2)" clip-rule="nonzero"><path style="stroke:none;fill-rule:nonzero;fill:#8ed2e8;fill-opacity:1" d="M 276.925781 27.464844 C 262.003906 27.464844 249.863281 39.605469 249.863281 54.523438 C 249.863281 60.679688 251.929688 66.359375 255.402344 70.90625 C 255.402344 70.910156 255.402344 70.910156 255.402344 70.910156 C 255.40625 70.914062 255.40625 70.917969 255.410156 70.917969 L 255.414062 70.921875 C 257.332031 73.011719 259.597656 74.78125 262.117188 76.136719 C 264.367188 77.351562 266.820312 78.234375 269.410156 78.71875 C 259.097656 75.511719 251.59375 65.878906 251.59375 54.523438 C 251.59375 40.558594 262.957031 29.191406 276.925781 29.191406 C 290.890625 29.191406 302.257812 40.558594 302.257812 54.523438 C 302.257812 66.183594 294.34375 76.023438 283.605469 78.960938 C 283.601562 78.964844 283.597656 78.964844 283.59375 78.964844 C 280.941406 79.964844 278.089844 80.554688 275.117188 80.660156 L 275.113281 80.660156 C 274.792969 80.671875 274.46875 80.675781 274.140625 80.675781 C 271.722656 80.675781 269.378906 80.359375 267.148438 79.757812 C 270.183594 80.9375 273.480469 81.585938 276.925781 81.585938 C 291.847656 81.585938 303.984375 69.445312 303.984375 54.523438 C 303.984375 39.605469 291.847656 27.464844 276.925781 27.464844 Z M 276.925781 27.464844"/></g><g clip-path="url(#clip3)" clip-rule="nonzero"><path style="stroke:none;fill-rule:nonzero;fill:#e79450;fill-opacity:1" d="M 79.441406 415.878906 L 33.761719 415.878906 L 33.761719 355.5 L 79.441406 355.5 L 79.441406 415.878906"/></g><path style="stroke:none;fill-rule:nonzero;fill:#919192;fill-opacity:1" d="M 63.113281 356.914062 L 49.320312 356.914062 L 49.320312 355.027344 L 63.113281 355.027344 L 63.113281 356.914062"/><g clip-path="url(#clip4)" clip-rule="nonzero"><path style="stroke:none;fill-rule:nonzero;fill:#fff;fill-opacity:1" d="M 56.136719 352.082031 C 55.496094 352.082031 54.976562 351.566406 54.976562 350.929688 C 54.976562 350.292969 55.496094 349.777344 56.136719 349.777344 C 56.78125 349.777344 57.300781 350.292969 57.300781 350.929688 C 57.300781 351.566406 56.78125 352.082031 56.136719 352.082031 Z M 56.136719 348.726562 C 54.910156 348.726562 53.917969 349.710938 53.917969 350.929688 L 53.917969 355.085938 L 58.359375 355.085938 L 58.359375 350.929688 C 58.359375 349.710938 57.363281 348.726562 56.136719 348.726562"/></g><path style="stroke:none;fill-rule:nonzero;fill:#fff;fill-opacity:1" d="M 75.832031 411.671875 L 36.125 411.671875 L 36.125 360.558594 L 75.832031 360.558594 L 75.832031 411.671875"/><path style="stroke:none;fill-rule:nonzero;fill:#dfdfdd;fill-opacity:1" d="M 66.90625 378.226562 L 40.097656 378.226562 L 40.097656 377.675781 L 66.90625 377.675781 L 66.90625 378.226562"/><path style="stroke:none;fill-rule:nonzero;fill:#dfdfdd;fill-opacity:1" d="M 66.90625 380.699219 L 40.097656 380.699219 L 40.097656 380.148438 L 66.90625 380.148438 L 66.90625 380.699219"/><path style="stroke:none;fill-rule:nonzero;fill:#dfdfdd;fill-opacity:1" d="M 66.980469 383.355469 L 40.175781 383.355469 L 40.175781 382.804688 L 66.980469 382.804688 L 66.980469 383.355469"/><path style="stroke:none;fill-rule:nonzero;fill:#dfdfdd;fill-opacity:1" d="M 66.980469 385.828125 L 40.175781 385.828125 L 40.175781 385.28125 L 66.980469 385.28125 L 66.980469 385.828125"/><path style="stroke:none;fill-rule:nonzero;fill:#dfdfdd;fill-opacity:1" d="M 66.863281 388.238281 L 40.058594 388.238281 L 40.058594 387.6875 L 66.863281 387.6875 L 66.863281 388.238281"/><path style="stroke:none;fill-rule:nonzero;fill:#dfdfdd;fill-opacity:1" d="M 66.863281 390.710938 L 40.058594 390.710938 L 40.058594 390.160156 L 66.863281 390.160156 L 66.863281 390.710938"/><path style="stroke:none;fill-rule:nonzero;fill:#dfdfdd;fill-opacity:1" d="M 66.945312 393.367188 L 40.136719 393.367188 L 40.136719 392.820312 L 66.945312 392.820312 L 66.945312 393.367188"/><path style="stroke:none;fill-rule:nonzero;fill:#dfdfdd;fill-opacity:1" d="M 66.945312 395.84375 L 40.136719 395.84375 L 40.136719 395.292969 L 66.945312 395.292969 L 66.945312 395.84375"/><path style="stroke:none;fill-rule:nonzero;fill:#dfdfdd;fill-opacity:1" d="M 66.945312 398.355469 L 40.136719 398.355469 L 40.136719 397.804688 L 66.945312 397.804688 L 66.945312 398.355469"/><path style="stroke:none;fill-rule:nonzero;fill:#dfdfdd;fill-opacity:1" d="M 66.945312 400.832031 L 40.136719 400.832031 L 40.136719 400.28125 L 66.945312 400.28125 L 66.945312 400.832031"/><path style="stroke:none;fill-rule:nonzero;fill:#dfdfdd;fill-opacity:1" d="M 67.023438 403.484375 L 40.214844 403.484375 L 40.214844 402.9375 L 67.023438 402.9375 L 67.023438 403.484375"/><path style="stroke:none;fill-rule:nonzero;fill:#dfdfdd;fill-opacity:1" d="M 67.023438 405.960938 L 40.214844 405.960938 L 40.214844 405.410156 L 67.023438 405.410156 L 67.023438 405.960938"/><path style="stroke:none;fill-rule:nonzero;fill:#ed1c24;fill-opacity:1" d="M 69.882812 380.957031 L 68.1875 378.703125 L 68.699219 378.328125 L 69.996094 380.058594 L 72.910156 377.730469 L 73.304688 378.21875 L 69.882812 380.957031"/><path style="stroke:none;fill-rule:nonzero;fill:#ed1c24;fill-opacity:1" d="M 69.882812 385.488281 L 68.1875 383.234375 L 68.699219 382.859375 L 69.996094 384.589844 L 72.910156 382.261719 L 73.304688 382.75 L 69.882812 385.488281"/><path style="stroke:none;fill-rule:nonzero;fill:#ed1c24;fill-opacity:1" d="M 69.882812 390.796875 L 68.1875 388.539062 L 68.699219 388.164062 L 69.996094 389.898438 L 72.910156 387.566406 L 73.304688 388.054688 L 69.882812 390.796875"/><path style="stroke:none;fill-rule:nonzero;fill:#ed1c24;fill-opacity:1" d="M 69.882812 395.582031 L 68.1875 393.324219 L 68.699219 392.949219 L 69.996094 394.679688 L 72.910156 392.351562 L 73.304688 392.839844 L 69.882812 395.582031"/><path style="stroke:none;fill-rule:nonzero;fill:#ed1c24;fill-opacity:1" d="M 69.882812 400.425781 L 68.1875 398.171875 L 68.699219 397.796875 L 69.996094 399.527344 L 72.910156 397.195312 L 73.304688 397.683594 L 69.882812 400.425781"/><path style="stroke:none;fill-rule:nonzero;fill:#ed1c24;fill-opacity:1" d="M 69.882812 405.101562 L 68.1875 402.847656 L 68.699219 402.472656 L 69.996094 404.203125 L 72.910156 401.875 L 73.304688 402.363281 L 69.882812 405.101562"/><path style="stroke:none;fill-rule:nonzero;fill:#e9e9e9;fill-opacity:1" d="M 65.175781 362.734375 L 47.101562 362.734375 L 47.101562 356.914062 L 65.175781 356.914062 L 65.175781 362.734375"/><path style="stroke:none;fill-rule:nonzero;fill:#5191d4;fill-opacity:1" d="M 57.65625 375.335938 L 55.550781 375.335938 L 55.550781 364.492188 L 57.65625 364.492188 L 57.65625 375.335938"/><path style="stroke:none;fill-rule:nonzero;fill:#5191d4;fill-opacity:1" d="M 62.304688 370.917969 L 50.898438 370.917969 L 50.898438 368.90625 L 62.304688 368.90625 L 62.304688 370.917969"/><g clip-path="url(#clip5)" clip-rule="nonzero"><path style="stroke:none;fill-rule:nonzero;fill:#e4e4e3;fill-opacity:1" d="M 14.667969 61.507812 C 14.519531 61.503906 14.367188 61.496094 14.222656 61.449219 C 13.785156 61.289062 13.609375 60.710938 13.792969 60.289062 C 13.976562 59.863281 14.425781 59.597656 14.882812 59.515625 C 15.683594 59.363281 16.664062 59.480469 17.484375 59.460938 C 18.574219 59.4375 19.660156 59.425781 20.75 59.425781 C 21.363281 59.425781 22.128906 59.53125 22.328125 60.109375 C 22.472656 60.546875 22.175781 61.027344 21.773438 61.25 C 21.367188 61.46875 20.886719 61.488281 20.425781 61.5 C 18.507812 61.554688 16.589844 61.554688 14.667969 61.507812 Z M 70.605469 121.40625 C 54.941406 113.367188 47.777344 123.542969 46.035156 133.542969 C 44.296875 143.546875 34.558594 146.261719 28.328125 141.753906 C 24.390625 138.914062 23.324219 132.324219 23.070312 127.847656 C 23.136719 127.839844 23.207031 127.828125 23.273438 127.820312 C 23.527344 127.777344 23.808594 127.710938 23.949219 127.5 C 24.035156 127.371094 24.054688 127.214844 24.074219 127.0625 C 24.464844 123.617188 24.777344 120.160156 25.007812 116.703125 C 25.03125 116.332031 25.046875 115.929688 24.828125 115.625 C 24.503906 115.175781 23.847656 115.167969 23.289062 115.203125 C 23.148438 115.214844 23.003906 115.222656 22.863281 115.230469 C 22.90625 114.457031 22.917969 113.683594 22.898438 112.90625 C 23.277344 112.875 23.652344 112.828125 24.027344 112.773438 C 24.113281 110.984375 24.152344 109.191406 24.144531 107.398438 C 26.011719 107.128906 27.800781 106.597656 29.3125 105.5 C 31.335938 104.027344 32.589844 101.691406 33.222656 99.277344 C 33.851562 96.867188 33.921875 94.347656 33.988281 91.855469 C 34.226562 83.042969 34.460938 74.230469 34.695312 65.417969 C 34.730469 64.09375 34.761719 62.75 34.621094 61.433594 C 34.621094 60.335938 34.136719 57.894531 34.160156 56.933594 C 34.175781 56.277344 34.007812 55.621094 33.679688 55.054688 C 33.546875 54.824219 33.375 54.597656 33.128906 54.492188 C 32.925781 54.402344 32.695312 54.410156 32.476562 54.414062 C 31.078125 54.449219 27.710938 54.484375 26.3125 54.519531 C 25.480469 54.542969 24.554688 54.605469 23.988281 55.207031 C 23.535156 55.6875 23.429688 56.394531 23.042969 56.929688 C 22.402344 57.820312 21.167969 58.019531 20.0625 58.089844 C 18.242188 58.210938 16.414062 58.1875 14.59375 58.023438 C 14.210938 57.988281 13.820312 57.945312 13.46875 57.792969 C 13.023438 57.597656 12.675781 57.238281 12.351562 56.875 C 11.644531 56.085938 10.929688 55.191406 9.898438 54.914062 C 9.351562 54.769531 8.769531 54.816406 8.203125 54.867188 C 5.683594 55.09375 3.957031 55.320312 1.441406 55.542969 C 1.179688 55.570312 0.898438 55.601562 0.710938 55.78125 C 0.542969 55.941406 0.492188 56.183594 0.449219 56.410156 C 0.125 58.199219 0.0078125 60.214844 0.15625 62.023438 C 0.300781 69.566406 1.683594 91.0625 2.035156 97.582031 C 2.089844 98.636719 2.160156 99.734375 2.703125 100.644531 C 3.234375 101.539062 6.980469 105.734375 8.429688 106.71875 C 9.230469 107.257812 10.140625 107.542969 11.097656 107.6875 C 11.230469 109.1875 11.414062 110.691406 11.328125 112.21875 C 11.320312 112.378906 11.316406 112.554688 11.433594 112.664062 C 11.53125 112.757812 11.683594 112.761719 11.820312 112.761719 C 13.179688 112.761719 14.535156 112.757812 15.894531 112.753906 C 15.917969 111.09375 15.941406 109.4375 15.964844 107.777344 C 17.003906 107.753906 18.046875 107.730469 19.085938 107.707031 C 19.132812 109.355469 19.367188 111.082031 19.402344 112.570312 C 19.402344 112.660156 19.410156 112.761719 19.472656 112.828125 C 19.535156 112.898438 19.636719 112.910156 19.730469 112.917969 C 19.960938 112.9375 20.1875 112.949219 20.417969 112.960938 C 20.429688 113.558594 20.675781 114.9375 20.636719 115.347656 C 20.238281 115.324219 19.789062 115.265625 19.472656 115.347656 C 18.394531 115.617188 18.816406 117.503906 18.832031 118.347656 C 18.886719 121.195312 19.011719 124.054688 19.558594 126.855469 C 19.640625 127.28125 19.773438 127.757812 20.164062 127.957031 C 20.3125 128.03125 20.484375 128.054688 20.65625 128.058594 C 20.894531 132.019531 21.523438 135.949219 23.539062 139.320312 C 25.34375 142.335938 28.242188 144.722656 31.617188 145.738281 C 34.992188 146.757812 38.816406 146.351562 41.800781 144.488281 C 43.03125 143.71875 44.113281 142.722656 44.976562 141.558594 C 47.132812 138.644531 47.785156 134.933594 48.722656 131.4375 C 49.664062 127.9375 51.152344 124.273438 54.265625 122.394531 C 55.738281 121.507812 57.453125 121.101562 59.160156 120.917969 C 62.597656 120.546875 66.214844 121.066406 69.144531 122.890625 C 70.816406 123.761719 70.605469 121.40625 70.605469 121.40625"/></g><path style="stroke:none;fill-rule:nonzero;fill:#aac1dd;fill-opacity:1" d="M 21.125 116.621094 C 20.886719 117.125 20.644531 117.65625 20.679688 118.210938 C 20.714844 118.765625 21.128906 119.339844 21.6875 119.351562 C 21.820312 119.355469 21.960938 119.324219 22.074219 119.246094 C 22.144531 119.199219 22.203125 119.132812 22.253906 119.0625 C 22.519531 118.683594 22.519531 118.183594 22.46875 117.722656 C 22.398438 117.050781 22.246094 116.386719 22.019531 115.75 C 21.898438 115.410156 21.789062 115.207031 21.59375 115.613281 C 21.433594 115.945312 21.28125 116.285156 21.125 116.621094 Z M 20.285156 125.648438 C 20.332031 126.078125 20.40625 126.558594 20.765625 126.804688 C 21.015625 126.976562 21.34375 126.980469 21.648438 126.980469 C 22.023438 126.980469 22.398438 126.980469 22.773438 126.976562 C 22.855469 126.976562 22.941406 126.976562 23.007812 126.929688 C 23.078125 126.882812 23.113281 126.800781 23.140625 126.71875 C 23.285156 126.28125 23.292969 125.8125 23.300781 125.351562 C 23.316406 124.191406 23.332031 123.035156 23.347656 121.875 C 23.347656 121.828125 23.347656 121.78125 23.320312 121.742188 C 23.289062 121.707031 23.234375 121.695312 23.183594 121.691406 C 22.621094 121.640625 22.085938 121.828125 21.542969 121.933594 C 21.15625 122.007812 20.433594 121.871094 20.132812 122.164062 C 19.796875 122.488281 20.03125 123.210938 20.070312 123.613281 C 20.144531 124.289062 20.214844 124.96875 20.285156 125.648438 Z M 31.957031 80.921875 C 32.316406 86.75 31.808594 92.894531 31.515625 98.625 C 31.523438 98.449219 31.53125 98.269531 31.542969 98.089844 C 31.011719 101.546875 27.589844 104.617188 24.265625 105.757812 C 23.496094 106.019531 22.582031 106.289062 22.3125 107.050781 C 22.152344 107.507812 22.285156 108.007812 22.3125 108.492188 C 22.34375 108.976562 22.195312 109.550781 21.738281 109.71875 C 21.011719 109.984375 20.464844 109.015625 20.402344 108.253906 C 20.34375 107.488281 20.277344 106.515625 19.546875 106.269531 C 19.320312 106.191406 19.070312 106.210938 18.828125 106.234375 C 17.523438 106.351562 16.59375 106.472656 15.289062 106.589844 C 15.03125 106.613281 14.742188 106.652344 14.585938 106.855469 C 14.445312 107.035156 14.453125 107.28125 14.46875 107.503906 C 14.527344 108.402344 14.753906 109.441406 14.261719 110.195312 C 13.941406 110.691406 13.085938 110.488281 12.726562 110.015625 C 12.367188 109.546875 12.328125 108.914062 12.304688 108.324219 C 12.28125 107.730469 12.246094 107.101562 11.894531 106.625 C 11.574219 106.191406 11.050781 105.964844 10.570312 105.71875 C 8.875 104.84375 7.503906 103.472656 6.164062 102.121094 C 5.539062 101.492188 4.902344 100.847656 4.539062 100.042969 C 4.191406 99.285156 4.113281 98.441406 4.039062 97.613281 C 3.765625 94.601562 3.488281 91.59375 3.214844 88.585938 C 2.953125 85.707031 2.429688 77.832031 2.433594 76.375 C 5.421875 76.863281 31.898438 79.980469 31.957031 80.921875"/><path style="stroke:none;fill-rule:nonzero;fill:#8691ba;fill-opacity:1" d="M 27.984375 77.253906 C 28.933594 77.460938 29.90625 77.6875 30.710938 78.222656 C 31.519531 78.757812 31.800781 79.628906 31.945312 80.734375 C 32.148438 82.320312 29.980469 82.988281 28.382812 83.191406 C 25.089844 83.605469 21.761719 83.09375 18.484375 82.578125 C 16.417969 82.253906 14.335938 81.925781 12.378906 81.195312 C 10.203125 80.382812 8.03125 79.804688 5.84375 79.007812 C 4.644531 78.574219 0.792969 77.273438 3.214844 75.085938 C 5.089844 73.394531 8.632812 74.769531 10.746094 74.835938 C 13.449219 74.917969 16.148438 75.179688 18.824219 75.5625 C 21.898438 76 24.953125 76.589844 27.984375 77.253906"/><path style="stroke:none;fill-rule:nonzero;fill:#545f83;fill-opacity:1" d="M 28.699219 97.3125 C 28.933594 97.453125 29.21875 97.515625 29.488281 97.484375 C 29.792969 97.453125 30.097656 97.492188 30.390625 97.347656 C 29.898438 97.285156 29.234375 97.238281 28.699219 97.3125 Z M 30.335938 95.566406 C 29.722656 95.378906 29.074219 95.308594 28.4375 95.359375 C 28.847656 95.480469 29.242188 95.613281 29.671875 95.644531 C 29.917969 95.660156 30.117188 95.675781 30.335938 95.566406 Z M 28.40625 93.484375 C 29.023438 93.652344 29.703125 93.578125 30.269531 93.285156 C 29.640625 93.28125 29.015625 93.328125 28.40625 93.484375 Z M 30.457031 91.519531 C 29.796875 91.429688 29.128906 91.410156 28.464844 91.457031 C 28.511719 91.644531 28.761719 91.671875 28.953125 91.699219 C 29.238281 91.734375 29.519531 91.757812 29.800781 91.765625 C 30.070312 91.769531 30.238281 91.679688 30.457031 91.519531 Z M 28.652344 87.601562 C 29.21875 87.714844 29.8125 87.6875 30.371094 87.527344 C 29.773438 87.488281 29.226562 87.441406 28.652344 87.601562 Z M 30.304688 85.5625 C 29.65625 85.496094 29 85.550781 28.371094 85.726562 C 28.726562 85.785156 29.132812 85.875 29.492188 85.894531 C 29.890625 85.914062 30.078125 85.890625 30.304688 85.5625 Z M 28.1875 83.800781 C 28.796875 84.035156 29.464844 84.109375 30.109375 84.011719 C 29.433594 83.824219 28.871094 83.628906 28.1875 83.800781 Z M 30.265625 81.28125 C 29.492188 81.125 28.695312 81.0625 27.902344 81.101562 C 27.980469 81.175781 28.035156 81.300781 28.132812 81.34375 C 28.234375 81.390625 28.34375 81.402344 28.453125 81.414062 C 29.058594 81.480469 29.675781 81.421875 30.265625 81.28125 Z M 29.972656 77.402344 C 29.621094 77.335938 29.269531 77.269531 28.914062 77.203125 C 28.539062 77.132812 28.140625 77.0625 27.777344 77.183594 C 28.222656 77.367188 28.734375 77.417969 29.21875 77.414062 C 29.496094 77.414062 29.703125 77.363281 29.972656 77.402344 Z M 29.894531 75.207031 C 29.125 75.132812 28.347656 75.160156 27.585938 75.28125 C 27.71875 75.320312 27.847656 75.410156 27.980469 75.4375 C 28.582031 75.566406 29.335938 75.46875 29.894531 75.207031 Z M 27.59375 72.917969 C 28.355469 73.007812 29.121094 73.050781 29.886719 73.046875 C 29.136719 72.796875 28.371094 72.785156 27.59375 72.917969 Z M 29.730469 70.902344 C 28.992188 70.851562 28.160156 70.867188 27.441406 71.050781 C 27.71875 71.179688 28.035156 71.175781 28.339844 71.167969 C 28.984375 71.148438 29.628906 71.132812 30.273438 71.117188 C 30.164062 70.976562 29.90625 70.914062 29.730469 70.902344 Z M 30.667969 68.957031 C 29.757812 68.976562 28.847656 68.992188 27.9375 69.011719 C 26.128906 69.042969 24.230469 69.101562 22.667969 70.003906 C 23.207031 69.941406 23.800781 70.023438 24.339844 69.964844 C 26.394531 69.730469 28.636719 69.332031 30.667969 68.957031 Z M 23.023438 79.28125 C 25.371094 79.644531 27.761719 79.722656 30.128906 79.515625 C 27.8125 79.050781 25.375 79.0625 23.023438 79.28125 Z M 22.496094 89.863281 C 25.355469 90.0625 28.242188 89.933594 31.074219 89.476562 C 28.148438 89.378906 25.402344 89.554688 22.496094 89.863281 Z M 30.839844 98.996094 C 30.308594 98.808594 29.730469 98.796875 29.167969 98.792969 C 27.042969 98.777344 24.917969 98.800781 22.792969 98.863281 C 23.804688 99.179688 24.824219 99.363281 25.882812 99.425781 C 27.566406 99.519531 29.257812 99.582031 30.839844 98.996094 Z M 12.667969 112.863281 C 12.648438 112.375 12.535156 111.644531 12.941406 111.269531 C 13.179688 111.050781 13.507812 111.050781 13.804688 111.054688 C 14.421875 111.058594 14.53125 111.113281 14.570312 111.714844 C 14.644531 112.769531 14.660156 113.832031 14.679688 114.890625 C 14.679688 115.046875 14.679688 115.210938 14.605469 115.351562 C 14.441406 115.648438 14.027344 115.675781 13.6875 115.636719 C 13.5 115.617188 13.316406 115.589844 13.132812 115.550781 C 13.03125 115.53125 12.925781 115.503906 12.855469 115.433594 C 12.449219 115.027344 12.691406 113.4375 12.667969 112.863281"/><path style="stroke:none;fill-rule:nonzero;fill:#f7f7f7;fill-opacity:1" d="M 31.691406 68.957031 C 31.539062 71.660156 31.476562 76.863281 31.871094 79.542969 C 32.015625 76.789062 32.152344 71.675781 31.691406 68.957031 Z M 2.566406 71.371094 C 2.601562 70.117188 2.507812 68.804688 2.289062 67.570312 C 2.171875 69.167969 2.203125 70.777344 2.378906 72.367188 C 2.546875 72.011719 2.554688 71.765625 2.566406 71.371094 Z M 30.851562 64.175781 C 30.550781 64.007812 30.199219 63.976562 29.859375 63.945312 C 24.15625 63.445312 18.425781 63.285156 12.703125 63.46875 C 11.652344 63.5 10.597656 63.546875 9.542969 63.589844 C 7.703125 63.671875 5.867188 63.75 4.027344 63.828125 C 3.6875 63.84375 3.335938 63.859375 3.03125 64.007812 C 2.34375 64.339844 2.183594 65.050781 2.039062 65.796875 C 1.984375 65.769531 1.996094 65.886719 1.945312 65.859375 C 2.105469 65.367188 1.960938 64.835938 1.917969 64.320312 C 1.875 63.800781 1.992188 63.191406 2.460938 62.960938 C 2.675781 62.855469 2.929688 62.851562 3.171875 62.851562 C 8.265625 62.859375 13.359375 62.867188 18.449219 62.878906 C 19.96875 62.878906 21.488281 62.882812 23.007812 62.882812 C 25.382812 62.886719 27.753906 62.890625 30.117188 63.089844 C 30.511719 63.121094 30.9375 63.175781 31.21875 63.453125 C 31.453125 63.683594 31.53125 64.023438 31.589844 64.34375 C 31.703125 64.945312 31.769531 65.558594 31.796875 66.171875 C 31.742188 65.367188 31.554688 64.570312 30.851562 64.175781"/><g clip-path="url(#clip6)" clip-rule="nonzero"><path style="stroke:none;fill-rule:nonzero;fill:#647398;fill-opacity:1" d="M 167.285156 154.554688 C 167.296875 155.246094 167.09375 155.976562 167.113281 156.667969 C 167.132812 157.246094 167.121094 157.828125 167.078125 158.40625 C 167.035156 158.960938 166.953125 159.546875 166.601562 159.980469 C 166.09375 160.613281 165.148438 160.699219 164.335938 160.667969 C 159.3125 160.480469 154.269531 160.4375 149.230469 160.480469 C 149.28125 161.261719 149.332031 162.042969 149.382812 162.824219 C 150.125 162.828125 150.867188 162.832031 151.605469 162.839844 C 151.671875 163.464844 151.554688 164.117188 151.625 164.738281 C 147.09375 165.1875 142.53125 165.273438 137.988281 164.996094 C 137.898438 164.320312 137.863281 163.644531 137.910156 162.964844 C 138.546875 162.945312 139.183594 162.929688 139.820312 162.914062 C 139.792969 162.269531 139.84375 161.316406 139.960938 160.640625 C 136.851562 160.71875 133.742188 160.816406 130.636719 160.914062 C 128.777344 160.976562 126.90625 160.855469 125.066406 160.554688 C 124.574219 160.476562 124.042969 160.359375 123.734375 159.964844 C 123.558594 159.734375 123.484375 159.441406 123.421875 159.160156 C 123.195312 158.097656 123.078125 157.007812 123.082031 155.917969 C 123.09375 150.371094 123.0625 144.394531 123.007812 138.84375 C 122.992188 137.105469 122.972656 135.351562 123.257812 133.636719 C 123.417969 132.652344 123.804688 131.539062 124.746094 131.222656 C 127 130.460938 129.832031 130.839844 132.214844 130.773438 C 137.714844 130.621094 148.546875 130.734375 154.765625 130.757812 C 157.59375 130.765625 160.585938 130.75 163.414062 130.742188 C 164.066406 130.742188 164.742188 130.742188 165.347656 130.988281 C 166.671875 131.519531 167.261719 132.828125 167.28125 134.261719 C 167.308594 136.332031 167.109375 139.917969 167.117188 141.921875 L 167.070312 142.121094 C 167.113281 144.613281 167.15625 147.101562 167.199219 149.59375 C 167.375 150.222656 167.480469 150.773438 167.226562 151.179688 C 167.238281 151.757812 167.246094 152.332031 167.257812 152.910156 C 167.480469 153.507812 167.480469 153.945312 167.28125 154.398438 C 167.285156 154.449219 167.285156 154.5 167.285156 154.554688"/></g><g clip-path="url(#clip7)" clip-rule="nonzero"><path style="stroke:none;fill-rule:nonzero;fill:#dddadb;fill-opacity:1" d="M 164.476562 152.992188 C 164.507812 151.207031 164.53125 149.414062 164.546875 147.625 C 162.457031 147.699219 160.363281 147.765625 158.265625 147.824219 C 158.203125 149.535156 158.148438 151.261719 158.105469 152.996094 C 160.230469 152.949219 162.359375 152.941406 164.476562 152.992188 Z M 165.695312 136.007812 C 165.390625 136.027344 165.089844 136.046875 164.785156 136.066406 C 164.796875 138.007812 164.800781 139.953125 164.796875 141.902344 C 165.042969 141.90625 165.289062 141.914062 165.53125 141.917969 C 165.589844 139.972656 165.644531 138.097656 165.6875 136.390625 C 165.691406 136.265625 165.695312 136.136719 165.695312 136.007812 Z M 164.769531 147.398438 C 164.960938 147.394531 165.15625 147.386719 165.351562 147.378906 C 165.414062 145.625 165.472656 143.855469 165.527344 142.136719 C 165.285156 142.132812 165.039062 142.125 164.796875 142.121094 C 164.792969 143.878906 164.785156 145.640625 164.769531 147.398438 Z M 164.695312 153 C 164.839844 153.003906 164.980469 153.007812 165.121094 153.011719 C 165.203125 151.28125 165.277344 149.449219 165.34375 147.597656 C 165.152344 147.605469 164.957031 147.609375 164.765625 147.617188 C 164.75 149.414062 164.726562 151.207031 164.695312 153 Z M 158.585938 136.382812 C 158.5625 138.1875 158.523438 139.992188 158.46875 141.785156 C 160.507812 141.820312 162.546875 141.855469 164.582031 141.898438 C 164.582031 139.957031 164.582031 138.015625 164.566406 136.082031 C 162.578125 136.207031 160.582031 136.304688 158.585938 136.382812 Z M 151.820312 153.4375 C 150.601562 153.492188 149.390625 153.550781 148.191406 153.609375 C 147.40625 153.648438 146.617188 153.6875 145.828125 153.726562 C 145.820312 155.390625 145.820312 157.054688 145.820312 158.714844 C 147.707031 158.679688 149.609375 158.640625 151.511719 158.601562 C 151.582031 156.882812 151.691406 155.152344 151.820312 153.4375 Z M 145.609375 153.734375 C 143.703125 153.824219 141.78125 153.90625 139.855469 153.964844 C 139.769531 155.570312 139.710938 157.199219 139.703125 158.839844 C 141.632812 158.800781 143.609375 158.757812 145.601562 158.71875 C 145.601562 157.0625 145.601562 155.398438 145.609375 153.734375 Z M 152.464844 147.96875 C 152.414062 148.664062 152.355469 149.355469 152.300781 150.042969 C 152.21875 151.089844 152.132812 152.144531 152.054688 153.207031 C 153.988281 153.121094 155.933594 153.046875 157.886719 153 C 157.929688 151.265625 157.984375 149.539062 158.046875 147.832031 C 156.1875 147.882812 154.328125 147.929688 152.464844 147.96875 Z M 158.09375 146.457031 C 158.144531 144.984375 158.199219 143.496094 158.242188 142 C 156.449219 141.96875 154.652344 141.945312 152.855469 141.917969 C 152.769531 143.871094 152.632812 145.820312 152.484375 147.75 C 154.339844 147.710938 156.199219 147.664062 158.054688 147.613281 C 158.066406 147.226562 158.082031 146.839844 158.09375 146.457031 Z M 157.878906 153.21875 C 155.925781 153.265625 153.976562 153.339844 152.039062 153.425781 C 151.910156 155.144531 151.800781 156.875 151.726562 158.597656 C 153.769531 158.558594 155.804688 158.519531 157.808594 158.476562 C 157.808594 156.726562 157.835938 154.972656 157.878906 153.21875 Z M 139.636719 153.96875 C 138.183594 154.011719 136.722656 154.039062 135.265625 154.039062 L 135.230469 157.609375 C 135.226562 158.042969 135.222656 158.480469 135.253906 158.914062 C 136.308594 158.90625 137.34375 158.886719 138.324219 158.867188 C 138.710938 158.859375 139.097656 158.851562 139.488281 158.84375 C 139.496094 157.203125 139.554688 155.578125 139.636719 153.96875 Z M 164.472656 153.210938 C 162.355469 153.160156 160.226562 153.167969 158.097656 153.214844 C 158.054688 154.964844 158.027344 156.722656 158.027344 158.472656 C 159.570312 158.441406 161.09375 158.410156 162.582031 158.378906 C 163.1875 158.367188 163.847656 158.335938 164.308594 157.941406 C 164.332031 157.921875 164.355469 157.898438 164.378906 157.875 C 164.414062 156.324219 164.449219 154.769531 164.472656 153.210938 Z M 135.011719 157.609375 L 135.046875 154.042969 C 135.003906 154.042969 134.957031 154.042969 134.910156 154.042969 C 133.40625 154.042969 131.902344 154.015625 130.402344 153.957031 L 130.515625 158.824219 C 131.992188 158.90625 133.53125 158.925781 135.035156 158.917969 C 135.003906 158.480469 135.007812 158.039062 135.011719 157.609375 Z M 164.691406 153.21875 C 164.667969 154.675781 164.636719 156.136719 164.601562 157.589844 C 164.882812 157.128906 164.941406 156.519531 164.972656 155.960938 C 165.019531 155.089844 165.066406 154.175781 165.109375 153.230469 C 164.972656 153.226562 164.832031 153.21875 164.691406 153.21875 Z M 164.785156 135.847656 C 165.089844 135.828125 165.390625 135.808594 165.695312 135.785156 C 165.683594 135.09375 165.597656 134.402344 165.199219 133.851562 C 165.074219 133.675781 164.925781 133.523438 164.761719 133.386719 C 164.769531 134.207031 164.78125 135.027344 164.785156 135.847656 Z M 130.183594 153.949219 C 128.648438 153.886719 127.113281 153.785156 125.585938 153.644531 C 125.59375 154.378906 125.601562 155.007812 125.597656 155.480469 C 125.597656 156.261719 125.617188 157.109375 126.105469 157.714844 C 126.640625 158.390625 127.578125 158.5625 128.433594 158.65625 C 129.035156 158.722656 129.660156 158.773438 130.296875 158.8125 Z M 158.585938 136.164062 C 160.582031 136.085938 162.578125 135.984375 164.566406 135.859375 C 164.5625 134.980469 164.554688 134.101562 164.542969 133.226562 C 163.863281 132.769531 162.964844 132.59375 162.136719 132.625 C 160.949219 132.664062 159.769531 132.699219 158.589844 132.722656 C 158.601562 133.867188 158.597656 135.015625 158.585938 136.164062 Z M 135.441406 136.324219 C 137.070312 136.347656 138.703125 136.371094 140.335938 136.386719 C 140.28125 135.195312 140.183594 133.996094 140.039062 132.78125 C 138.515625 132.773438 136.996094 132.769531 135.476562 132.769531 Z M 146.042969 136.40625 C 148.269531 136.402344 150.496094 136.378906 152.722656 136.335938 C 152.703125 135.15625 152.648438 133.980469 152.558594 132.808594 C 150.402344 132.820312 148.257812 132.820312 146.125 132.8125 C 146.097656 134.007812 146.070312 135.207031 146.042969 136.40625 Z M 129.773438 136.214844 L 129.695312 132.800781 C 128.957031 132.808594 128.21875 132.820312 127.480469 132.835938 C 127.027344 132.84375 126.554688 132.972656 126.214844 133.269531 C 125.601562 133.800781 125.398438 134.972656 125.332031 136.117188 C 126.808594 136.152344 128.289062 136.183594 129.773438 136.214844 Z M 135.109375 147.976562 L 135.167969 141.777344 C 133.484375 141.773438 131.800781 141.773438 130.121094 141.773438 L 130.265625 147.984375 C 131.878906 147.984375 133.492188 147.984375 135.109375 147.976562 Z M 164.582031 142.117188 C 162.542969 142.074219 160.503906 142.039062 158.460938 142.003906 C 158.414062 143.5 158.363281 144.988281 158.3125 146.464844 C 158.296875 146.84375 158.285156 147.222656 158.273438 147.605469 C 160.367188 147.546875 162.460938 147.480469 164.550781 147.40625 C 164.566406 145.644531 164.578125 143.878906 164.582031 142.117188 Z M 129.914062 132.796875 L 129.992188 136.21875 C 131.730469 136.257812 133.476562 136.289062 135.222656 136.320312 L 135.257812 132.769531 C 133.472656 132.769531 131.691406 132.777344 129.914062 132.796875 Z M 158.25 141.78125 C 158.304688 139.992188 158.347656 138.191406 158.367188 136.394531 C 156.5625 136.460938 154.753906 136.511719 152.949219 136.550781 C 152.976562 138.265625 152.9375 139.984375 152.863281 141.699219 C 154.660156 141.726562 156.457031 141.75 158.25 141.78125 Z M 135.050781 153.824219 L 135.105469 148.195312 C 133.855469 148.199219 132.609375 148.203125 131.363281 148.203125 C 130.996094 148.203125 130.632812 148.203125 130.269531 148.203125 L 130.398438 153.738281 C 131.945312 153.800781 133.496094 153.824219 135.050781 153.824219 Z M 130.050781 148.199219 C 128.53125 148.199219 127.007812 148.191406 125.492188 148.183594 C 125.53125 150.09375 125.5625 151.953125 125.582031 153.425781 C 127.109375 153.566406 128.644531 153.667969 130.179688 153.730469 Z M 129.78125 136.433594 C 128.289062 136.402344 126.804688 136.371094 125.324219 136.335938 C 125.289062 137.117188 125.3125 137.871094 125.304688 138.378906 C 125.300781 138.734375 125.320312 139.9375 125.355469 141.5625 C 126.867188 141.558594 128.382812 141.554688 129.898438 141.554688 Z M 130.046875 147.984375 L 129.902344 141.773438 C 128.386719 141.773438 126.871094 141.777344 125.359375 141.785156 C 125.394531 143.554688 125.441406 145.78125 125.488281 147.964844 C 127.003906 147.972656 128.523438 147.980469 130.046875 147.984375 Z M 135.171875 141.558594 L 135.222656 136.539062 C 133.476562 136.507812 131.734375 136.476562 130 136.4375 L 130.117188 141.554688 C 131.800781 141.554688 133.484375 141.554688 135.171875 141.558594 Z M 135.390625 141.558594 C 137.050781 141.566406 138.710938 141.570312 140.371094 141.582031 C 140.417969 139.925781 140.421875 138.273438 140.347656 136.605469 C 138.707031 136.589844 137.070312 136.566406 135.441406 136.539062 Z M 145.726562 141.839844 C 144.011719 141.824219 142.296875 141.8125 140.582031 141.800781 C 140.519531 143.835938 140.390625 145.871094 140.246094 147.941406 C 142.050781 147.925781 143.851562 147.902344 145.652344 147.875 C 145.671875 145.863281 145.695312 143.851562 145.726562 141.839844 Z M 135.386719 141.777344 L 135.324219 147.976562 C 136.894531 147.96875 138.460938 147.957031 140.03125 147.945312 C 140.171875 145.871094 140.300781 143.832031 140.363281 141.800781 C 138.703125 141.789062 137.046875 141.785156 135.386719 141.777344 Z M 145.609375 153.515625 C 145.617188 151.710938 145.632812 149.902344 145.648438 148.09375 C 143.84375 148.121094 142.039062 148.144531 140.234375 148.160156 C 140.210938 148.476562 140.1875 148.792969 140.167969 149.109375 C 140.058594 150.632812 139.953125 152.179688 139.867188 153.746094 C 141.789062 153.6875 143.707031 153.605469 145.609375 153.515625 Z M 145.820312 136.625 C 145.566406 136.625 145.3125 136.625 145.058594 136.625 C 143.558594 136.625 142.0625 136.617188 140.566406 136.605469 C 140.636719 138.273438 140.636719 139.929688 140.589844 141.582031 C 142.304688 141.59375 144.015625 141.605469 145.730469 141.621094 C 145.757812 139.953125 145.789062 138.289062 145.820312 136.625 Z M 139.949219 149.09375 C 139.972656 148.78125 139.992188 148.472656 140.015625 148.164062 C 138.449219 148.179688 136.886719 148.1875 135.324219 148.195312 L 135.265625 153.824219 C 136.730469 153.820312 138.191406 153.792969 139.648438 153.75 C 139.734375 152.179688 139.84375 150.625 139.949219 149.09375 Z M 152.636719 141.917969 C 150.40625 141.886719 148.175781 141.863281 145.945312 141.839844 C 145.914062 143.851562 145.890625 145.863281 145.871094 147.875 C 148 147.839844 150.132812 147.800781 152.265625 147.753906 C 152.414062 145.820312 152.550781 143.871094 152.636719 141.917969 Z M 152.941406 136.332031 C 154.753906 136.292969 156.5625 136.242188 158.367188 136.171875 C 158.378906 135.023438 158.382812 133.875 158.371094 132.730469 C 156.496094 132.769531 154.632812 132.792969 152.777344 132.808594 C 152.867188 133.980469 152.917969 135.15625 152.941406 136.332031 Z M 145.949219 141.621094 C 148.183594 141.640625 150.414062 141.667969 152.648438 141.699219 C 152.71875 139.984375 152.757812 138.269531 152.730469 136.554688 C 150.5 136.597656 148.269531 136.621094 146.039062 136.625 C 146.003906 138.289062 145.976562 139.953125 145.949219 141.621094 Z M 140.554688 136.386719 C 142.308594 136.402344 144.066406 136.410156 145.828125 136.40625 C 145.851562 135.207031 145.878906 134.007812 145.90625 132.808594 C 144.019531 132.804688 142.136719 132.792969 140.261719 132.78125 C 140.402344 133.996094 140.5 135.195312 140.554688 136.386719 Z M 145.828125 153.503906 C 146.613281 153.46875 147.398438 153.429688 148.179688 153.390625 C 149.390625 153.332031 150.609375 153.273438 151.835938 153.21875 C 151.914062 152.144531 152 151.078125 152.085938 150.027344 C 152.140625 149.34375 152.195312 148.660156 152.246094 147.972656 C 150.121094 148.019531 147.996094 148.058594 145.867188 148.089844 C 145.851562 149.898438 145.835938 151.703125 145.828125 153.503906 Z M 168.730469 171.65625 C 168.746094 171.851562 168.746094 172.042969 168.734375 172.238281 C 168.234375 172.339844 167.726562 172.378906 167.21875 172.394531 C 167.25 173.621094 167.222656 174.847656 167.132812 176.070312 C 167.089844 176.648438 167.015625 177.261719 166.664062 177.714844 C 166.226562 178.273438 165.484375 178.441406 164.796875 178.558594 C 159.9375 179.394531 154.996094 179.542969 150.070312 179.5625 C 141.78125 179.597656 133.492188 180.246094 125.234375 179.566406 C 124.53125 179.507812 123.785156 179.429688 123.242188 178.96875 C 122.453125 178.304688 122.378906 177.113281 122.367188 176.0625 C 122.339844 173.8125 122.3125 170.589844 122.285156 168.34375 C 122.261719 166.351562 122.90625 165.558594 124.757812 165.515625 C 126.9375 165.464844 129.117188 165.375 131.296875 165.277344 C 135.835938 165.078125 140.371094 164.878906 144.910156 164.675781 C 150.984375 164.410156 157.070312 164.144531 163.140625 164.503906 C 163.929688 164.550781 164.761719 164.621094 165.417969 165.082031 C 166.351562 165.738281 166.667969 166.980469 166.84375 168.136719 C 166.949219 168.136719 167.058594 168.140625 167.160156 168.117188 C 167.28125 168.089844 167.394531 168.042969 167.515625 168.007812 C 167.753906 167.9375 168.003906 167.90625 168.253906 167.917969 C 168.253906 167.984375 168.257812 168.046875 168.261719 168.109375 C 168.355469 168.285156 168.355469 168.503906 168.289062 168.667969 C 168.296875 168.808594 168.304688 168.949219 168.3125 169.089844 C 168.3125 169.113281 168.3125 169.140625 168.300781 169.15625 C 168.28125 169.179688 168.253906 169.183594 168.226562 169.1875 C 167.816406 169.234375 167.410156 169.277344 167 169.324219 C 167.0625 169.878906 167.113281 170.433594 167.148438 170.988281 C 167.152344 170.988281 167.152344 170.988281 167.152344 170.988281 C 167.585938 170.984375 168.019531 170.929688 168.4375 170.824219 C 168.480469 170.8125 168.53125 170.804688 168.566406 170.828125 C 168.59375 170.847656 168.605469 170.886719 168.613281 170.921875 C 168.632812 170.992188 168.648438 171.066406 168.660156 171.140625 C 168.789062 171.347656 168.789062 171.347656 168.730469 171.65625"/></g><g clip-path="url(#clip8)" clip-rule="nonzero"><path style="stroke:none;fill-rule:nonzero;fill:#848a8f;fill-opacity:1" d="M 154.710938 172.851562 C 154.78125 172.992188 154.949219 173.046875 155.101562 173.082031 C 156.054688 173.296875 157.0625 173.253906 157.992188 172.953125 C 158.414062 172.820312 159.136719 172.375 158.570312 171.953125 C 158.222656 171.695312 157.527344 171.570312 157.097656 171.570312 C 156.601562 171.570312 154.355469 172.140625 154.710938 172.851562 Z M 147.457031 172.667969 C 147.359375 172.746094 147.257812 172.832031 147.21875 172.953125 C 147.132812 173.230469 147.417969 173.484375 147.691406 173.582031 C 147.996094 173.691406 148.328125 173.710938 148.652344 173.707031 C 149.5 173.695312 150.34375 173.519531 151.125 173.195312 C 151.335938 173.105469 151.566406 172.972656 151.601562 172.75 C 151.640625 172.488281 151.390625 172.28125 151.15625 172.167969 C 150.53125 171.871094 150.007812 171.976562 149.367188 172.03125 C 148.664062 172.09375 148.035156 172.234375 147.457031 172.667969 Z M 141.597656 172.503906 C 141.203125 172.617188 140.824219 172.804688 140.488281 173.046875 C 140.410156 173.109375 140.328125 173.175781 140.289062 173.269531 C 140.230469 173.417969 140.304688 173.59375 140.425781 173.695312 C 140.550781 173.800781 140.710938 173.84375 140.867188 173.875 C 141.964844 174.09375 143.148438 173.859375 144.082031 173.234375 C 144.136719 173.199219 144.195312 173.152344 144.191406 173.085938 C 144.191406 173.050781 144.171875 173.015625 144.148438 172.988281 C 144.011719 172.816406 143.789062 172.734375 143.574219 172.675781 C 143.027344 172.527344 142.15625 172.34375 141.597656 172.503906 Z M 133.910156 172.445312 C 133.65625 172.511719 133.402344 172.601562 133.207031 172.777344 C 133.015625 172.953125 132.890625 173.222656 132.949219 173.476562 C 133.0625 173.957031 133.671875 174.082031 134.160156 174.089844 C 135.191406 174.105469 136.304688 173.996094 137.085938 173.320312 C 137.179688 173.238281 137.277344 173.125 137.253906 173 C 137.082031 172.042969 134.441406 172.3125 133.910156 172.445312 Z M 176.582031 158.773438 C 176.078125 156.25 175.214844 154.054688 173.300781 152.140625 C 171.980469 150.820312 169.984375 149.988281 168.121094 149.902344 C 168.101562 150.039062 168.09375 150.40625 168.074219 150.542969 C 168.839844 150.675781 169.644531 150.542969 170.386719 150.765625 C 170.773438 150.882812 171.128906 151.089844 171.464844 151.320312 C 173.292969 152.574219 174.601562 154.511719 175.320312 156.613281 C 176.042969 158.71875 176.203125 160.988281 176.035156 163.207031 C 175.96875 164.109375 175.847656 165.015625 175.558594 165.875 C 174.589844 168.78125 171.699219 170.820312 168.660156 171.140625 C 168.695312 171.3125 168.71875 171.484375 168.730469 171.65625 C 169.835938 171.480469 170.902344 171.195312 171.871094 170.683594 C 174.089844 169.515625 175.484375 167.984375 176.265625 165.59375 C 176.789062 163.988281 176.851562 160.117188 176.582031 158.773438 Z M 173.027344 163.949219 C 172.59375 165.292969 171.800781 166.53125 170.6875 167.394531 C 170.015625 167.910156 169.246094 168.28125 168.464844 168.597656 C 168.40625 168.621094 168.347656 168.644531 168.289062 168.667969 C 168.28125 168.480469 168.273438 168.296875 168.261719 168.109375 C 168.324219 168.09375 168.386719 168.078125 168.445312 168.0625 C 169.550781 167.785156 170.632812 167.238281 171.324219 166.328125 C 171.550781 166.03125 171.730469 165.703125 171.894531 165.367188 C 172.449219 164.25 172.855469 163.046875 172.949219 161.804688 C 173.054688 160.429688 172.78125 159.054688 172.433594 157.722656 C 172.328125 157.316406 172.214844 156.90625 172.027344 156.527344 C 171.765625 156.003906 171.371094 155.558594 170.984375 155.117188 C 170.519531 154.589844 170.015625 154.046875 169.304688 153.882812 C 168.921875 153.792969 168.152344 153.898438 167.902344 153.515625 C 168.304688 153.203125 169.285156 153.484375 169.71875 153.636719 C 170.363281 153.871094 170.953125 154.265625 171.425781 154.765625 C 172.296875 155.683594 172.804688 156.902344 173.105469 158.136719 C 173.234375 158.671875 173.332031 159.214844 173.390625 159.761719 C 173.546875 161.164062 173.460938 162.605469 173.027344 163.949219"/></g><path style="stroke:none;fill-rule:nonzero;fill:#fabf6b;fill-opacity:1" d="M 159.914062 171.109375 C 159.832031 171.511719 159.816406 171.929688 159.910156 172.328125 C 160.121094 173.257812 160.972656 174.007812 161.917969 174.066406 C 162.859375 174.125 163.8125 173.464844 164.0625 172.546875 C 164.242188 171.878906 164.0625 171.140625 163.667969 170.566406 C 162.566406 168.960938 160.351562 168.984375 159.914062 171.109375 Z M 168.78125 153.097656 C 168.757812 153.515625 168.734375 153.929688 168.710938 154.347656 C 168.234375 154.367188 167.757812 154.382812 167.28125 154.398438 C 167.273438 153.902344 167.265625 153.40625 167.257812 152.910156 C 167.757812 152.847656 168.328125 152.886719 168.609375 152.871094 C 168.640625 152.871094 168.675781 152.867188 168.707031 152.882812 C 168.777344 152.917969 168.785156 153.015625 168.78125 153.097656"/><path style="stroke:none;fill-rule:nonzero;fill:#bf3c26;fill-opacity:1" d="M 136.789062 147.132812 L 137.753906 150.421875 L 137.875 149.8125 C 138.210938 148.160156 138.679688 146.527344 139.269531 144.949219 C 139.625 146.207031 139.949219 147.492188 140.226562 148.765625 L 140.394531 149.53125 L 141.625 142.40625 C 141.695312 143.007812 141.761719 143.636719 141.828125 144.253906 C 141.9375 145.238281 142.046875 146.257812 142.15625 147.15625 C 142.175781 147.308594 142.199219 147.535156 142.363281 147.6875 C 142.511719 147.824219 142.703125 147.859375 142.835938 147.867188 C 144.46875 147.929688 145.324219 147.949219 147.007812 147.949219 L 147.132812 147.949219 L 147.160156 147.828125 C 147.277344 147.296875 147.382812 146.808594 147.480469 146.347656 C 147.71875 145.230469 147.925781 144.246094 148.265625 143.105469 C 148.789062 144.617188 149.195312 146.183594 149.46875 147.761719 L 149.605469 148.566406 L 150.878906 142.273438 L 151.429688 146.414062 C 151.453125 146.585938 151.488281 146.824219 151.640625 147 C 151.796875 147.171875 152.035156 147.277344 152.285156 147.277344 C 154.191406 147.292969 156.058594 147.3125 157.921875 147.382812 L 158.054688 147.386719 L 158.078125 147.253906 C 158.261719 146.1875 158.464844 145.492188 158.828125 144.527344 C 159.117188 146.941406 159.195312 149.390625 159.050781 151.816406 L 158.988281 152.925781 L 159.347656 151.875 C 159.839844 150.460938 160.183594 148.992188 160.382812 147.507812 C 160.789062 147.507812 161.789062 147.503906 162.792969 147.503906 C 163.9375 147.5 165.082031 147.5 165.339844 147.496094 L 165.335938 147.1875 C 165.078125 147.191406 163.9375 147.191406 162.792969 147.195312 C 161.648438 147.195312 160.503906 147.199219 160.246094 147.199219 L 160.113281 147.203125 L 160.097656 147.335938 C 159.953125 148.460938 159.722656 149.578125 159.410156 150.667969 C 159.476562 148.40625 159.359375 146.128906 159.058594 143.890625 L 158.976562 143.304688 L 158.761719 143.851562 C 158.273438 145.085938 158.015625 145.863281 157.800781 147.070312 C 155.976562 147 154.152344 146.984375 152.289062 146.96875 C 152.125 146.96875 151.964844 146.902344 151.871094 146.792969 C 151.785156 146.699219 151.757812 146.546875 151.734375 146.371094 L 150.941406 140.417969 L 149.625 146.929688 C 149.328125 145.445312 148.914062 143.980469 148.398438 142.5625 L 148.242188 142.136719 L 148.109375 142.570312 C 147.683594 143.921875 147.449219 145.015625 147.179688 146.28125 C 147.089844 146.710938 146.996094 147.15625 146.886719 147.640625 C 145.289062 147.640625 144.433594 147.621094 142.851562 147.558594 C 142.730469 147.554688 142.632812 147.519531 142.574219 147.464844 C 142.5 147.394531 142.476562 147.261719 142.460938 147.121094 C 142.351562 146.222656 142.242188 145.203125 142.132812 144.21875 C 142.027344 143.234375 141.917969 142.214844 141.808594 141.316406 L 141.683594 140.277344 L 140.355469 147.945312 C 140.082031 146.765625 139.773438 145.582031 139.4375 144.421875 L 139.308594 143.992188 L 139.144531 144.410156 C 138.546875 145.949219 138.058594 147.539062 137.703125 149.15625 L 136.742188 145.871094 L 135.492188 151.832031 C 135.253906 148.53125 134.933594 145.15625 133.863281 141.964844 L 133.695312 141.460938 L 132.417969 146.757812 C 132.390625 146.886719 132.355469 147 132.289062 147.058594 C 132.210938 147.128906 132.085938 147.140625 131.9375 147.148438 C 130.339844 147.222656 129.527344 147.296875 128.742188 147.371094 C 127.960938 147.445312 127.152344 147.519531 125.5625 147.59375 L 125.578125 147.902344 C 127.175781 147.828125 127.988281 147.75 128.769531 147.675781 C 129.554688 147.605469 130.363281 147.527344 131.953125 147.453125 C 132.101562 147.445312 132.328125 147.4375 132.492188 147.289062 C 132.636719 147.160156 132.683594 146.96875 132.71875 146.832031 L 133.738281 142.582031 C 134.777344 145.9375 135.023438 149.5 135.265625 152.953125 L 135.34375 154.054688 Z M 125.917969 174.496094 C 126.214844 175.316406 127.039062 175.921875 127.910156 175.929688 C 128.148438 175.929688 128.390625 175.886719 128.605469 175.785156 C 128.894531 175.652344 129.128906 175.417969 129.308594 175.15625 C 129.742188 174.53125 129.914062 173.714844 129.710938 172.984375 C 128.882812 170.015625 125 171.949219 125.917969 174.496094 Z M 167.199219 149.59375 C 167.703125 149.546875 168.214844 149.53125 168.703125 149.503906 C 168.757812 149.5 168.820312 149.5 168.863281 149.53125 C 168.917969 149.574219 168.929688 149.648438 168.933594 149.714844 C 168.96875 150.148438 169.003906 150.582031 169.042969 151.015625 C 168.4375 151.089844 167.832031 151.140625 167.226562 151.179688 C 167.21875 150.648438 167.210938 150.121094 167.199219 149.59375"/><g clip-path="url(#clip9)" clip-rule="nonzero"><path style="stroke:none;fill-rule:nonzero;fill:#ae7a56;fill-opacity:1" d="M 336.792969 294.339844 C 336.734375 293.539062 336.480469 292.757812 336.183594 292.011719 C 335.886719 291.265625 334.253906 289.414062 333.722656 288.808594 C 330.785156 285.457031 328.164062 282.980469 325.417969 280.160156 C 324.367188 281.230469 323.320312 282.292969 322.289062 283.34375 C 320.027344 285.652344 315.914062 289.730469 312.6875 292.898438 C 315.046875 295.398438 317.460938 297.847656 319.929688 300.246094 C 321.433594 301.703125 323.023438 303.1875 325.015625 303.839844 C 327.648438 304.699219 330.734375 304.195312 332.847656 302.40625 C 333.589844 301.78125 334.207031 301.023438 334.820312 300.273438 C 335.554688 299.375 337.003906 297.175781 336.792969 294.339844 Z M 288.859375 267.644531 C 288.417969 266.546875 288.273438 265.285156 288.691406 264.179688 C 288.886719 263.664062 289.0625 263.113281 289.324219 262.628906 C 290.496094 260.460938 292.050781 258.433594 294.152344 257.148438 C 296.257812 255.867188 298.96875 255.425781 301.222656 256.421875 C 302.214844 256.863281 303.078125 257.558594 303.902344 258.269531 C 307.058594 260.992188 309.867188 264.089844 312.660156 267.1875 C 311.242188 268.503906 309.769531 269.8125 308.460938 271.195312 C 305.671875 274.15625 302.996094 277.347656 300.0625 280.183594 C 299.773438 279.925781 299.472656 279.671875 299.175781 279.417969 C 296.085938 276.773438 293.257812 273.828125 290.746094 270.636719 C 290.011719 269.707031 289.300781 268.742188 288.859375 267.644531"/></g><g clip-path="url(#clip10)" clip-rule="nonzero"><path style="stroke:none;fill-rule:nonzero;fill:#cb9163;fill-opacity:1" d="M 335.167969 260.695312 C 335.398438 260.980469 335.621094 261.273438 335.808594 261.585938 C 336.597656 262.890625 336.792969 264.398438 336.792969 265.921875 C 336.792969 268.472656 335.070312 270.035156 333.988281 271.222656 C 330.265625 275.3125 326.160156 279.390625 322.289062 283.34375 C 318.824219 286.878906 311.023438 294.5625 308.695312 296.773438 C 307.417969 297.992188 306.121094 299.382812 304.9375 300.691406 C 302.242188 303.679688 300.179688 303.917969 299.230469 304.070312 C 298.636719 304.167969 298.042969 304.265625 297.441406 304.246094 C 295.851562 304.191406 294.414062 303.34375 293.054688 302.523438 C 291.089844 301.332031 289.546875 299.292969 288.714844 297.152344 C 288.53125 296.675781 288.378906 296.175781 288.402344 295.664062 C 288.5 293.769531 289.097656 291.515625 290.359375 290.101562 C 290.980469 289.410156 296.410156 283.5625 299.035156 281.15625 C 302.378906 278.089844 305.347656 274.496094 308.460938 271.195312 C 310.199219 269.355469 312.222656 267.660156 314.03125 265.886719 C 316.984375 262.988281 318.503906 261.5 321.457031 258.605469 C 322.8125 257.273438 324.609375 256.542969 326.496094 256.292969 C 331.550781 255.628906 334.238281 259.519531 335.167969 260.695312"/></g><path style="stroke:none;fill-rule:nonzero;fill:#87453e;fill-opacity:1" d="M 292.796875 267.777344 C 292.921875 267.859375 293.082031 267.917969 293.21875 267.855469 C 293.339844 267.800781 293.402344 267.664062 293.429688 267.535156 C 293.519531 267.070312 293.046875 266.195312 292.460938 266.464844 C 291.882812 266.734375 292.46875 267.566406 292.796875 267.777344 Z M 295.695312 266.445312 C 295.691406 266.625 295.769531 266.796875 295.878906 266.9375 C 296.046875 267.152344 296.3125 267.308594 296.582031 267.277344 C 296.625 267.273438 296.667969 267.261719 296.703125 267.238281 C 296.738281 267.210938 296.765625 267.167969 296.785156 267.128906 C 296.917969 266.871094 296.898438 266.535156 296.726562 266.304688 C 296.460938 265.953125 295.710938 265.855469 295.695312 266.445312 Z M 295.992188 263.425781 C 296.121094 263.6875 296.386719 263.878906 296.675781 263.917969 C 296.726562 263.925781 296.78125 263.925781 296.820312 263.898438 C 296.867188 263.871094 296.886719 263.816406 296.898438 263.765625 C 296.996094 263.351562 296.789062 262.796875 296.355469 262.664062 C 295.859375 262.511719 295.828125 263.085938 295.992188 263.425781 Z M 299.5 263.015625 C 299.554688 263.253906 299.726562 263.453125 299.9375 263.574219 C 300.007812 263.613281 300.085938 263.648438 300.164062 263.628906 C 300.25 263.613281 300.316406 263.535156 300.34375 263.453125 C 300.371094 263.367188 300.371094 263.277344 300.367188 263.191406 C 300.359375 262.992188 300.34375 262.789062 300.238281 262.621094 C 299.90625 262.105469 299.375 262.5 299.5 263.015625 Z M 303.125 262.605469 C 303.144531 262.808594 303.242188 263 303.394531 263.136719 C 303.515625 263.238281 303.6875 263.308594 303.832031 263.242188 C 303.933594 263.195312 304 263.078125 304.007812 262.960938 C 304.019531 262.847656 303.980469 262.730469 303.925781 262.628906 C 303.738281 262.277344 303.050781 261.894531 303.125 262.605469 Z M 299.683594 267 C 299.835938 267.136719 300.105469 267.160156 300.238281 267.003906 C 300.289062 266.945312 300.3125 266.875 300.328125 266.800781 C 300.40625 266.441406 300.074219 266.027344 299.675781 266.121094 C 299.292969 266.210938 299.453125 266.800781 299.683594 267 Z M 296.292969 270.765625 C 296.441406 270.875 296.65625 270.957031 296.792969 270.839844 C 296.84375 270.796875 296.875 270.738281 296.894531 270.679688 C 296.972656 270.433594 296.882812 270.15625 296.710938 269.964844 C 296.53125 269.773438 296.136719 269.511719 295.925781 269.773438 C 295.660156 270.105469 296.035156 270.578125 296.292969 270.765625 Z M 299.625 269.789062 C 299.5 269.917969 299.449219 270.113281 299.488281 270.285156 C 299.53125 270.457031 299.664062 270.609375 299.832031 270.667969 C 299.929688 270.699219 300.050781 270.699219 300.121094 270.625 C 300.160156 270.582031 300.175781 270.523438 300.183594 270.46875 C 300.21875 270.289062 300.214844 270.09375 300.121094 269.9375 C 300.027344 269.785156 299.816406 269.691406 299.65625 269.769531 M 303.507812 267.242188 C 303.597656 267.257812 303.695312 267.246094 303.761719 267.1875 C 303.824219 267.132812 303.847656 267.046875 303.855469 266.964844 C 303.890625 266.609375 303.632812 265.941406 303.191406 266.269531 C 302.800781 266.5625 303.078125 267.171875 303.507812 267.242188 Z M 306.863281 270.324219 C 306.957031 270.4375 307.066406 270.542969 307.207031 270.59375 C 307.34375 270.644531 307.515625 270.625 307.617188 270.523438 C 307.738281 270.398438 307.734375 270.199219 307.667969 270.042969 C 307.570312 269.808594 307.199219 269.5 306.921875 269.539062 C 306.5 269.59375 306.679688 270.101562 306.863281 270.324219 Z M 303.082031 270.378906 C 303.140625 270.472656 303.214844 270.566406 303.3125 270.625 C 303.410156 270.683594 303.535156 270.703125 303.636719 270.648438 C 303.757812 270.589844 303.816406 270.449219 303.824219 270.316406 C 303.839844 270.03125 303.558594 269.566406 303.222656 269.578125 C 302.792969 269.589844 302.929688 270.136719 303.082031 270.378906 Z M 303.050781 273.546875 C 303.125 273.753906 303.328125 273.90625 303.546875 273.949219 C 303.675781 273.976562 303.824219 273.957031 303.910156 273.859375 C 303.96875 273.785156 303.980469 273.683594 303.972656 273.59375 C 303.910156 272.839844 302.75 272.730469 303.050781 273.546875 Z M 299.289062 273.828125 C 299.347656 274.074219 299.5625 274.273438 299.808594 274.328125 C 299.878906 274.34375 299.953125 274.347656 300.023438 274.324219 C 300.125 274.289062 300.199219 274.195312 300.234375 274.09375 C 300.308594 273.886719 300.234375 273.644531 300.078125 273.488281 C 299.722656 273.125 299.144531 273.21875 299.289062 273.828125 Z M 301.832031 284.511719 C 301.984375 284.671875 302.261719 284.722656 302.4375 284.585938 C 302.800781 284.292969 302.789062 283.371094 302.199219 283.382812 C 301.644531 283.394531 301.492188 284.15625 301.832031 284.511719 Z M 301.984375 287.78125 C 301.984375 287.933594 302.019531 288.097656 302.132812 288.199219 C 302.292969 288.347656 302.566406 288.308594 302.71875 288.15625 C 302.875 288 302.917969 287.761719 302.886719 287.546875 C 302.875 287.476562 302.855469 287.40625 302.8125 287.347656 C 302.421875 286.828125 301.980469 287.296875 301.984375 287.78125 Z M 298.617188 288.179688 C 298.789062 288.308594 299.050781 288.3125 299.214844 288.167969 C 299.3125 288.078125 299.367188 287.945312 299.394531 287.816406 C 299.457031 287.46875 299.050781 287.101562 298.699219 287.210938 C 298.300781 287.332031 298.335938 287.96875 298.617188 288.179688 Z M 298.695312 290.953125 C 298.601562 291.132812 298.601562 291.355469 298.699219 291.53125 C 298.78125 291.683594 298.949219 291.804688 299.121094 291.773438 C 299.242188 291.753906 299.34375 291.664062 299.40625 291.558594 C 299.46875 291.457031 299.5 291.335938 299.53125 291.214844 C 299.566406 291.0625 299.601562 290.898438 299.542969 290.75 C 299.382812 290.359375 298.824219 290.710938 298.695312 290.953125 Z M 294.960938 291.425781 C 295.0625 291.660156 295.351562 291.804688 295.582031 291.703125 C 296.019531 291.511719 296.113281 290.71875 295.617188 290.546875 C 295.121094 290.371094 294.785156 291.019531 294.960938 291.425781 Z M 295.195312 295.085938 C 295.273438 295.300781 295.523438 295.40625 295.75 295.398438 C 295.835938 295.394531 295.925781 295.378906 295.996094 295.328125 C 296.089844 295.257812 296.132812 295.136719 296.164062 295.023438 C 296.25 294.703125 296.1875 294.152344 295.722656 294.175781 C 295.375 294.195312 295.085938 294.78125 295.195312 295.085938 Z M 298.875 298.328125 C 298.859375 298.460938 298.875 298.601562 298.949219 298.714844 C 299.023438 298.828125 299.152344 298.902344 299.285156 298.890625 C 299.457031 298.875 299.582031 298.726562 299.664062 298.578125 C 299.765625 298.390625 299.828125 298.167969 299.765625 297.96875 C 299.550781 297.316406 298.929688 297.933594 298.875 298.328125 Z M 298.828125 294.621094 C 298.753906 294.820312 298.765625 295.089844 298.949219 295.203125 C 299.050781 295.269531 299.1875 295.265625 299.304688 295.222656 C 300.195312 294.90625 299.214844 293.578125 298.828125 294.621094 Z M 302.820312 291.789062 C 303.453125 291.734375 303.269531 290.84375 302.710938 290.796875 C 301.992188 290.738281 302.226562 291.835938 302.820312 291.789062 Z M 305.484375 288.050781 C 305.53125 288.175781 305.636719 288.289062 305.769531 288.316406 C 305.914062 288.347656 306.066406 288.277344 306.164062 288.164062 C 306.410156 287.886719 306.585938 287.074219 306.054688 286.992188 C 305.546875 286.914062 305.347656 287.6875 305.484375 288.050781 Z M 305.984375 291.273438 C 305.933594 291.441406 305.941406 291.621094 305.988281 291.789062 C 306.023438 291.914062 306.078125 292.039062 306.175781 292.121094 C 306.273438 292.207031 306.421875 292.242188 306.539062 292.183594 C 306.660156 292.121094 306.714844 291.972656 306.742188 291.839844 C 306.777344 291.675781 306.789062 291.507812 306.78125 291.34375 C 306.757812 290.71875 306.167969 290.714844 305.984375 291.273438 Z M 306.019531 295.347656 C 306.0625 295.496094 306.1875 295.632812 306.339844 295.648438 C 306.460938 295.65625 306.582031 295.59375 306.660156 295.5 C 306.738281 295.40625 306.78125 295.289062 306.8125 295.171875 C 306.890625 294.851562 306.886719 294.273438 306.386719 294.378906 C 306.035156 294.453125 305.941406 295.0625 306.019531 295.347656 Z M 302.4375 295.449219 C 302.535156 295.488281 302.640625 295.511719 302.746094 295.496094 C 303.3125 295.40625 303.421875 294.40625 302.765625 294.359375 C 302.128906 294.316406 301.78125 295.167969 302.4375 295.449219 Z M 315.796875 290.882812 C 315.84375 291.195312 316.097656 291.484375 316.414062 291.507812 C 316.460938 291.511719 316.511719 291.507812 316.554688 291.484375 C 316.632812 291.445312 316.664062 291.351562 316.683594 291.269531 C 316.765625 290.90625 316.726562 290.335938 316.304688 290.183594 C 315.890625 290.035156 315.75 290.558594 315.796875 290.882812 Z M 319.777344 286.363281 C 319.726562 286.328125 319.671875 286.402344 319.660156 286.460938 C 319.621094 286.632812 319.636719 286.816406 319.703125 286.976562 C 319.753906 287.097656 319.832031 287.207031 319.949219 287.265625 C 320.0625 287.320312 320.21875 287.308594 320.304688 287.214844 C 320.351562 287.15625 320.375 287.078125 320.378906 287.003906 C 320.402344 286.683594 320.132812 286.375 319.8125 286.355469 M 319.527344 290.695312 C 319.636719 290.832031 319.800781 290.957031 319.976562 290.921875 C 320.101562 290.898438 320.199219 290.789062 320.246094 290.667969 C 320.289062 290.546875 320.289062 290.414062 320.285156 290.285156 C 320.242188 289.5 318.804688 289.800781 319.527344 290.695312 Z M 323.023438 286.507812 C 323.042969 286.730469 323.167969 286.945312 323.351562 287.074219 C 323.464844 287.15625 323.628906 287.203125 323.75 287.132812 C 323.867188 287.0625 323.910156 286.917969 323.925781 286.78125 C 323.949219 286.574219 323.9375 286.355469 323.835938 286.171875 C 323.527344 285.609375 322.976562 285.96875 323.023438 286.507812 Z M 327.097656 287.078125 C 327.164062 287.082031 327.238281 287.078125 327.296875 287.042969 C 327.347656 287.007812 327.386719 286.957031 327.414062 286.90625 C 327.632812 286.511719 327.324219 285.53125 326.753906 285.828125 C 326.175781 286.125 326.53125 287.035156 327.097656 287.078125 Z M 322.902344 289.988281 C 322.886719 290.152344 322.957031 290.308594 323.050781 290.445312 C 323.125 290.554688 323.214844 290.65625 323.332031 290.71875 C 323.449219 290.78125 323.59375 290.796875 323.710938 290.734375 C 323.882812 290.648438 323.941406 290.441406 323.960938 290.25 C 323.980469 290.089844 323.96875 289.914062 323.863281 289.792969 C 323.625 289.535156 322.941406 289.570312 322.902344 289.988281 Z M 326.675781 290.398438 C 326.800781 290.570312 327 290.683594 327.210938 290.703125 C 327.261719 290.710938 327.3125 290.707031 327.355469 290.683594 C 327.394531 290.664062 327.417969 290.628906 327.441406 290.59375 C 327.59375 290.34375 327.597656 290.007812 327.4375 289.765625 C 326.957031 289.050781 326.210938 289.757812 326.675781 290.398438 Z M 323.121094 293.585938 C 323.121094 293.773438 323.148438 293.96875 323.234375 294.136719 C 323.320312 294.304688 323.46875 294.449219 323.648438 294.496094 C 323.742188 294.519531 323.84375 294.515625 323.925781 294.46875 C 324.046875 294.394531 324.089844 294.234375 324.109375 294.09375 C 324.128906 293.941406 324.136719 293.785156 324.097656 293.636719 C 324.058594 293.488281 323.96875 293.347656 323.835938 293.273438 C 323.480469 293.074219 323.117188 293.148438 323.121094 293.585938 Z M 319.785156 294.582031 C 319.894531 294.644531 320.042969 294.679688 320.140625 294.601562 C 320.195312 294.558594 320.222656 294.488281 320.238281 294.421875 C 320.3125 294.121094 320.113281 293.222656 319.636719 293.476562 C 319.21875 293.699219 319.484375 294.394531 319.785156 294.582031 Z M 330.261719 294.074219 C 330.371094 294.183594 330.539062 294.261719 330.679688 294.199219 C 330.78125 294.15625 330.84375 294.050781 330.886719 293.945312 C 330.964844 293.746094 330.988281 293.515625 330.894531 293.324219 C 330.773438 293.074219 330.363281 292.910156 330.160156 293.132812 C 329.941406 293.375 330.066406 293.867188 330.261719 294.074219 Z M 326.960938 294.375 C 327.089844 294.4375 327.257812 294.441406 327.371094 294.355469 C 327.496094 294.265625 327.535156 294.101562 327.550781 293.949219 C 327.585938 293.542969 327.207031 293.070312 326.761719 293.300781 C 326.335938 293.515625 326.632812 294.207031 326.960938 294.375 Z M 326.582031 297.117188 C 326.589844 297.195312 326.625 297.269531 326.664062 297.335938 C 326.761719 297.492188 326.90625 297.621094 327.070312 297.703125 C 327.171875 297.757812 327.300781 297.789062 327.398438 297.730469 C 327.460938 297.691406 327.5 297.617188 327.527344 297.546875 C 327.613281 297.304688 327.605469 297.015625 327.453125 296.808594 C 327.167969 296.4375 326.539062 296.609375 326.582031 297.117188 Z M 322.824219 297.84375 C 322.90625 297.929688 323.03125 297.980469 323.148438 297.957031 C 323.316406 297.925781 323.421875 297.753906 323.453125 297.585938 C 323.503906 297.269531 323.21875 296.597656 322.800781 296.800781 C 322.449219 296.96875 322.609375 297.632812 322.824219 297.84375 Z M 326.183594 260.90625 C 326.527344 260.503906 325.953125 259.542969 325.488281 260.097656 C 325.105469 260.554688 325.828125 261.3125 326.183594 260.90625 Z M 322.390625 264.324219 C 322.476562 264.382812 322.570312 264.4375 322.671875 264.449219 C 322.878906 264.464844 323.070312 264.28125 323.085938 264.074219 C 323.101562 263.867188 322.964844 263.667969 322.78125 263.574219 C 322.117188 263.242188 321.839844 263.9375 322.390625 264.324219 Z M 325.699219 264.25 C 325.78125 264.320312 325.882812 264.363281 325.984375 264.390625 C 326.101562 264.417969 326.238281 264.421875 326.332031 264.347656 C 326.40625 264.292969 326.441406 264.203125 326.457031 264.113281 C 326.480469 263.933594 326.40625 263.75 326.269531 263.632812 C 325.800781 263.234375 325.269531 263.855469 325.699219 264.25 Z M 329.488281 264.390625 C 329.625 264.476562 329.796875 264.5 329.949219 264.453125 C 330.003906 264.433594 330.058594 264.40625 330.09375 264.359375 C 330.128906 264.316406 330.144531 264.257812 330.148438 264.199219 C 330.167969 263.996094 330.074219 263.78125 329.898438 263.671875 C 329.363281 263.335938 328.996094 264.074219 329.488281 264.390625 Z M 326.113281 268.121094 C 326.257812 268.171875 326.4375 268.171875 326.550781 268.070312 C 326.632812 268 326.667969 267.890625 326.675781 267.785156 C 326.699219 267.398438 326.238281 266.910156 325.839844 267.144531 C 325.398438 267.402344 325.757812 268 326.113281 268.121094 Z M 329.554688 268.0625 C 329.6875 268.242188 329.957031 268.332031 330.140625 268.207031 C 330.292969 268.105469 330.335938 267.902344 330.351562 267.71875 C 330.359375 267.605469 330.359375 267.484375 330.296875 267.390625 C 329.96875 266.890625 329.136719 267.503906 329.554688 268.0625 Z M 329.632812 271.578125 C 329.792969 271.742188 330.089844 271.78125 330.246094 271.617188 C 330.363281 271.496094 330.375 271.3125 330.371094 271.144531 C 330.351562 270.328125 328.988281 270.914062 329.632812 271.578125 Z M 326.265625 271.644531 C 326.398438 271.671875 326.546875 271.664062 326.652344 271.582031 C 326.753906 271.503906 326.800781 271.371094 326.804688 271.242188 C 326.820312 270.8125 326.347656 270.472656 325.957031 270.722656 C 325.511719 271.007812 325.855469 271.566406 326.265625 271.644531 Z M 322.917969 268.203125 C 323.023438 268.164062 323.101562 268.074219 323.144531 267.972656 C 323.191406 267.871094 323.203125 267.757812 323.214844 267.648438 C 323.226562 267.5625 323.230469 267.46875 323.199219 267.390625 C 323.0625 267.019531 322.398438 266.953125 322.238281 267.332031 C 322.082031 267.699219 322.484375 268.363281 322.917969 268.203125 Z M 322.433594 271.417969 C 322.621094 271.578125 322.929688 271.574219 323.105469 271.402344 C 323.28125 271.230469 323.289062 270.914062 323.113281 270.742188 C 322.578125 270.21875 321.890625 270.957031 322.433594 271.417969 Z M 322.75 275.070312 C 322.925781 275.117188 323.128906 275.089844 323.269531 274.972656 C 323.410156 274.851562 323.46875 274.640625 323.390625 274.476562 C 323.253906 274.199219 322.753906 274.039062 322.523438 274.28125 C 322.265625 274.554688 322.40625 274.976562 322.75 275.070312 Z M 319.058594 270.566406 C 318.949219 270.636719 318.882812 270.769531 318.882812 270.902344 C 318.886719 271.035156 318.949219 271.164062 319.042969 271.253906 C 319.15625 271.359375 319.335938 271.414062 319.46875 271.335938 C 319.589844 271.265625 319.640625 271.109375 319.613281 270.96875 C 319.589844 270.832031 319.503906 270.707031 319.378906 270.640625 C 319.257812 270.570312 319.105469 270.558594 318.976562 270.613281 M 318.695312 266.890625 C 318.894531 266.5625 319.339844 266.8125 319.433594 267.09375 C 319.503906 267.3125 319.453125 267.5625 319.308594 267.734375 C 319.277344 267.769531 319.242188 267.800781 319.199219 267.8125 C 319.148438 267.828125 319.09375 267.8125 319.050781 267.789062 C 318.8125 267.671875 318.539062 267.144531 318.695312 266.890625"/><path style="stroke:none;fill-rule:nonzero;fill:#e4ad88;fill-opacity:1" d="M 321.015625 279.453125 C 321.265625 279.796875 321.410156 280.238281 321.304688 280.644531 C 321.242188 280.871094 321.113281 281.066406 320.984375 281.261719 C 319.148438 284 316.933594 286.488281 314.429688 288.632812 C 314.09375 288.921875 313.71875 289.214844 313.277344 289.238281 C 312.710938 289.265625 312.234375 288.847656 311.824219 288.453125 C 309.96875 286.660156 308.113281 284.863281 306.257812 283.070312 C 305.648438 282.484375 305.046875 282.058594 304.449219 281.464844 C 304.0625 281.082031 303.660156 280.585938 303.773438 280.054688 C 303.828125 279.808594 303.984375 279.597656 304.136719 279.398438 C 306.132812 276.820312 308.339844 274.414062 310.730469 272.203125 C 311.160156 271.808594 311.671875 271.394531 312.253906 271.457031 C 312.625 271.5 312.945312 271.738281 313.238281 271.972656 C 315.6875 273.90625 320.765625 279.113281 321.015625 279.453125"/><g clip-path="url(#clip11)" clip-rule="nonzero"><path style="stroke:none;fill-rule:nonzero;fill:#a2bac5;fill-opacity:1" d="M 219.960938 343.269531 C 219.960938 345.746094 218.132812 347.746094 215.875 347.746094 L 173.292969 347.746094 C 171.035156 347.746094 169.207031 345.746094 169.207031 343.269531 L 169.207031 303.152344 C 169.207031 300.679688 171.035156 298.671875 173.292969 298.671875 L 215.875 298.671875 C 218.132812 298.671875 219.960938 300.679688 219.960938 303.152344 L 219.960938 343.269531"/></g><g clip-path="url(#clip12)" clip-rule="nonzero"><path style="fill:none;stroke-width:30;stroke-linecap:round;stroke-linejoin:round;stroke:#24578f;stroke-opacity:1;stroke-miterlimit:10" d="M 2956.047824 1464.956503 C 2956.047824 1383.338808 2896.252097 1317.426727 2822.401819 1317.426727 L 1429.595801 1317.426727 C 1355.745523 1317.426727 1295.949796 1383.338808 1295.949796 1464.956503 L 1295.949796 2787.060162 C 1295.949796 2868.549122 1355.745523 2934.718672 1429.595801 2934.718672 L 2822.401819 2934.718672 C 2896.252097 2934.718672 2956.047824 2868.549122 2956.047824 2787.060162 Z M 2956.047824 1464.956503" transform="matrix(0.0305728,0,0,-0.0303435,129.586169,387.721367)"/></g><path style="stroke:none;fill-rule:nonzero;fill:#88959c;fill-opacity:1" d="M 213.769531 339.332031 C 213.769531 342.425781 212.15625 344.929688 210.171875 344.929688 L 178.996094 344.929688 C 177.011719 344.929688 175.402344 342.425781 175.402344 339.332031 L 175.402344 325.339844 C 175.402344 322.25 177.011719 319.742188 178.996094 319.742188 L 210.171875 319.742188 C 212.15625 319.742188 213.769531 322.25 213.769531 325.339844 L 213.769531 339.332031"/><path style="fill:none;stroke-width:30;stroke-linecap:round;stroke-linejoin:round;stroke:#24578f;stroke-opacity:1;stroke-miterlimit:10" d="M 2753.534519 1594.720913 C 2753.534519 1492.763162 2700.766067 1410.244326 2635.859595 1410.244326 L 1616.138025 1410.244326 C 1551.231552 1410.244326 1498.59087 1492.763162 1498.59087 1594.720913 L 1498.59087 2055.848012 C 1498.59087 2157.677028 1551.231552 2240.324598 1616.138025 2240.324598 L 2635.859595 2240.324598 C 2700.766067 2240.324598 2753.534519 2157.677028 2753.534519 2055.848012 Z M 2753.534519 1594.720913" transform="matrix(0.0305728,0,0,-0.0303435,129.586169,387.721367)"/><path style="stroke:none;fill-rule:nonzero;fill:#72c3ee;fill-opacity:1" d="M 194.585938 311.09375 C 196.257812 311.09375 197.652344 312.238281 198.035156 313.78125 L 206.367188 313.78125 C 206.308594 307.367188 201.054688 302.1875 194.585938 302.1875 C 188.113281 302.1875 182.859375 307.367188 182.800781 313.78125 L 191.132812 313.78125 C 191.515625 312.238281 192.914062 311.09375 194.585938 311.09375"/><path style="fill:none;stroke-width:30;stroke-linecap:round;stroke-linejoin:round;stroke:#24578f;stroke-opacity:1;stroke-miterlimit:10" d="M 2126.062694 2525.342856 C 2180.747675 2525.342856 2226.361082 2487.623637 2238.882409 2436.773497 L 2511.412933 2436.773497 C 2509.496403 2648.155601 2337.647573 2818.857592 2126.062694 2818.857592 C 1914.350047 2818.857592 1742.501217 2648.155601 1740.584687 2436.773497 L 2013.115211 2436.773497 C 2025.636538 2487.623637 2071.377713 2525.342856 2126.062694 2525.342856 Z M 2126.062694 2525.342856" transform="matrix(0.0305728,0,0,-0.0303435,129.586169,387.721367)"/><path style="fill:none;stroke-width:30;stroke-linecap:round;stroke-linejoin:round;stroke:#24578f;stroke-opacity:1;stroke-miterlimit:10" d="M 2126.062694 2165.143631 L 2126.062694 1463.797892" transform="matrix(0.0305728,0,0,-0.0303435,129.586169,387.721367)"/><path style="fill:none;stroke-width:30;stroke-linecap:round;stroke-linejoin:round;stroke:#d93022;stroke-opacity:1;stroke-miterlimit:10" d="M 2140.372783 2554.951798 L 2281.557137 2680.982907" transform="matrix(0.0305728,0,0,-0.0303435,129.586169,387.721367)"/><path style="fill:none;stroke-width:30;stroke-linecap:round;stroke-linejoin:round;stroke:#24578f;stroke-opacity:1;stroke-miterlimit:10" d="M 2126.062694 2786.802693 L 2126.062694 2731.189375" transform="matrix(0.0305728,0,0,-0.0303435,129.586169,387.721367)"/><path style="fill-rule:nonzero;fill:#a2bac5;fill-opacity:1;stroke-width:30;stroke-linecap:round;stroke-linejoin:round;stroke:#24578f;stroke-opacity:1;stroke-miterlimit:10" d="M 2262.136303 2758.352361 L 2239.77679 2707.373486" transform="matrix(0.0305728,0,0,-0.0303435,129.586169,387.721367)"/><path style="fill-rule:nonzero;fill:#a2bac5;fill-opacity:1;stroke-width:30;stroke-linecap:round;stroke-linejoin:round;stroke:#24578f;stroke-opacity:1;stroke-miterlimit:10" d="M 2369.334198 2684.587474 L 2329.981455 2645.452176" transform="matrix(0.0305728,0,0,-0.0303435,129.586169,387.721367)"/><path style="fill-rule:nonzero;fill:#a2bac5;fill-opacity:1;stroke-width:30;stroke-linecap:round;stroke-linejoin:round;stroke:#24578f;stroke-opacity:1;stroke-miterlimit:10" d="M 1880.108049 2688.578244 L 1919.460792 2649.314212" transform="matrix(0.0305728,0,0,-0.0303435,129.586169,387.721367)"/><path style="fill-rule:nonzero;fill:#a2bac5;fill-opacity:1;stroke-width:30;stroke-linecap:round;stroke-linejoin:round;stroke:#24578f;stroke-opacity:1;stroke-miterlimit:10" d="M 1976.956684 2754.747795 L 2000.84942 2704.670061" transform="matrix(0.0305728,0,0,-0.0303435,129.586169,387.721367)"/><path style="fill:none;stroke-width:30;stroke-linecap:round;stroke-linejoin:round;stroke:#fff;stroke-opacity:1;stroke-miterlimit:10" d="M 1460.004739 2871.89622 C 1460.004739 2871.89622 1356.639903 2888.245506 1356.639903 2786.802693 L 1356.639903 1531.89846" transform="matrix(0.0305728,0,0,-0.0303435,129.586169,387.721367)"/><path style="fill:none;stroke-width:30;stroke-linecap:round;stroke-linejoin:round;stroke:#fff;stroke-opacity:1;stroke-miterlimit:10" d="M 1637.475389 2202.347911 C 1637.475389 2202.347911 1542.543285 2188.573316 1542.543285 2066.146774 L 1542.543285 1576.054405" transform="matrix(0.0305728,0,0,-0.0303435,129.586169,387.721367)"/><path style="fill:none;stroke-width:30;stroke-linecap:round;stroke-linejoin:round;stroke:#fff;stroke-opacity:1;stroke-miterlimit:10" d="M 1854.937626 2645.452176 C 1854.937626 2645.452176 1790.031153 2566.92411 1779.93743 2476.938671 L 1956.641469 2476.938671" transform="matrix(0.0305728,0,0,-0.0303435,129.586169,387.721367)"/></g></svg>