<svg xmlns="http://www.w3.org/2000/svg" viewBox="0 0 750 500"><g id="freepik--background-complete--inject-102"><rect x="228.66" y="233.61" width="23.71" height="26.39" rx="3.32" style="fill:#e0e0e0"></rect><rect x="232.97" y="238.85" width="15.08" height="15.91" style="fill:#f5f5f5"></rect><path d="M317.56,115.84a20.3,20.3,0,0,0-.67-8.06c1.33-1.83,7-4.86,7-4.86l-1.06-2.17c-2.51,1.22-8.18,1.89-8.18,1.89a7.65,7.65,0,0,1,.43.79,20.63,20.63,0,0,0-12.55-9.84c-.95-2-.71-8.56-.71-8.56l-2.41-.18c-.21,2.72-2.37,7.77-2.47,8a20.41,20.41,0,0,0-6,.94c-1.8-1.22-3.42-4.58-3.42-4.58l-2.17,1.07A20.23,20.23,0,0,1,287,95.49a20.6,20.6,0,0,0-4.3,3.21c-2.32-.28-7.76-3.64-7.76-3.64l-1.37,2c2.08,1.39,5,5.15,5.69,6a20.84,20.84,0,0,0-2.42,6.41,14.53,14.53,0,0,1-5.21.54l-.14,2.45a20,20,0,0,1,5,1,20.31,20.31,0,0,0,.76,5.49c-1.82,1.86-6.69,4.45-6.69,4.45l1.08,2.21c2-1,6.09-1.62,7.65-1.84a20.55,20.55,0,0,0,4.37,5.27,14.77,14.77,0,0,1-2.15,4.74l2,1.35a20,20,0,0,1,3.4-3.78,20.6,20.6,0,0,0,8.34,2.6c1.34,2.1,2.58,7.91,2.58,7.91l2.41-.42a32,32,0,0,1,.33-7.7,21,21,0,0,0,5.27-1.65,22.5,22.5,0,0,0,2.46-1.37,14.87,14.87,0,0,1,3.49,3.72l2-1.38a20.6,20.6,0,0,1-2.33-4.89,20.54,20.54,0,0,0,4.78-7.19c2.58-.23,8,1,8,1l.62-2.37C322.47,119.05,318.44,116.43,317.56,115.84ZM289.18,94.42l-.7.3C288.71,94.61,289,94.51,289.18,94.42Z" style="fill:#ebebeb"></path><path d="M312.73,92.64l-2-1.34a20.66,20.66,0,0,1-3.92,4.18c1.35.68,3.76,2.34,3.76,2.34C310.65,95.65,312.73,92.64,312.73,92.64Z" style="fill:#ebebeb"></path><path d="M312.57,114.71c-1.07-.06-1.76-2-3.21-4.47-.16-.31-.38-.61-.57-.94s-.44-.64-.66-1a24.49,24.49,0,0,0-1.57-2,15.85,15.85,0,0,0-9.41-5.18,22.4,22.4,0,0,0-2.49-.29l-1.17,0c-.38,0-.75,0-1.1,0-2.84.08-4.88.55-5.5-.32a1,1,0,0,1-.1-.83,3.25,3.25,0,0,1,.61-1.18A9.54,9.54,0,0,1,291,95.82a12,12,0,0,1,1.4-.58c.49-.18,1-.32,1.58-.47a16.69,16.69,0,0,1,3.64-.41,16.32,16.32,0,0,1,4.09.47,16.68,16.68,0,0,1,7.81,4.3,17.1,17.1,0,0,1,4.17,6.51c.18.55.34,1.07.46,1.59a14.48,14.48,0,0,1,.25,1.49,9.68,9.68,0,0,1-.39,4.49,3.38,3.38,0,0,1-.68,1.15A1,1,0,0,1,312.57,114.71Z" style="fill:#fafafa"></path><path d="M275,93.69c.38.25.08,1.37-.67,2.52a6.56,6.56,0,0,1-.78,1c-.51.53-1,.8-1.24.64s-.07-1.37.67-2.52S274.6,93.45,275,93.69Z" style="fill:#ebebeb"></path><path d="M273.59,97.13a8.05,8.05,0,0,0,1.32-2.07l1.28.76A8,8,0,0,1,274,97.45Z" style="fill:#e0e0e0"></path><path d="M271,108.85c.44,0,.75,1.14.69,2.51a6.62,6.62,0,0,1-.17,1.26c-.17.71-.45,1.19-.74,1.17s-.75-1.14-.69-2.5S270.53,108.83,271,108.85Z" style="fill:#ebebeb"></path><path d="M271.52,112.51a5.4,5.4,0,0,0,.08-2.45c.46,0,1,0,1.48,0a7.93,7.93,0,0,1-1,2.46Z" style="fill:#e0e0e0"></path><path d="M269.35,122.74c.4-.2,1.22.62,1.84,1.84a7.6,7.6,0,0,1,.47,1.18c.2.71.19,1.26-.07,1.39s-1.22-.62-1.84-1.84S269,122.94,269.35,122.74Z" style="fill:#ebebeb"></path><path d="M271.63,125.66a8,8,0,0,0-1.13-2.18c.4-.21.85-.46,1.3-.72a7.94,7.94,0,0,1,.32,2.69Z" style="fill:#e0e0e0"></path><path d="M280.08,133.79c.24-.37,1.37-.07,2.52.67a6.56,6.56,0,0,1,1,.78c.53.51.8,1,.64,1.23s-1.36.08-2.51-.66S279.84,134.17,280.08,133.79Z" style="fill:#ebebeb"></path><path d="M283.52,135.16a5.39,5.39,0,0,0-2.07-1.3c.25-.38.51-.8.77-1.26a7.87,7.87,0,0,1,1.61,2.13Z" style="fill:#e0e0e0"></path><path d="M296.77,142.83c-.08-.43.94-1,2.28-1.25a7.52,7.52,0,0,1,1.27-.12c.74,0,1.26.16,1.31.45.09.44-.93,1-2.28,1.25S296.85,143.27,296.77,142.83Z" style="fill:#ebebeb"></path><path d="M300.21,141.46a7.81,7.81,0,0,0-2.4.48c-.1-.44-.21-.95-.34-1.46a8,8,0,0,1,2.67.45Z" style="fill:#e0e0e0"></path><path d="M311.2,135.76c-.26-.36.44-1.29,1.56-2.08a7.08,7.08,0,0,1,1.1-.63c.68-.3,1.22-.37,1.39-.13s-.45,1.29-1.57,2.08S311.45,136.12,311.2,135.76Z" style="fill:#ebebeb"></path><path d="M313.76,133.09a5.42,5.42,0,0,0-2,1.43c-.25-.38-.55-.78-.87-1.19a8,8,0,0,1,2.57-.69Z" style="fill:#e0e0e0"></path><path d="M324.64,123.38c-.43-.11-.51-1.27-.17-2.6a7,7,0,0,1,.41-1.2c.32-.66.68-1.07,1-1s.51,1.27.17,2.6S325.07,123.49,324.64,123.38Z" style="fill:#ebebeb"></path><path d="M324.84,119.68a8,8,0,0,0-.57,2.39l-1.47-.31a8,8,0,0,1,1.53-2.24Z" style="fill:#e0e0e0"></path><path d="M290.31,119.92c.68,1.44.44,3-.53,3.44s-2.32-.34-3-1.79-.44-3,.53-3.45S289.63,118.47,290.31,119.92Z" style="fill:#e0e0e0"></path><path d="M289,118.74c.67,1.45.43,3-.54,3.45s-2.31-.35-3-1.79-.44-3,.54-3.45S288.28,117.3,289,118.74Z" style="fill:#f5f5f5"></path><path d="M282.55,105.2c1-1.28,2.43-1.79,3.29-1.14s.78,2.2-.18,3.48-2.44,1.79-3.3,1.14S281.59,106.47,282.55,105.2Z" style="fill:#e0e0e0"></path><path d="M281.13,104.19c1-1.28,2.43-1.79,3.29-1.15s.78,2.21-.18,3.49-2.44,1.78-3.3,1.14S280.17,105.46,281.13,104.19Z" style="fill:#f5f5f5"></path><path d="M299.18,125.36a1.91,1.91,0,0,1-3.45,1.62,1.91,1.91,0,1,1,3.45-1.62Z" style="fill:#e0e0e0"></path><path d="M298.75,124.44a1.9,1.9,0,1,1-2.53-.92A1.9,1.9,0,0,1,298.75,124.44Z" style="fill:#f5f5f5"></path><path d="M303.45,104.67a2.34,2.34,0,1,1-1.53-2.94A2.34,2.34,0,0,1,303.45,104.67Z" style="fill:#e0e0e0"></path><path d="M303.83,103.47a2.34,2.34,0,1,1-1.53-2.94A2.34,2.34,0,0,1,303.83,103.47Z" style="fill:#f5f5f5"></path><path d="M308.76,123a1.38,1.38,0,0,1-.67,1.85,1.39,1.39,0,1,1,.67-1.85Z" style="fill:#e0e0e0"></path><path d="M308.44,122.27a1.4,1.4,0,0,1-.67,1.86,1.4,1.4,0,1,1-1.18-2.53A1.38,1.38,0,0,1,308.44,122.27Z" style="fill:#f5f5f5"></path><path d="M325,103.66c-.39.2-1.2-.62-1.81-1.82a7,7,0,0,1-.46-1.17c-.2-.7-.19-1.24.07-1.37s1.2.61,1.81,1.82S325.42,103.46,325,103.66Z" style="fill:#ebebeb"></path><path d="M322.78,100.77a7.89,7.89,0,0,0,1.11,2.15c-.39.22-.84.46-1.28.72a8,8,0,0,1-.32-2.66Z" style="fill:#e0e0e0"></path><path d="M314.08,92.71c-.24.36-1.35.07-2.49-.66a7,7,0,0,1-1-.77c-.52-.5-.79-1-.63-1.22s1.35-.08,2.48.66S314.32,92.34,314.08,92.71Z" style="fill:#ebebeb"></path><path d="M310.68,91.35a5.45,5.45,0,0,0,2.05,1.29c-.25.37-.51.79-.76,1.24a7.6,7.6,0,0,1-1.59-2.1Z" style="fill:#e0e0e0"></path><path d="M303,84.42c0,.44-1.14.73-2.49.65a7.19,7.19,0,0,1-1.24-.19c-.7-.18-1.17-.46-1.15-.75s1.14-.73,2.49-.65S303.06,84,303,84.42Z" style="fill:#ebebeb"></path><path d="M299.4,84.91a8,8,0,0,0,2.42.12c0,.44,0,1,0,1.47a7.87,7.87,0,0,1-2.46-1.07Z" style="fill:#e0e0e0"></path><path d="M288.26,88.08c.2.39-.62,1.2-1.82,1.81a6.28,6.28,0,0,1-1.16.47c-.7.2-1.25.2-1.38-.06s.62-1.21,1.82-1.82S288.06,87.69,288.26,88.08Z" style="fill:#ebebeb"></path><path d="M285.38,90.33a5.27,5.27,0,0,0,2.14-1.12q.3.62.69,1.29a7.76,7.76,0,0,1-2.61.31Z" style="fill:#e0e0e0"></path><path d="M311.29,116.32c-.08,1.59-1,2.85-2.09,2.79s-1.88-1.38-1.8-3,1-2.85,2.08-2.8S311.36,114.72,311.29,116.32Z" style="fill:#e0e0e0"></path><path d="M311.71,115.26c-.08,1.59-1,2.84-2.09,2.79s-1.88-1.39-1.8-3,1-2.85,2.09-2.8S311.79,113.66,311.71,115.26Z" style="fill:#f5f5f5"></path><path d="M299.42,111.7a2.89,2.89,0,1,1-3.85-1.39A2.89,2.89,0,0,1,299.42,111.7Z" style="fill:#e0e0e0"></path><path d="M298.71,110.17a2.89,2.89,0,1,1-3.85-1.39A2.9,2.9,0,0,1,298.71,110.17Z" style="fill:#f5f5f5"></path><path d="M312.92,122.85c.21.14.15.67-.21,1.49a12,12,0,0,1-2.14,3.1,17.94,17.94,0,0,1-1.93,1.79,19.73,19.73,0,0,1-2.52,1.69,19.47,19.47,0,0,1-6.61,2.25,19.17,19.17,0,0,1-7-.27,18.64,18.64,0,0,1-2.9-.9,17.9,17.9,0,0,1-2.36-1.16,11.85,11.85,0,0,1-2.93-2.36c-.59-.68-.79-1.17-.64-1.37.35-.42,2,.47,4.67,1.34.67.22,1.41.42,2.21.62a25.83,25.83,0,0,0,2.55.46,22.42,22.42,0,0,0,5.84,0,22,22,0,0,0,5.61-1.64,25.07,25.07,0,0,0,2.32-1.17c.7-.41,1.35-.82,1.93-1.22C311.15,123.87,312.47,122.54,312.92,122.85Z" style="fill:#e0e0e0"></path><g style="opacity:0.2"><path d="M280.36,120.63a1.77,1.77,0,1,1-.82,2.42A1.82,1.82,0,0,1,280.36,120.63Z" style="fill:#e0e0e0"></path></g><path d="M319.22,216.47a12.06,12.06,0,0,0-.4-4.76c.79-1.08,4.13-2.87,4.13-2.87l-.62-1.28a21.2,21.2,0,0,1-4.83,1.12,4.57,4.57,0,0,1,.25.46,12.13,12.13,0,0,0-7.4-5.8c-.56-1.17-.41-5.05-.41-5.05l-1.43-.1a20.52,20.52,0,0,1-1.46,4.71,12.05,12.05,0,0,0-3.54.56,8.42,8.42,0,0,1-2-2.7l-1.28.63a11.43,11.43,0,0,1,.95,3.07,12,12,0,0,0-2.53,1.9c-1.37-.17-4.58-2.15-4.58-2.15l-.8,1.2a20.44,20.44,0,0,1,3.35,3.54,12.33,12.33,0,0,0-1.42,3.79,8.78,8.78,0,0,1-3.08.32L292,214.5a11.34,11.34,0,0,1,2.93.61,12,12,0,0,0,.45,3.23,22.4,22.4,0,0,1-4,2.63l.64,1.3a19.13,19.13,0,0,1,4.51-1.08,12,12,0,0,0,2.58,3.11,8.8,8.8,0,0,1-1.27,2.79l1.2.8a11.85,11.85,0,0,1,2-2.23,12.15,12.15,0,0,0,4.92,1.53,20.92,20.92,0,0,1,1.52,4.67l1.42-.25a18.52,18.52,0,0,1,.2-4.54,11.87,11.87,0,0,0,3.1-1,12.07,12.07,0,0,0,1.46-.8,8.87,8.87,0,0,1,2.05,2.19l1.2-.81a11.74,11.74,0,0,1-1.37-2.89,12.26,12.26,0,0,0,2.82-4.24,21.64,21.64,0,0,1,4.72.6l.37-1.4A20.21,20.21,0,0,1,319.22,216.47Zm-16.74-12.64-.42.18Z" style="fill:#ebebeb"></path><path d="M316.37,202.78l-1.19-.79a12,12,0,0,1-2.32,2.46c.8.41,2.22,1.39,2.22,1.39A7.72,7.72,0,0,1,316.37,202.78Z" style="fill:#ebebeb"></path><path d="M316.27,215.8c-.63,0-1-1.2-1.89-2.64-.09-.18-.23-.36-.34-.55l-.38-.58c-.29-.38-.58-.77-.93-1.15a9.43,9.43,0,0,0-5.55-3.06c-.5-.09-1-.13-1.47-.17l-.69,0h-.65c-1.67.05-2.87.32-3.24-.19a.57.57,0,0,1-.06-.49,1.91,1.91,0,0,1,.36-.69,5.64,5.64,0,0,1,2.12-1.62c.25-.13.53-.22.82-.34s.61-.18.93-.27a10.31,10.31,0,0,1,2.15-.25,10.2,10.2,0,0,1,2.41.28,10.67,10.67,0,0,1,2.48,1,10.43,10.43,0,0,1,2.13,1.58A9.77,9.77,0,0,1,316,208.5a10.2,10.2,0,0,1,.94,1.95c.1.32.2.63.27.93a7.72,7.72,0,0,1,.15.88,5.84,5.84,0,0,1-.23,2.66,2.15,2.15,0,0,1-.4.67A.57.57,0,0,1,316.27,215.8Z" style="fill:#fafafa"></path><path d="M294.1,203.4c.22.15,0,.81-.4,1.48a3.18,3.18,0,0,1-.46.59c-.3.32-.58.48-.73.38s0-.8.4-1.48S293.88,203.26,294.1,203.4Z" style="fill:#ebebeb"></path><path d="M293.29,205.43a4.86,4.86,0,0,0,.77-1.22l.76.45a4.86,4.86,0,0,1-1.28,1Z" style="fill:#e0e0e0"></path><path d="M291.74,212.34c.26,0,.44.68.41,1.48a3.9,3.9,0,0,1-.1.74c-.1.43-.27.7-.44.7s-.44-.68-.41-1.48S291.48,212.33,291.74,212.34Z" style="fill:#ebebeb"></path><path d="M292.06,214.5a3.1,3.1,0,0,0,.05-1.44c.27,0,.56,0,.87,0a4.8,4.8,0,0,1-.6,1.45Z" style="fill:#e0e0e0"></path><path d="M290.79,220.53c.23-.12.71.37,1.08,1.09a3.85,3.85,0,0,1,.27.7c.12.42.12.74,0,.82s-.71-.37-1.08-1.09S290.55,220.65,290.79,220.53Z" style="fill:#ebebeb"></path><path d="M292.13,222.26a4.93,4.93,0,0,0-.67-1.29l.77-.43a4.94,4.94,0,0,1,.19,1.59Z" style="fill:#e0e0e0"></path><path d="M297.11,227.05c.14-.22.81,0,1.49.39a4.33,4.33,0,0,1,.59.46c.31.3.47.59.38.73s-.81.05-1.49-.39S297,227.27,297.11,227.05Z" style="fill:#ebebeb"></path><path d="M299.14,227.86a3.17,3.17,0,0,0-1.22-.77c.15-.22.3-.47.45-.74a4.56,4.56,0,0,1,.95,1.25Z" style="fill:#e0e0e0"></path><path d="M307,232.38c0-.25.55-.58,1.34-.73a4.27,4.27,0,0,1,.75-.08c.43,0,.74.1.77.27s-.55.59-1.34.74S307,232.64,307,232.38Z" style="fill:#ebebeb"></path><path d="M309,231.57a4.47,4.47,0,0,0-1.41.29l-.2-.86a4.59,4.59,0,0,1,1.57.26Z" style="fill:#e0e0e0"></path><path d="M315.46,228.21c-.15-.21.27-.76.93-1.22a3.42,3.42,0,0,1,.65-.38c.39-.17.71-.22.81-.07s-.26.76-.92,1.22S315.62,228.43,315.46,228.21Z" style="fill:#ebebeb"></path><path d="M317,226.64a3.25,3.25,0,0,0-1.18.84c-.14-.22-.32-.46-.51-.7a4.68,4.68,0,0,1,1.52-.41Z" style="fill:#e0e0e0"></path><path d="M323.39,220.91c-.25-.06-.3-.75-.1-1.53a3.92,3.92,0,0,1,.25-.71c.18-.39.4-.63.57-.59s.3.75.1,1.53S323.65,221,323.39,220.91Z" style="fill:#ebebeb"></path><path d="M323.51,218.73a4.6,4.6,0,0,0-.34,1.41c-.26-.06-.56-.13-.86-.18a4.89,4.89,0,0,1,.9-1.33Z" style="fill:#e0e0e0"></path><path d="M303.15,218.87c.4.85.26,1.76-.32,2s-1.36-.2-1.76-1.06-.26-1.76.31-2S302.75,218,303.15,218.87Z" style="fill:#e0e0e0"></path><ellipse cx="301.31" cy="218.66" rx="1.15" ry="1.71" transform="translate(-64.31 148.48) rotate(-25.1)" style="fill:#f5f5f5"></ellipse><path d="M298.57,210.19c.56-.76,1.43-1.06,1.94-.68s.46,1.31-.11,2.06-1.44,1.05-1.94.67S298,210.94,298.57,210.19Z" style="fill:#e0e0e0"></path><path d="M297.73,209.59c.57-.75,1.44-1.05,1.94-.67s.46,1.3-.11,2.05-1.43,1.06-1.94.67S297.16,210.34,297.73,209.59Z" style="fill:#f5f5f5"></path><path d="M308.38,222.08a1.13,1.13,0,1,1-1.49-.54A1.12,1.12,0,0,1,308.38,222.08Z" style="fill:#e0e0e0"></path><path d="M308.12,221.53a1.12,1.12,0,1,1-2,1,1.14,1.14,0,0,1,.54-1.5A1.12,1.12,0,0,1,308.12,221.53Z" style="fill:#f5f5f5"></path><path d="M310.9,209.88a1.39,1.39,0,1,1-.9-1.74A1.39,1.39,0,0,1,310.9,209.88Z" style="fill:#e0e0e0"></path><path d="M311.12,209.17a1.38,1.38,0,1,1-.9-1.73A1.38,1.38,0,0,1,311.12,209.17Z" style="fill:#f5f5f5"></path><path d="M314,220.66a.82.82,0,0,1-.4,1.09.82.82,0,0,1-.7-1.49A.83.83,0,0,1,314,220.66Z" style="fill:#e0e0e0"></path><path d="M313.84,220.26a.82.82,0,0,1-1.49.7.82.82,0,0,1,.4-1.1A.81.81,0,0,1,313.84,220.26Z" style="fill:#f5f5f5"></path><path d="M323.62,209.28c-.23.12-.71-.37-1.07-1.08a4,4,0,0,1-.27-.68c-.12-.42-.11-.74,0-.81s.71.36,1.07,1.07S323.85,209.16,323.62,209.28Z" style="fill:#ebebeb"></path><path d="M322.3,207.58a4.33,4.33,0,0,0,.65,1.26l-.76.43a4.59,4.59,0,0,1-.18-1.57Z" style="fill:#e0e0e0"></path><path d="M317.16,202.82c-.14.22-.79,0-1.46-.39a3.15,3.15,0,0,1-.58-.45c-.32-.3-.47-.58-.38-.72s.8,0,1.47.39S317.3,202.6,317.16,202.82Z" style="fill:#ebebeb"></path><path d="M315.16,202a3.13,3.13,0,0,0,1.21.76c-.15.22-.3.47-.45.73a4.56,4.56,0,0,1-.94-1.23Z" style="fill:#e0e0e0"></path><path d="M310.65,197.93c0,.26-.67.43-1.47.38a3.11,3.11,0,0,1-.73-.11c-.42-.1-.69-.27-.68-.44s.67-.43,1.47-.38S310.66,197.67,310.65,197.93Z" style="fill:#ebebeb"></path><path d="M308.51,198.22a4.73,4.73,0,0,0,1.43.07c0,.26,0,.57,0,.87a4.74,4.74,0,0,1-1.45-.63Z" style="fill:#e0e0e0"></path><path d="M301.94,200.09c.11.23-.37.71-1.08,1.07a4.09,4.09,0,0,1-.68.28c-.42.12-.74.11-.81,0s.36-.71,1.07-1.07S301.82,199.86,301.94,200.09Z" style="fill:#ebebeb"></path><path d="M300.24,201.42a3.15,3.15,0,0,0,1.26-.66c.12.24.26.49.41.76a4.69,4.69,0,0,1-1.54.18Z" style="fill:#e0e0e0"></path><path d="M315.52,216.75c0,.94-.6,1.68-1.23,1.64s-1.11-.81-1.07-1.76.6-1.67,1.23-1.64S315.56,215.81,315.52,216.75Z" style="fill:#e0e0e0"></path><path d="M315.77,216.12c0,.94-.6,1.68-1.23,1.65s-1.11-.82-1.07-1.76.6-1.68,1.23-1.65S315.81,215.18,315.77,216.12Z" style="fill:#f5f5f5"></path><path d="M308.52,214a1.71,1.71,0,1,1-2.27-.82A1.71,1.71,0,0,1,308.52,214Z" style="fill:#e0e0e0"></path><path d="M308.1,213.12a1.71,1.71,0,1,1-2.27-.82A1.71,1.71,0,0,1,308.1,213.12Z" style="fill:#f5f5f5"></path><path d="M316.48,220.6c.12.08.09.39-.12.88a7.42,7.42,0,0,1-1.27,1.83,10.59,10.59,0,0,1-1.13,1.05,11.7,11.7,0,0,1-1.49,1,11.51,11.51,0,0,1-3.9,1.33,11.68,11.68,0,0,1-4.12-.16,12.29,12.29,0,0,1-1.71-.53,12.86,12.86,0,0,1-1.39-.69,7.22,7.22,0,0,1-1.73-1.39c-.34-.4-.46-.69-.37-.81s1.17.28,2.75.79c.4.13.83.25,1.3.37s1,.21,1.51.27a13.31,13.31,0,0,0,3.45,0,12.71,12.71,0,0,0,3.3-1,12.5,12.5,0,0,0,1.37-.69c.41-.24.8-.48,1.14-.72C315.44,221.2,316.22,220.42,316.48,220.6Z" style="fill:#e0e0e0"></path><g style="opacity:0.2"><path d="M297.28,219.29a1.06,1.06,0,0,1,1.45.41,1.1,1.1,0,1,1-1.45-.41Z" style="fill:#e0e0e0"></path></g><path d="M404.44,86.53a10.11,10.11,0,0,0-.33-4c.66-.91,3.5-2.43,3.5-2.43L407.08,79a17.75,17.75,0,0,1-4.09.94,3.54,3.54,0,0,1,.21.4,10.25,10.25,0,0,0-6.27-4.92c-.48-1-.36-4.29-.36-4.29L395.36,71a17.78,17.78,0,0,1-1.23,4,10.36,10.36,0,0,0-3,.46,7.17,7.17,0,0,1-1.71-2.29l-1.09.54a9.71,9.71,0,0,1,.81,2.61A10.46,10.46,0,0,0,387,78a16.18,16.18,0,0,1-3.88-1.82l-.68,1a17.42,17.42,0,0,1,2.84,3,10.23,10.23,0,0,0-1.21,3.21,7.42,7.42,0,0,1-2.61.27l-.07,1.22a10.34,10.34,0,0,1,2.49.51,10,10,0,0,0,.38,2.75,18.93,18.93,0,0,1-3.35,2.23l.54,1.1a16.5,16.5,0,0,1,3.83-.92,10.39,10.39,0,0,0,2.18,2.64,7.36,7.36,0,0,1-1.07,2.37l1,.68a10.17,10.17,0,0,1,1.7-1.9,10.39,10.39,0,0,0,4.17,1.31,17,17,0,0,1,1.29,4l1.21-.21a15.46,15.46,0,0,1,.17-3.85,9.91,9.91,0,0,0,2.63-.83A10.44,10.44,0,0,0,399.8,94a7.48,7.48,0,0,1,1.75,1.86l1-.69a10,10,0,0,1-1.16-2.45,10.28,10.28,0,0,0,2.39-3.59,18.51,18.51,0,0,1,4,.5l.31-1.18A17.52,17.52,0,0,1,404.44,86.53ZM390.25,75.81l-.35.15Z" style="fill:#ebebeb"></path><path d="M402,74.92l-1-.67a10.55,10.55,0,0,1-2,2.09c.68.34,1.89,1.17,1.89,1.17A6.55,6.55,0,0,1,402,74.92Z" style="fill:#ebebeb"></path><path d="M402,86c-.54,0-.88-1-1.61-2.24-.08-.15-.19-.3-.28-.47s-.22-.31-.33-.48a11.31,11.31,0,0,0-.79-1,8.34,8.34,0,0,0-2.12-1.71,8.49,8.49,0,0,0-2.58-.88,11.47,11.47,0,0,0-1.25-.15c-.2,0-.4,0-.59,0s-.37,0-.55,0c-1.42,0-2.44.28-2.75-.16a.5.5,0,0,1-.05-.41,1.69,1.69,0,0,1,.31-.59,4.71,4.71,0,0,1,1.79-1.37c.22-.11.45-.19.7-.29s.52-.16.79-.23a8.67,8.67,0,0,1,1.83-.21,8.16,8.16,0,0,1,2,.24,8.35,8.35,0,0,1,2.1.81,8.85,8.85,0,0,1,1.81,1.34,8.63,8.63,0,0,1,1.29,1.6,8.24,8.24,0,0,1,.79,1.65c.09.28.17.54.23.8a7.21,7.21,0,0,1,.13.74,4.85,4.85,0,0,1-.2,2.25,1.5,1.5,0,0,1-.34.57A.45.45,0,0,1,402,86Z" style="fill:#fafafa"></path><path d="M383.14,75.45c.19.12,0,.68-.34,1.25a2.63,2.63,0,0,1-.39.5c-.25.27-.49.4-.62.32s0-.68.34-1.25S383,75.33,383.14,75.45Z" style="fill:#ebebeb"></path><path d="M382.45,77.17a4.25,4.25,0,0,0,.66-1l.64.38a4.25,4.25,0,0,1-1.08.82Z" style="fill:#e0e0e0"></path><path d="M381.14,83c.22,0,.38.57.34,1.25a3.72,3.72,0,0,1-.08.63c-.09.36-.23.6-.37.59s-.38-.57-.35-1.25S380.92,83,381.14,83Z" style="fill:#ebebeb"></path><path d="M381.41,84.86a2.68,2.68,0,0,0,0-1.22c.23,0,.48,0,.74,0a4,4,0,0,1-.51,1.23Z" style="fill:#e0e0e0"></path><path d="M380.33,90c.2-.1.61.31.92.92a3.74,3.74,0,0,1,.23.59c.1.35.1.63,0,.7s-.61-.32-.92-.93S380.13,90.08,380.33,90Z" style="fill:#ebebeb"></path><path d="M381.47,91.44a4.1,4.1,0,0,0-.57-1.09l.66-.36a4,4,0,0,1,.15,1.34Z" style="fill:#e0e0e0"></path><path d="M385.7,95.51c.12-.19.68,0,1.25.33a3.1,3.1,0,0,1,.51.39c.26.25.4.49.32.62s-.69,0-1.26-.34S385.58,95.69,385.7,95.51Z" style="fill:#ebebeb"></path><path d="M387.42,96.19a2.72,2.72,0,0,0-1-.65q.19-.29.39-.63a3.88,3.88,0,0,1,.8,1.06Z" style="fill:#e0e0e0"></path><path d="M394.05,100c-.05-.22.47-.5,1.14-.63a3.61,3.61,0,0,1,.63-.06c.37,0,.63.08.66.23s-.47.5-1.14.62S394.09,100.25,394.05,100Z" style="fill:#ebebeb"></path><path d="M395.76,99.34a4.11,4.11,0,0,0-1.2.24c-.05-.22-.1-.47-.17-.73a4.25,4.25,0,0,1,1.34.22Z" style="fill:#e0e0e0"></path><path d="M401.26,96.49c-.13-.18.22-.65.78-1a4.07,4.07,0,0,1,.55-.32c.34-.15.61-.18.7-.06s-.23.65-.78,1S401.39,96.67,401.26,96.49Z" style="fill:#ebebeb"></path><path d="M402.54,95.16a2.67,2.67,0,0,0-1,.71c-.13-.19-.28-.39-.44-.6a3.9,3.9,0,0,1,1.29-.34Z" style="fill:#e0e0e0"></path><path d="M408,90.3c-.22-.06-.26-.64-.09-1.3a2.8,2.8,0,0,1,.21-.6c.15-.34.34-.54.48-.5s.25.63.09,1.29S408.2,90.35,408,90.3Z" style="fill:#ebebeb"></path><path d="M408.08,88.45a4,4,0,0,0-.28,1.19l-.73-.15a4,4,0,0,1,.76-1.12Z" style="fill:#e0e0e0"></path><path d="M390.81,88.57c.34.72.22,1.49-.26,1.72s-1.16-.17-1.5-.9-.22-1.49.27-1.72S390.47,87.84,390.81,88.57Z" style="fill:#e0e0e0"></path><path d="M390.13,88c.34.72.22,1.49-.26,1.72s-1.16-.17-1.5-.9-.22-1.49.27-1.72S389.8,87.25,390.13,88Z" style="fill:#f5f5f5"></path><path d="M386.93,81.2c.48-.64,1.22-.89,1.65-.57s.39,1.1-.09,1.74-1.22.9-1.65.57S386.45,81.84,386.93,81.2Z" style="fill:#e0e0e0"></path><path d="M386.22,80.7c.48-.64,1.22-.9,1.65-.57s.39,1.1-.09,1.74-1.22.89-1.65.57S385.74,81.33,386.22,80.7Z" style="fill:#f5f5f5"></path><path d="M395.25,91.29a1,1,0,1,1-1.27-.46A.95.95,0,0,1,395.25,91.29Z" style="fill:#e0e0e0"></path><path d="M395,90.83a.95.95,0,1,1-1.26-.46A.94.94,0,0,1,395,90.83Z" style="fill:#f5f5f5"></path><path d="M397.39,80.94a1.17,1.17,0,1,1-.77-1.47A1.18,1.18,0,0,1,397.39,80.94Z" style="fill:#e0e0e0"></path><path d="M397.58,80.34a1.17,1.17,0,1,1-.77-1.47A1.17,1.17,0,0,1,397.58,80.34Z" style="fill:#f5f5f5"></path><path d="M400,90.08a.69.69,0,0,1-.33.93.7.7,0,0,1-.93-.34.69.69,0,0,1,.33-.93A.7.7,0,0,1,400,90.08Z" style="fill:#e0e0e0"></path><path d="M399.88,89.74a.69.69,0,0,1-.33.93.7.7,0,0,1-.6-1.26A.69.69,0,0,1,399.88,89.74Z" style="fill:#f5f5f5"></path><path d="M408.18,80.43c-.2.1-.6-.31-.91-.91a3.32,3.32,0,0,1-.23-.58c-.1-.35-.09-.62,0-.69s.6.31.9.91S408.37,80.33,408.18,80.43Z" style="fill:#ebebeb"></path><path d="M407.06,79a3.65,3.65,0,0,0,.55,1.07l-.64.36a3.87,3.87,0,0,1-.16-1.33Z" style="fill:#e0e0e0"></path><path d="M402.7,75c-.12.19-.67,0-1.24-.33a3.44,3.44,0,0,1-.5-.38c-.26-.25-.39-.49-.31-.61s.67,0,1.24.33S402.82,74.77,402.7,75Z" style="fill:#ebebeb"></path><path d="M401,74.28a2.67,2.67,0,0,0,1,.64c-.13.19-.26.4-.38.62a3.79,3.79,0,0,1-.8-1.05Z" style="fill:#e0e0e0"></path><path d="M397.18,70.81c0,.22-.57.36-1.25.32a2.8,2.8,0,0,1-.62-.09c-.35-.09-.58-.23-.58-.38s.57-.36,1.25-.32S397.19,70.59,397.18,70.81Z" style="fill:#ebebeb"></path><path d="M395.36,71.05a3.83,3.83,0,0,0,1.21.06c0,.23,0,.48,0,.74a4.15,4.15,0,0,1-1.23-.53Z" style="fill:#e0e0e0"></path><path d="M389.79,72.64c.1.19-.31.6-.91.91a3.74,3.74,0,0,1-.59.23c-.35.1-.62.1-.68,0s.3-.6.91-.91S389.69,72.44,389.79,72.64Z" style="fill:#ebebeb"></path><path d="M388.35,73.77a2.68,2.68,0,0,0,1.07-.57c.1.21.21.42.34.65a4,4,0,0,1-1.3.16Z" style="fill:#e0e0e0"></path><path d="M401.31,86.77c0,.79-.51,1.42-1.05,1.39s-.94-.69-.9-1.49.51-1.42,1-1.4S401.34,86,401.31,86.77Z" style="fill:#e0e0e0"></path><path d="M401.52,86.23c0,.8-.51,1.43-1,1.4s-.94-.69-.9-1.49.51-1.42,1.05-1.4S401.56,85.44,401.52,86.23Z" style="fill:#f5f5f5"></path><path d="M395.37,84.45a1.45,1.45,0,1,1-1.92-.69A1.45,1.45,0,0,1,395.37,84.45Z" style="fill:#e0e0e0"></path><path d="M395,83.69a1.45,1.45,0,1,1-2.62,1.23A1.45,1.45,0,0,1,395,83.69Z" style="fill:#f5f5f5"></path><path d="M402.12,90c.11.07.08.34-.1.75A6,6,0,0,1,401,92.33a8.54,8.54,0,0,1-1,.89,9.54,9.54,0,0,1-1.26.85,9.52,9.52,0,0,1-6.8,1,9.49,9.49,0,0,1-1.45-.45,8.65,8.65,0,0,1-1.18-.58,6.17,6.17,0,0,1-1.47-1.18c-.29-.34-.39-.59-.31-.68s1,.23,2.33.66a9.83,9.83,0,0,0,1.11.31,11.51,11.51,0,0,0,1.27.23,10.42,10.42,0,0,0,5.73-.83,12.54,12.54,0,0,0,1.16-.59c.35-.2.68-.41,1-.61C401.24,90.54,401.9,89.88,402.12,90Z" style="fill:#e0e0e0"></path><g style="opacity:0.2"><path d="M385.84,88.92a.88.88,0,1,1-.42,1.21A.91.91,0,0,1,385.84,88.92Z" style="fill:#e0e0e0"></path></g><polygon points="59.47 429.63 42.95 478.01 89.49 478.01 70.76 429.29 75.55 404.87 53.08 404.87 59.47 429.63" style="fill:#ebebeb"></polygon><path d="M95.06,372.59s0,.06-.14.17l-.44.47L92.74,375l-1.27,1.27c-.45.47-.92,1-1.43,1.58-1,1.15-2.22,2.41-3.4,3.94l-1.9,2.35c-.65.83-1.26,1.74-1.94,2.65-1.37,1.8-2.65,3.86-4,6a114.59,114.59,0,0,0-7.59,14.71A118.75,118.75,0,0,0,66,423.23c-.57,2.49-1.16,4.84-1.51,7.08-.19,1.11-.42,2.19-.56,3.23s-.26,2-.39,3c-.29,1.91-.37,3.65-.51,5.17-.06.77-.13,1.48-.17,2.13s0,1.25-.06,1.8c-.05,1-.08,1.87-.11,2.48,0,.26,0,.47,0,.65a.68.68,0,0,1,0,.22,1,1,0,0,1,0-.22c0-.18,0-.39,0-.65,0-.61,0-1.44,0-2.49,0-.54,0-1.14,0-1.8s.08-1.37.13-2.13c.11-1.53.17-3.29.44-5.2.12-1,.24-2,.36-3s.35-2.12.54-3.24c.33-2.25.9-4.62,1.46-7.12a114.85,114.85,0,0,1,5.21-15.79,111.77,111.77,0,0,1,7.65-14.77c1.4-2.14,2.7-4.2,4.09-6,.68-.91,1.3-1.82,2-2.64l1.93-2.34c1.19-1.52,2.43-2.76,3.46-3.9.53-.56,1-1.1,1.46-1.56s.91-.87,1.3-1.25l1.81-1.71.48-.43Z" style="fill:#ebebeb"></path><path d="M108.64,395.58a8.58,8.58,0,0,1-1.48-.3c-.48-.12-1.06-.26-1.74-.37s-1.45-.29-2.32-.37-1.81-.22-2.83-.25-2.11-.05-3.26,0a42.22,42.22,0,0,0-7.4.94,42.7,42.7,0,0,0-7.09,2.35c-1,.49-2,.93-2.93,1.44s-1.71,1-2.44,1.45-1.37.94-1.93,1.33-1,.77-1.41,1.08a8.49,8.49,0,0,1-1.21.92,8.5,8.5,0,0,1,1.08-1.06,14.14,14.14,0,0,1,1.37-1.15,23.29,23.29,0,0,1,1.91-1.4,26.55,26.55,0,0,1,2.44-1.52c.88-.54,1.89-1,2.94-1.5A37.36,37.36,0,0,1,97,393.8c1.17,0,2.27,0,3.3.09a28.16,28.16,0,0,1,2.86.31c.87.1,1.64.31,2.32.45a13.86,13.86,0,0,1,1.73.44A9.87,9.87,0,0,1,108.64,395.58Z" style="fill:#ebebeb"></path><path d="M85.2,358.48a9,9,0,0,1-.53,1.41c-.37.89-.89,2.19-1.49,3.8a91.71,91.71,0,0,0-5.67,26.24c-.11,1.73-.18,3.12-.21,4.09a9.12,9.12,0,0,1-.1,1.5,10.19,10.19,0,0,1-.09-1.51c0-1,0-2.36.06-4.09a80.82,80.82,0,0,1,5.69-26.35c.65-1.61,1.21-2.89,1.64-3.76A9,9,0,0,1,85.2,358.48Z" style="fill:#ebebeb"></path><path d="M99.76,352.89a8.9,8.9,0,0,1-.82,1.15c-.55.72-1.33,1.78-2.26,3.1A80.07,80.07,0,0,0,90.25,368a82.12,82.12,0,0,0-4.62,11.75c-.47,1.55-.82,2.82-1,3.69a6.65,6.65,0,0,1-.41,1.35,8.19,8.19,0,0,1,.23-1.39c.17-.89.47-2.17.9-3.74a69.76,69.76,0,0,1,11.1-22.73c1-1.3,1.8-2.33,2.4-3A7.58,7.58,0,0,1,99.76,352.89Z" style="fill:#ebebeb"></path><path d="M119,357.09a6.42,6.42,0,0,1-1.15.59c-.76.35-1.85.88-3.18,1.55a84.7,84.7,0,0,0-19.16,13.1c-1.11,1-2,1.82-2.59,2.4a6.72,6.72,0,0,1-1,.86,6.19,6.19,0,0,1,.84-1c.56-.62,1.4-1.49,2.49-2.52a71.82,71.82,0,0,1,9.09-7.36,72.82,72.82,0,0,1,10.15-5.8c1.36-.64,2.47-1.11,3.25-1.41A6.83,6.83,0,0,1,119,357.09Z" style="fill:#ebebeb"></path><path d="M122.8,367.58a9.65,9.65,0,0,1-1.16.81c-.76.51-1.9,1.19-3.33,2a72.41,72.41,0,0,1-24.09,8.17c-1.62.25-2.93.4-3.84.46a7.24,7.24,0,0,1-1.42.06,8.13,8.13,0,0,1,1.39-.25c.91-.12,2.21-.32,3.81-.6a83,83,0,0,0,24-8.14c1.44-.75,2.6-1.39,3.39-1.84A7.47,7.47,0,0,1,122.8,367.58Z" style="fill:#ebebeb"></path><path d="M123.2,379.42s-.12.09-.38.23l-1.14.55c-1,.48-2.45,1.12-4.27,1.86A99.62,99.62,0,0,1,87.56,389c-2,.14-3.55.21-4.65.21H81.64a1.25,1.25,0,0,1-.44,0,1.43,1.43,0,0,1,.44-.07L82.9,389c1.09-.06,2.68-.18,4.63-.36a112.41,112.41,0,0,0,29.75-6.89c1.84-.69,3.31-1.28,4.32-1.71l1.18-.47A1.6,1.6,0,0,1,123.2,379.42Z" style="fill:#ebebeb"></path><path d="M73.46,369.39a7.69,7.69,0,0,1-.41,1.31c-.14.42-.32.92-.5,1.52s-.41,1.27-.59,2a45.94,45.94,0,0,0-1.14,5.39,47.28,47.28,0,0,0-.14,13.44,48.78,48.78,0,0,0,1,5.41c.17.77.39,1.44.56,2s.32,1.12.46,1.53a7.09,7.09,0,0,1,.38,1.32,8,8,0,0,1-.55-1.25,15.66,15.66,0,0,1-.55-1.52c-.19-.59-.44-1.27-.63-2a43.12,43.12,0,0,1-1.14-5.44,44.53,44.53,0,0,1,.14-13.57,44,44,0,0,1,1.26-5.42c.2-.76.46-1.43.67-2a16,16,0,0,1,.58-1.5A7.16,7.16,0,0,1,73.46,369.39Z" style="fill:#ebebeb"></path><path d="M32.8,332.79s.09,0,.23.16l.63.52c.54.47,1.39,1.11,2.37,2.06a63.87,63.87,0,0,1,7.74,8.57,80.3,80.3,0,0,1,8.81,14.69,105.46,105.46,0,0,1,6.84,19.83,155.38,155.38,0,0,1,3.34,20.71c.62,6.42.89,12.23,1.05,17.1S64,425.25,64,428c0,1.34,0,2.39,0,3.14,0,.34,0,.6,0,.82a1.39,1.39,0,0,1,0,.27.94.94,0,0,1,0-.27c0-.21,0-.48,0-.82,0-.75-.06-1.8-.11-3.14-.08-2.72-.18-6.66-.38-11.53s-.51-10.66-1.15-17.06A161.36,161.36,0,0,0,59,378.73,106.56,106.56,0,0,0,52.17,359a81.4,81.4,0,0,0-8.67-14.67,68.28,68.28,0,0,0-7.6-8.64c-.95-1-1.79-1.63-2.3-2.13L33,333Z" style="fill:#ebebeb"></path><path d="M32.31,385.17a1.29,1.29,0,0,1,.36-.13c.25-.06.61-.18,1.09-.27a22,22,0,0,1,4.09-.49,24.47,24.47,0,0,1,22.44,13,23.13,23.13,0,0,1,1.61,3.79,10.19,10.19,0,0,1,.3,1.08c.06.25.09.38.07.39a10.75,10.75,0,0,1-.55-1.41A27.46,27.46,0,0,0,60,397.44a25,25,0,0,0-22.13-12.82,28.59,28.59,0,0,0-4.07.33A9.64,9.64,0,0,1,32.31,385.17Z" style="fill:#ebebeb"></path><path d="M25.15,369.22a2.17,2.17,0,0,1,.41-.12c.28-.05.68-.16,1.22-.23a27.82,27.82,0,0,1,4.53-.38,32.07,32.07,0,0,1,26,12.85,29.47,29.47,0,0,1,2.45,3.83c.26.47.42.85.55,1.11s.17.39.15.4a13.91,13.91,0,0,1-.86-1.42,37.94,37.94,0,0,0-2.56-3.71,33,33,0,0,0-25.75-12.72,36.8,36.8,0,0,0-4.51.22A11.49,11.49,0,0,1,25.15,369.22Z" style="fill:#ebebeb"></path><path d="M15.18,353.15s.15-.08.45-.18.74-.25,1.32-.39a32.25,32.25,0,0,1,5-.91,35.61,35.61,0,0,1,30.26,11.65,32.78,32.78,0,0,1,3.1,4c.34.5.56.91.72,1.18a2.08,2.08,0,0,1,.22.43,14.21,14.21,0,0,1-1.09-1.5,40.9,40.9,0,0,0-3.21-3.9,37.09,37.09,0,0,0-13.64-9.25A37.09,37.09,0,0,0,22,352a39.34,39.34,0,0,0-5,.74A17.64,17.64,0,0,1,15.18,353.15Z" style="fill:#ebebeb"></path><path d="M75,356a1.54,1.54,0,0,1-.27.36l-.83,1c-.36.41-.81.92-1.28,1.55s-1.05,1.3-1.6,2.12-1.18,1.69-1.77,2.69-1.2,2.07-1.82,3.21a53.76,53.76,0,0,0-3.18,7.84A52.05,52.05,0,0,0,62.49,383c-.13,1.29-.28,2.52-.3,3.68s-.06,2.23,0,3.22.09,1.87.14,2.65a18.19,18.19,0,0,0,.19,2c.05.5.1.92.14,1.27a1.83,1.83,0,0,1,0,.44s-.06-.14-.12-.43-.14-.75-.23-1.25a19.16,19.16,0,0,1-.27-2c-.08-.79-.2-1.68-.21-2.67s-.08-2.08,0-3.25.14-2.41.26-3.72a50.13,50.13,0,0,1,1.74-8.36A49.5,49.5,0,0,1,67,366.68c.63-1.15,1.22-2.25,1.87-3.22a31.09,31.09,0,0,1,1.84-2.68c.56-.82,1.16-1.49,1.66-2.1s1-1.1,1.35-1.5l.9-.91C74.87,356.07,75,356,75,356Z" style="fill:#ebebeb"></path><path d="M67.05,339.9c.06.06-1.11,1.35-2.73,3.66a43.71,43.71,0,0,0-2.59,4.19A42.81,42.81,0,0,0,57.49,359a45.8,45.8,0,0,0-.82,4.87c-.3,2.8-.27,4.55-.36,4.55a6.39,6.39,0,0,1-.08-1.23,28,28,0,0,1,.1-3.35,38.1,38.1,0,0,1,.72-4.93,40.41,40.41,0,0,1,4.28-11.39A39.17,39.17,0,0,1,64,343.36a32.1,32.1,0,0,1,2.13-2.6A4.88,4.88,0,0,1,67.05,339.9Z" style="fill:#ebebeb"></path><path d="M50.42,321.79a6.23,6.23,0,0,1-.21,1.25c-.18.79-.41,1.94-.66,3.36a74.45,74.45,0,0,0-1.15,11.24A75.49,75.49,0,0,0,49,348.92c.19,1.43.36,2.59.49,3.39a7.05,7.05,0,0,1,.16,1.26,5.18,5.18,0,0,1-.34-1.22c-.19-.79-.42-2-.65-3.38a63.6,63.6,0,0,1,.57-22.63c.3-1.42.58-2.57.81-3.35A6.83,6.83,0,0,1,50.42,321.79Z" style="fill:#ebebeb"></path><rect x="229.47" y="148.12" width="35.06" height="12.87" style="fill:#f5f5f5"></rect><path d="M257.55,174.14a1.35,1.35,0,0,1,0-.24l0-.66c0-.6,0-1.45,0-2.53,0-2.22-.05-5.42-.09-9.44l.16.15-48.65.09.24-.24h0v6.52c0,2.14,0,4.26,0,6.33l-.24-.25,34.67.11,10.24.07,2.76,0,.73,0,.26,0h-.23l-.69,0-2.72,0-10.18.07-34.84.11h-.24v-6.57c0-1.08,0-2.16,0-3.25v-3.27h0c.5-.5.14-.14.26-.25l48.65.09h.15v.16c0,4.06-.07,7.29-.09,9.53,0,1.07,0,1.9,0,2.5,0,.26,0,.47,0,.63A1.66,1.66,0,0,1,257.55,174.14Z" style="fill:#f5f5f5"></path><path d="M79.42,90.23s0-.09,0-.24,0-.39,0-.66c0-.6,0-1.45,0-2.53,0-2.22,0-5.42-.08-9.44l.15.15-48.65.09c.11-.11-.25.25.25-.24h0v3.27c0,1.09,0,2.17,0,3.25v6.33L30.77,90l34.67.11,10.23.07,2.77,0h.72a1.33,1.33,0,0,1,.26,0H79.2l-.7,0-2.71,0-10.18.07-34.84.11h-.24v-.24c0-2.07,0-4.19,0-6.33V77.38h0l.25-.25,48.65.09h.15v.16c0,4.06-.06,7.29-.08,9.53,0,1.07,0,1.9,0,2.5V90A.85.85,0,0,1,79.42,90.23Z" style="fill:#e0e0e0"></path><path d="M86,77.36a.77.77,0,0,1,0-.25c0-.18,0-.41,0-.68,0-.63,0-1.5,0-2.58,0-2.26-.05-5.45-.09-9.37l.18.18-29.23.07c-.23.22.3-.3.24-.24h0v6.6c0,2.16,0,4.25,0,6.25l-.24-.24,20.92.11,6.09.07,1.64,0,.59,0a4.89,4.89,0,0,1-.53,0l-1.6,0-6,.07-21.08.11h-.23v-.23c0-2,0-4.09,0-6.25v-6.6h0l.25-.25L86,64.31h.18v.17c0,4-.08,7.19-.1,9.48,0,1.07,0,1.91,0,2.54S86,77.37,86,77.36Z" style="fill:#e0e0e0"></path><path d="M533.36,258.94a1.35,1.35,0,0,1,0-.24V258c0-.6,0-1.45,0-2.53,0-2.22,0-5.41-.08-9.44l.15.15-48.65.1c.11-.12-.25.24.24-.25h0v12.85l-.25-.24,34.68.11,10.23.07,2.77,0h.72l.26,0h-.23l-.69,0-2.72,0-10.17.07-34.85.11h-.24V246.09h0l.25-.25,48.65.1h.15v.15c0,4.06-.07,7.29-.08,9.53,0,1.07,0,1.9,0,2.5l0,.63A1.66,1.66,0,0,1,533.36,258.94Z" style="fill:#e0e0e0"></path><path d="M540,246.07s0-.09,0-.25,0-.41,0-.68l0-2.58c0-2.26,0-5.44-.09-9.36l.17.17-29.23.07c-.22.23.3-.3.25-.24h0v6.61c0,2.15,0,4.24,0,6.24l-.24-.24,20.91.11,6.09.07,1.65,0,.58,0a3.28,3.28,0,0,1-.53,0l-1.59,0-6,.06-21.07.11h-.23v-.23c0-2,0-4.09,0-6.24,0-1.08,0-2.17,0-3.28v-3.33h0l.25-.25L540,233h.18v.18c0,4-.07,7.19-.09,9.47,0,1.07,0,1.92,0,2.54A5,5,0,0,1,540,246.07Z" style="fill:#e0e0e0"></path><path d="M79.42,279.56s0-.09,0-.24,0-.39,0-.66c0-.6,0-1.45,0-2.53,0-2.22,0-5.42-.08-9.44l.15.15-48.65.09.25-.24h0V270c0,1.09,0,2.17,0,3.25v6.33l-.24-.24,34.67.11,10.23.07,2.77,0h.72l.26,0H79.2l-.7,0-2.71,0-10.18.07-34.84.11h-.24v-.24q0-3.1,0-6.33v-6.52h0l.25-.25,48.65.1h.15v.15c0,4.06-.06,7.29-.08,9.53,0,1.07,0,1.9,0,2.5v.63A.85.85,0,0,1,79.42,279.56Z" style="fill:#e0e0e0"></path><path d="M733.45,400.81a1.17,1.17,0,0,1,0-.23v-.66c0-.61,0-1.45,0-2.54,0-2.22,0-5.41-.08-9.44l.15.15-48.65.1c.11-.11-.25.24.24-.25h0v12.85l-.25-.24,34.68.11,10.23.07,2.77,0h.72l.26,0-.23,0h-.69l-2.72,0-10.18.07-34.84.11h-.24V388h0l.25-.25,48.65.1h.15v.15c0,4.06-.07,7.29-.09,9.53,0,1.07,0,1.9,0,2.5l0,.64A1.39,1.39,0,0,1,733.45,400.81Z" style="fill:#e0e0e0"></path><path d="M733.45,86.43a1,1,0,0,1,0-.23v-.66c0-.61,0-1.45,0-2.53,0-2.22,0-5.42-.08-9.45l.15.15-48.65.1c.11-.11-.25.25.24-.25h0V86.43l-.25-.24,34.68.11,10.23.07,2.77,0,.72,0h.26l-.23,0-.69,0-2.72,0-10.18.07-34.84.11h-.24V73.57h0c.49-.49.14-.13.25-.24l48.65.09h.15v.15c0,4.07-.07,7.29-.09,9.54,0,1.07,0,1.9,0,2.5l0,.63A1.23,1.23,0,0,1,733.45,86.43Z" style="fill:#e0e0e0"></path></g><g id="freepik--Floor--inject-102"><path d="M709.07,477.76c0,.14-150,.26-335.05.26s-335.09-.12-335.09-.26,150-.26,335.09-.26S709.07,477.62,709.07,477.76Z" style="fill:#263238"></path></g><g id="freepik--Character--inject-102"><path d="M309.66,320.71s-8.4-4.23-8.4-7.9,11.88-21.5,11.88-21.5l8.11,5.2s-3.46,6.19-5.49,8.18-4.72,8.12-4.72,8.12,5.06,2.45,4.39,3.67-4.39.31-4.39.31,4.72,3.37,3.38,4.59S309.66,320.71,309.66,320.71Z" style="fill:#ffbe9d"></path><path d="M333.13,238.18c0,.76-20,53.13-20,53.13l8.11,5.2,24-52.77V205.8l-12.66-4.19Z" style="fill:#ffbe9d"></path><path d="M307.53,311c.08,0,0,.38,0,.93a4,4,0,0,0,.66,2,7.9,7.9,0,0,0,1.49,1.64c.44.39.72.63.68.69s-.39-.07-.9-.39a5.72,5.72,0,0,1-1.71-1.66,3.66,3.66,0,0,1-.59-2.33C307.22,311.33,307.48,311,307.53,311Z" style="fill:#eb996e"></path><path d="M307.38,343l-3.21-32.88c-.49-4.92-1.06-10.09-3.92-14.13-1.67-2.35-4.59-4.28-7.34-3.4a6.11,6.11,0,0,0-3.7,4.28,17.37,17.37,0,0,0-.31,5.85c.93,14.87,2.79,29.66,4.88,44.41-.11-.35-.21-.7-.31-1.05" style="fill:#FF725E"></path><path d="M295.52,333.07a9.34,9.34,0,0,0,3.6-.22,9.5,9.5,0,0,0,3.43-1.07,17,17,0,0,0-3.53.54A17.77,17.77,0,0,0,295.52,333.07Z" style="fill:#263238"></path><path d="M293.86,324.92a19.34,19.34,0,0,0,4-.5,18.63,18.63,0,0,0,4-.81,21.93,21.93,0,0,0-8,1.31Z" style="fill:#263238"></path><path d="M292.1,318.11c.06.14,1.89-.53,4.22-1s4.28-.51,4.29-.67a10.12,10.12,0,0,0-4.39.14A10,10,0,0,0,292.1,318.11Z" style="fill:#263238"></path><path d="M291.86,310c.07.14,1.7-.69,3.85-1.24s4-.66,4-.82a11,11,0,0,0-7.81,2.06Z" style="fill:#263238"></path><rect x="312.7" y="317.12" width="3.07" height="6.07" transform="translate(551.68 700.75) rotate(-167.49)" style="fill:#263238"></rect><path d="M312.86,335.09l2.74-12.36-3.65-.81-2.29,10.31s-3.86-.74-4.72.84c-1.87,3.48-3.26,11.94-3.26,11.94Z" style="fill:#455a64"></path><path d="M272.41,371.32c.86,3.22,3.42,5.7,6.1,7.69a44.44,44.44,0,0,0,25.92,8.7c3.28,0,6.82-.43,9.2-2.68,1.65-1.56,6.11-4.36,6.91-6.49,4.1-10.94,1.61-25.57.4-37.19-.57-5.44.74-6.94.59-12.4-.11-4.06.6-8.18-.3-12.14-1.68-7.44-11.83-9.24-15.83-8.56v0a9.92,9.92,0,0,0-6,.71c-3.13,1.48-5.24,4.44-7.21,7.28-3,4.37-6.12,8.81-7.91,13.82-1.49,4.17-2,8.6-3.2,12.87-1.69,6.22-4.65,12-7.06,18C272.68,364.25,271.49,367.88,272.41,371.32Zm18.39-46.86a11.76,11.76,0,0,1,1.86-3.4,36.5,36.5,0,0,1,6.36-7.43,15.45,15.45,0,0,1,6.25-3.23c2.26.86,8.21,2.77,9.69,4a6.29,6.29,0,0,1,2.44,3.91,17.2,17.2,0,0,1,.17,4.7,21.08,21.08,0,0,1-1,6,7.92,7.92,0,0,1-3.84,4.57c-2.43,1.14-5.32.52-7.8-.51s-4.84-2.43-7.49-2.88c-2.19-.37-4.82-.23-6.17-2A4.26,4.26,0,0,1,290.8,324.46Z" style="fill:#ebebeb"></path><path d="M272.41,371.32c.86,3.22,3.42,5.7,6.1,7.69a44.44,44.44,0,0,0,25.92,8.7c3.28,0,6.82-.43,9.2-2.68,1.65-1.56,6.11-4.36,6.91-6.49,4.1-10.94,1.61-25.57.4-37.19-.57-5.44.74-6.94.59-12.4-.11-4.06.6-8.18-.3-12.14-1.68-7.44-11.83-9.24-15.83-8.56v0a9.92,9.92,0,0,0-6,.71c-3.13,1.48-5.24,4.44-7.21,7.28-3,4.37-6.12,8.81-7.91,13.82-1.49,4.17-2,8.6-3.2,12.87-1.69,6.22-4.65,12-7.06,18C272.68,364.25,271.49,367.88,272.41,371.32Zm18.39-46.86a11.76,11.76,0,0,1,1.86-3.4,36.5,36.5,0,0,1,6.36-7.43,15.45,15.45,0,0,1,6.25-3.23c2.26.86,8.21,2.77,9.69,4a6.29,6.29,0,0,1,2.44,3.91,17.2,17.2,0,0,1,.17,4.7,21.08,21.08,0,0,1-1,6,7.92,7.92,0,0,1-3.84,4.57c-2.43,1.14-5.32.52-7.8-.51s-4.84-2.43-7.49-2.88c-2.19-.37-4.82-.23-6.17-2A4.26,4.26,0,0,1,290.8,324.46Z" style="fill:none"></path><path d="M272.41,371.32c.86,3.22,3.42,5.7,6.1,7.69a44.44,44.44,0,0,0,25.92,8.7c3.28,0,6.82-.43,9.2-2.68,1.65-1.56,6.11-4.36,6.91-6.49,4.1-10.94,1.61-25.57.4-37.19-.57-5.44.74-6.94.59-12.4-.11-4.06.6-8.18-.3-12.14-1.68-7.44-11.83-9.24-15.83-8.56v0a9.92,9.92,0,0,0-6,.71c-3.13,1.48-5.24,4.44-7.21,7.28-3,4.37-6.12,8.81-7.91,13.82-1.49,4.17-2,8.6-3.2,12.87-1.69,6.22-4.65,12-7.06,18C272.68,364.25,271.49,367.88,272.41,371.32Z" style="fill:none"></path><path d="M282.71,353.9a3.47,3.47,0,0,1,2.46-2.2c1.71-.33,3.34,1,4.15,2.55s1.1,3.31,1.82,4.9a9.74,9.74,0,0,0,6.78,5.43c3.59.75,7.62-.52,10.81,1.29,1.09.63,2,1.81,1.79,3a3.47,3.47,0,0,1-1.57,1.94,12,12,0,0,1-7.19,2.09,33.29,33.29,0,0,1-11.68-5.61c-4.07-2.91-6.84-6-7.57-10A6.33,6.33,0,0,1,282.71,353.9Z" style="fill:#e0e0e0"></path><path d="M311.53,361.1a4.72,4.72,0,0,0,1.63-1,12.21,12.21,0,0,0,4.22-8.12,4.6,4.6,0,0,0-.09-1.93,18.94,18.94,0,0,1-1.71,6.15A19.3,19.3,0,0,1,311.53,361.1Z" style="fill:#263238"></path><path d="M317.66,300.83a2.29,2.29,0,0,0-2.08-1.34A6.91,6.91,0,0,0,313,300l-1.26,1.63q-1,6.06-2.08,12.12a1.43,1.43,0,0,0,1.75-.07,4.21,4.21,0,0,0,1.11-1.52l4.56-8.74A3.37,3.37,0,0,0,317.66,300.83Z" style="fill:#ffbe9d"></path><path d="M316.85,297.82a3.44,3.44,0,0,1,.49,1.08,7.34,7.34,0,0,1-.49,5.4,20.71,20.71,0,0,1-1.4,2.15,6.64,6.64,0,0,0-1.12,2.47,8.18,8.18,0,0,1-1.08,2.89,5.84,5.84,0,0,1-1.1,1.17,4.16,4.16,0,0,1-1.41.77,1.17,1.17,0,0,1-1.32-1,2.12,2.12,0,0,1,.1-.76l.13-.67c.37-1.72.71-3.29,1-4.66s.53-2.29.72-3.13a5.35,5.35,0,0,1,.33-1.13,4.65,4.65,0,0,1-.13,1.17c-.15.86-.34,1.91-.56,3.16s-.55,2.95-.88,4.68l-.13.67a1.8,1.8,0,0,0-.08.6.66.66,0,0,0,.73.57,4.86,4.86,0,0,0,2.17-1.74,8.05,8.05,0,0,0,1-2.72,7,7,0,0,1,1.21-2.61,21.49,21.49,0,0,0,1.42-2.08,7.13,7.13,0,0,0,.72-2,7.55,7.55,0,0,0-.05-3.13A9.58,9.58,0,0,1,316.85,297.82Z" style="fill:#eb996e"></path><path d="M393.18,251.16s15.11,23.83,18.56,33.73-2.72,26-13.65,25.25S384.65,265,384.65,265Z" style="fill:#455a64"></path><path d="M386.24,449.71l.56,28.22-35.11.88c.12-3.36,18.12-10.55,18.12-10.55l-1.1-18.06Z" style="fill:#FF725E"></path><g style="opacity:0.6000000000000001"><path d="M380.63,466.47a1.44,1.44,0,0,1,1,1.61,1.38,1.38,0,0,1-1.59,1,1.52,1.52,0,0,1-1.09-1.71,1.45,1.45,0,0,1,1.78-.9" style="fill:#fff"></path></g><g style="opacity:0.6000000000000001"><path d="M386.8,477.93l-.17-2.84L353,477s-1.54.72-1.34,1.82Z" style="fill:#fff"></path></g><path d="M369.23,468.1c0,.17.87.23,1.73.76s1.32,1.24,1.48,1.17-.12-1.06-1.17-1.68S369.19,467.94,369.23,468.1Z" style="fill:#263238"></path><path d="M365.59,469.71c0,.17.71.45,1.31,1.16s.79,1.47,1,1.46.26-1-.51-1.86S365.59,469.55,365.59,469.71Z" style="fill:#263238"></path><path d="M363.61,474.17c.15,0,.37-.83-.09-1.75s-1.28-1.29-1.35-1.14.44.63.81,1.4S363.44,474.16,363.61,474.17Z" style="fill:#263238"></path><path d="M369.44,464c.08.16.86-.1,1.83-.06s1.73.33,1.82.18-.66-.74-1.8-.77S369.35,463.82,369.44,464Z" style="fill:#263238"></path><path d="M370.17,459.77a3.33,3.33,0,0,0,1.76,0,8.17,8.17,0,0,0,2.82-1.18,1.88,1.88,0,0,0,.52-.42.76.76,0,0,0,.06-.92,1,1,0,0,0-.76-.37,2.12,2.12,0,0,0-.66.11,5.75,5.75,0,0,0-1.08.4,6.21,6.21,0,0,0-1.6,1.1c-.79.78-1.06,1.43-1,1.46s.47-.49,1.28-1.14a6.88,6.88,0,0,1,1.54-.92,7.48,7.48,0,0,1,1-.34c.37-.1.68-.11.78.05s0,.09,0,.2a2.18,2.18,0,0,1-.38.31,10.14,10.14,0,0,1-.92.55,10.84,10.84,0,0,1-1.68.7A12.3,12.3,0,0,0,370.17,459.77Z" style="fill:#263238"></path><path d="M370.4,460a2.8,2.8,0,0,0,.42-1.71,5.6,5.6,0,0,0-.29-1.92,5.46,5.46,0,0,0-.47-1.06,1.46,1.46,0,0,0-1.14-.86.86.86,0,0,0-.73.51,2.56,2.56,0,0,0-.16.65,3.93,3.93,0,0,0,0,1.19,4.11,4.11,0,0,0,.79,1.79c.71.9,1.43,1.08,1.45,1s-.55-.4-1.1-1.26a4.13,4.13,0,0,1-.6-1.64,3.88,3.88,0,0,1,0-1c0-.37.18-.67.32-.64s.48.27.63.56a5.82,5.82,0,0,1,.46.94,6.67,6.67,0,0,1,.38,1.75C370.47,459.34,370.31,460,370.4,460Z" style="fill:#263238"></path><path d="M348.58,445.24l7.72,27.15-33.73,9.78c-.74-3.28,14.83-14.81,14.83-14.81l-5.66-17.19Z" style="fill:#FF725E"></path><g style="opacity:0.6000000000000001"><path d="M347.41,462.88a1.43,1.43,0,0,1,1.41,1.29,1.38,1.38,0,0,1-1.27,1.41,1.52,1.52,0,0,1-1.49-1.38,1.44,1.44,0,0,1,1.49-1.32" style="fill:#fff"></path></g><g style="opacity:0.6000000000000001"><path d="M356.3,472.39l-.89-2.7-32,10.38s-1.31,1.09-.83,2.1Z" style="fill:#fff"></path></g><path d="M336.81,467.35c.05.16.9,0,1.86.29s1.6.87,1.73.76-.39-1-1.56-1.33S336.73,467.21,336.81,467.35Z" style="fill:#263238"></path><path d="M333.69,469.84c0,.17.81.24,1.57.78s1.14,1.22,1.3,1.17,0-1-1-1.67S333.65,469.68,333.69,469.84Z" style="fill:#263238"></path><path d="M332.91,474.66c.16,0,.15-.9-.53-1.68s-1.56-.92-1.59-.76.59.5,1.14,1.15S332.74,474.69,332.91,474.66Z" style="fill:#263238"></path><path d="M336,463.29c.12.13.81-.32,1.75-.52s1.76-.13,1.81-.29-.82-.56-1.94-.3S335.83,463.18,336,463.29Z" style="fill:#263238"></path><path d="M335.6,459.05a3.3,3.3,0,0,0,1.68-.5,7.31,7.31,0,0,0,1.61-1.05,7.69,7.69,0,0,0,.82-.8,2,2,0,0,0,.4-.54.75.75,0,0,0-.18-.9,1,1,0,0,0-.83-.17,2.92,2.92,0,0,0-.61.27,6.08,6.08,0,0,0-.94.67,6.37,6.37,0,0,0-1.27,1.47c-.57.95-.66,1.65-.59,1.66s.32-.59.94-1.42a7.2,7.2,0,0,1,1.26-1.29,8.54,8.54,0,0,1,.89-.58c.33-.19.63-.28.77-.15s.06.07,0,.2a1.8,1.8,0,0,1-.3.4c-.24.28-.49.53-.74.77a10.28,10.28,0,0,1-1.45,1.1A12.1,12.1,0,0,0,335.6,459.05Z" style="fill:#263238"></path><path d="M335.88,459.23a2.86,2.86,0,0,0,0-1.76,5.58,5.58,0,0,0-.76-1.79,7.39,7.39,0,0,0-.73-.9,1.49,1.49,0,0,0-1.33-.54.85.85,0,0,0-.57.68,2.47,2.47,0,0,0,0,.67,3.86,3.86,0,0,0,.33,1.14,4,4,0,0,0,1.23,1.53c.91.68,1.65.68,1.65.62s-.64-.25-1.38-.94a4.13,4.13,0,0,1-1-1.43,4,4,0,0,1-.25-1c-.05-.37,0-.7.15-.7a1,1,0,0,1,.75.38,6.2,6.2,0,0,1,.68.79,6.53,6.53,0,0,1,.82,1.59C335.78,458.56,335.78,459.23,335.88,459.23Z" style="fill:#263238"></path><path d="M374.11,107.37a14.25,14.25,0,0,1-3.7-.42,20,20,0,0,1-2.66-1.52,7.28,7.28,0,0,0-8.88,1.85c-1.9,2.43-2.67-1-7.17,1.72-3.72,2.21-1.78,5.29-1.78,5.29a8.32,8.32,0,0,0-8.26,6.59c-.45,2.4,0,5.33-1.83,6.89-.91.76-2.17,1-3.11,1.7-1.74,1.34-1.8,3.93-1.4,6.1s1.06,4.45.26,6.49c-1.32,3.36-6.09,4.69-6.68,8.25-.28,1.68.42,3.69-.75,4.92a5.85,5.85,0,0,1-1.76,1,7.6,7.6,0,0,0-.28,13.5c.68.37,1.49.71,1.75,1.44s-.25,1.65-.64,2.42a7.31,7.31,0,0,0,10.4,9.48,11.37,11.37,0,0,0,6.71,5.33,7,7,0,0,0,4,.11,8,8,0,0,0,2.74-1.69c3.89-3.39,9.34-8.57,9.7-13.72l22.93-56.66A10.87,10.87,0,0,0,374.11,107.37Z" style="fill:#263238"></path><path d="M347.94,135.27a4.37,4.37,0,0,1-1.8,0,10.55,10.55,0,0,1-7.16-4.63,4.29,4.29,0,0,1-.76-1.63,13,13,0,0,1,1,1.44,12.55,12.55,0,0,0,3.08,2.85,12.41,12.41,0,0,0,3.86,1.63A14.44,14.44,0,0,1,347.94,135.27Z" style="fill:#455a64"></path><path d="M350.54,123.46a3.85,3.85,0,0,1-1.17,1.16,10.21,10.21,0,0,1-7.58,1.93,3.75,3.75,0,0,1-1.58-.46,16.77,16.77,0,0,0,5.44-.23A16.6,16.6,0,0,0,350.54,123.46Z" style="fill:#455a64"></path><path d="M331.44,182l-.16,0a3.15,3.15,0,0,1-.46-.13,6.11,6.11,0,0,1-1.61-.89,6.29,6.29,0,0,1-1.84-2.27,6,6,0,0,1-.44-3.83,6.24,6.24,0,0,1,.83-2.12,8.1,8.1,0,0,1,1.64-1.83,8.48,8.48,0,0,0,1.7-1.84,2.55,2.55,0,0,0,.08-2.43,12.57,12.57,0,0,0-1.67-2.27,9,9,0,0,1-.88-1.25,5.26,5.26,0,0,1-.5-1.51,5.35,5.35,0,0,1,2.9-5.49,17.68,17.68,0,0,1,3.16-.73,3.51,3.51,0,0,0,1.34-.57,2.19,2.19,0,0,0,.78-1.12,4.45,4.45,0,0,0-.31-2.78c-.36-.88-.86-1.72-1.2-2.63a4.22,4.22,0,0,1-.19-2.82,4.43,4.43,0,0,1,1.6-2.13,12.21,12.21,0,0,1,4.31-1.82,9.48,9.48,0,0,0,3.4-1.55,4.26,4.26,0,0,0,1.43-2.37,2.74,2.74,0,0,0-.17-1.73c-.18-.38-.35-.53-.32-.55a1.65,1.65,0,0,1,.41.5,2.76,2.76,0,0,1,.26,1.82,4.31,4.31,0,0,1-1.43,2.53,9.41,9.41,0,0,1-3.48,1.68,12.16,12.16,0,0,0-4.16,1.81,4.06,4.06,0,0,0-1.44,1.94,3.81,3.81,0,0,0,.2,2.54c.32.85.82,1.67,1.21,2.61a4.87,4.87,0,0,1,.34,3.08,2.64,2.64,0,0,1-.95,1.37,3.81,3.81,0,0,1-1.52.66,18.12,18.12,0,0,0-3.07.71,4.85,4.85,0,0,0-2.62,5,4.26,4.26,0,0,0,.44,1.36,7.79,7.79,0,0,0,.82,1.18,12.11,12.11,0,0,1,1.71,2.37,3,3,0,0,1-.11,2.83,8.57,8.57,0,0,1-1.8,1.93,8,8,0,0,0-1.59,1.73,6,6,0,0,0-.46,5.64,6.16,6.16,0,0,0,1.7,2.23A7.87,7.87,0,0,0,331.44,182Z" style="fill:#455a64"></path><path d="M415.59,202.35l-17,11.13,10.28,31.38-11.26,28.35,9.06,7.29s15.95-20.05,18.91-30.16C428.23,241.1,415.59,202.35,415.59,202.35Z" style="fill:#ffbe9d"></path><path d="M328.19,269.83s-20.49,96.22-19.48,103S333,462.71,333,462.71l21.47-6-12.71-84.6,24.36-96.76Z" style="fill:#263238"></path><path d="M348.35,269.25l7.82,39.28L362,391.58l4.08,70.65h21.52s4-54.76,3.36-73.92-4.37-33.27,3.7-59.49-.8-57.27-.8-57.27Z" style="fill:#263238"></path><path d="M357.36,322a5.27,5.27,0,0,1-.19-1.21c-.1-.9-.21-2-.36-3.34-.29-2.81-.73-6.69-1.34-11s-1.26-8.12-1.75-10.91c-.24-1.31-.43-2.41-.59-3.3a5.21,5.21,0,0,1-.15-1.22,5.68,5.68,0,0,1,.35,1.18c.2.77.45,1.89.75,3.27.59,2.77,1.3,6.62,1.91,10.91s1,8.18,1.19,11c.1,1.41.17,2.56.19,3.35A5.09,5.09,0,0,1,357.36,322Z" style="fill:#455a64"></path><path d="M392.28,295.55s-.25.12-.73.24a11,11,0,0,1-2.07.32,15.3,15.3,0,0,1-3.12-.09,17.93,17.93,0,0,1-3.71-.92,18.33,18.33,0,0,1-3.4-1.74,16.25,16.25,0,0,1-2.41-2,12.39,12.39,0,0,1-1.36-1.6c-.28-.41-.42-.64-.39-.66s.72.82,2,2a18.09,18.09,0,0,0,2.42,1.84,18.8,18.8,0,0,0,3.33,1.66,19.42,19.42,0,0,0,3.59.93,16.81,16.81,0,0,0,3,.2C391.2,295.7,392.26,295.46,392.28,295.55Z" style="fill:#455a64"></path><path d="M339,287.36a8,8,0,0,1-1.55,2,17.75,17.75,0,0,1-10.91,5.34,7.93,7.93,0,0,1-2.56,0c0-.09,1-.1,2.51-.34a20.09,20.09,0,0,0,10.7-5.24C338.3,288.07,338.91,287.31,339,287.36Z" style="fill:#455a64"></path><path d="M322.3,367.88a5.05,5.05,0,0,1-.48,1.89,14.52,14.52,0,0,1-6,7.14,5.31,5.31,0,0,1-1.78.81,26,26,0,0,0,5-4.22A24.69,24.69,0,0,0,322.3,367.88Z" style="fill:#455a64"></path><path d="M378,378.58a4.08,4.08,0,0,1-1.78.06,10.58,10.58,0,0,1-4.07-1.38,10.46,10.46,0,0,1-3.18-2.88,4.14,4.14,0,0,1-.82-1.58,13.17,13.17,0,0,0,9.85,5.78Z" style="fill:#455a64"></path><path d="M418.65,202.62s-4.15-13.79-6.84-20.87-23.15-10.12-23.15-10.12H359.53l-.25.05L347.39,174c-12.14,2.36-21.25,25.63-21.25,25.63l11.58,8.07-.46,2a18.54,18.54,0,0,0-.38,5.51c.69,8.71,1.28,25.17,1.28,25.17L325.1,279.09s10.12,8.53,26.8,10C370,290.63,397.3,286,397.3,286l-6.06-43.35,7.08-27.47Z" style="fill:#FF725E"></path><path d="M336.9,215.66a2.49,2.49,0,0,1-.16-.89,21.14,21.14,0,0,1-.13-2.47,7.14,7.14,0,0,1,.21-1.72c.14-.6.28-1.24.44-1.9.31-1.34.68-2.81,1.11-4.34.84-3.06,1.75-5.79,2.46-7.74a18.81,18.81,0,0,1,1.29-3.11,23.85,23.85,0,0,1-.94,3.23c-.62,2-1.47,4.71-2.31,7.76-.42,1.53-.81,3-1.15,4.31-.17.66-.32,1.29-.48,1.89a7.15,7.15,0,0,0-.26,1.63C336.89,214.37,337,215.66,336.9,215.66Z" style="fill:#263238"></path><path d="M381.24,242.11a21.37,21.37,0,0,1-3,1l-7.21,2.3-7.18,2.39a19.93,19.93,0,0,1-3,.92,17.08,17.08,0,0,1,2.88-1.27c1.81-.7,4.33-1.62,7.14-2.54s5.4-1.66,7.27-2.16A17.22,17.22,0,0,1,381.24,242.11Z" style="fill:#263238"></path><g style="opacity:0.30000000000000004"><path d="M384.49,238.42c-.6-1-2.14-.57-3.2,0a48,48,0,0,1-28.13,4.54l-3-.35c1.84,3.28,5.8,4.9,9.55,5s7.41-1.16,11-2.38l11.56-4a4.49,4.49,0,0,0,1.8-.93A1.59,1.59,0,0,0,384.49,238.42Z"></path></g><g style="opacity:0.30000000000000004"><path d="M399,173.19c-3-1.44-6.52-1.63-9.89-1.54L382.31,179a8.47,8.47,0,0,1,4.09,6.47c.15,1.8-.27,3.68.33,5.38A4.81,4.81,0,0,0,391,194c1.95.07,3.72-1,5.34-2.13a28.48,28.48,0,0,0,5.62-4.44,9.59,9.59,0,0,0,2.71-6.45C404.6,177.59,402.07,174.64,399,173.19Z"></path></g><path d="M384.35,124.4l-.08-3.66-22.12-3.29c-6.8-.44-13.85,6.64-14,13.46-.17,7.56-.08,16.81,1.05,22.4,2.25,11.26,11,12.35,11,12.35v6.39A12.84,12.84,0,0,0,373,184.89h0a12.85,12.85,0,0,0,12.85-13.26Z" style="fill:#ffbe9d"></path><path d="M352.84,138.82a1.45,1.45,0,0,0,1.46,1.41,1.38,1.38,0,0,0,1.44-1.37,1.44,1.44,0,0,0-1.45-1.41A1.39,1.39,0,0,0,352.84,138.82Z" style="fill:#263238"></path><path d="M350.74,135.62c.19.18,1.26-.68,2.82-.74s2.74.68,2.9.48-.12-.42-.63-.76a4,4,0,0,0-2.33-.62,3.85,3.85,0,0,0-2.24.82C350.8,135.19,350.65,135.54,350.74,135.62Z" style="fill:#263238"></path><path d="M367.45,138.51a1.45,1.45,0,0,0,1.46,1.41,1.38,1.38,0,0,0,1.44-1.37,1.45,1.45,0,0,0-1.46-1.41A1.39,1.39,0,0,0,367.45,138.51Z" style="fill:#263238"></path><path d="M366.12,135.29c.18.18,1.25-.68,2.81-.74s2.74.68,2.91.48-.12-.42-.64-.77a3.92,3.92,0,0,0-2.33-.61,3.75,3.75,0,0,0-2.23.82C366.17,134.86,366,135.21,366.12,135.29Z" style="fill:#263238"></path><path d="M360.91,147.11a10.13,10.13,0,0,0-2.55-.36c-.4,0-.78-.09-.86-.35a2,2,0,0,1,.22-1.2l1-3.09c1.47-4.39,2.51-8,2.33-8.05s-1.51,3.45-3,7.85l-1,3.1a2.33,2.33,0,0,0-.14,1.58,1,1,0,0,0,.68.55,2.45,2.45,0,0,0,.68.07A10.15,10.15,0,0,0,360.91,147.11Z" style="fill:#263238"></path><path d="M360.2,165.69a30.07,30.07,0,0,0,15.39-4.7s-3.51,8.08-15.27,7.52Z" style="fill:#eb996e"></path><path d="M361.73,150.85a2.8,2.8,0,0,1,2.48-1.15,2.56,2.56,0,0,1,1.81.88,1.61,1.61,0,0,1,.2,1.86,1.88,1.88,0,0,1-2,.6,5.94,5.94,0,0,1-2.05-1.11,1.83,1.83,0,0,1-.47-.45.53.53,0,0,1,0-.58" style="fill:#eb996e"></path><path d="M365.56,148c-.26,0-.19,1.7-1.59,3s-3.22,1.15-3.22,1.39.41.31,1.18.3a4.27,4.27,0,0,0,2.69-1.06,3.72,3.72,0,0,0,1.22-2.48C365.88,148.4,365.67,148,365.56,148Z" style="fill:#263238"></path><path d="M365.46,129.18c.18.42,1.73.15,3.57.3s3.35.59,3.57.2c.1-.19-.17-.58-.78-1a6.29,6.29,0,0,0-5.44-.38C365.71,128.63,365.39,129,365.46,129.18Z" style="fill:#263238"></path><path d="M351.13,131.07c.29.35,1.35-.07,2.65-.13s2.4.14,2.64-.24c.1-.19-.09-.54-.58-.85a3.68,3.68,0,0,0-2.18-.5,3.75,3.75,0,0,0-2.08.8C351.14,130.53,351,130.91,351.13,131.07Z" style="fill:#263238"></path><path d="M345.24,117.18c1.82,4,5.91,9.86,10.25,10.29a12.81,12.81,0,0,0,11.4-5.13c.73,3.21,4.35,4.84,7.61,5.3a12.92,12.92,0,0,0,6.87-.62,6.84,6.84,0,0,0,4.25-5.15c.3-2.31-3.11-7.89-5.4-8.27" style="fill:#263238"></path><path d="M380.58,175.06a8.93,8.93,0,0,0,6.53,7.93,6.33,6.33,0,0,0,12.25,2.46,7.71,7.71,0,0,1,.9-2.15c1.11-1.4,3.28-1.12,5-1.67,3.06-1,4.39-4.76,4.05-8a7.13,7.13,0,0,1-.09-1.9c.19-1.29,1.19-2.27,1.94-3.33,3.09-4.37,1.8-10.72-1.62-14.84-1.14-1.37-2.58-2.8-2.47-4.58a9.29,9.29,0,0,1,1-2.81,8.1,8.1,0,0,0-2.19-8.83,2.57,2.57,0,0,1-.93-1.12,2.48,2.48,0,0,1,0-.94,9.47,9.47,0,0,0-8-10.1,2.14,2.14,0,0,1-.83-.19c-.73-.38-.75-1.38-.85-2.19-.25-2.16-1.92-6.18-3.57-7.59-4.57-3.9-9-.73-10.58.76,0,0-3.13,15.51-2.52,18.4s2.73,10.1,1.89,13.37-2.22,10-.9,12.92S380.58,175.06,380.58,175.06Z" style="fill:#263238"></path><path d="M397.68,125.16s-.2.2-.6.49a17.59,17.59,0,0,1-1.82,1.09,21.9,21.9,0,0,1-6.61,2.19,22.32,22.32,0,0,1-7,0,15.3,15.3,0,0,1-2.06-.45c-.48-.15-.74-.24-.73-.28s1.09.19,2.84.39a25.14,25.14,0,0,0,13.39-2.2C396.71,125.68,397.63,125.09,397.68,125.16Z" style="fill:#455a64"></path><path d="M399.17,126.26a4,4,0,0,1-.33.92,7.9,7.9,0,0,1-.5,1,12,12,0,0,1-.76,1.32,20.69,20.69,0,0,1-2.44,3.13,23.69,23.69,0,0,1-3.74,3.12,23,23,0,0,1-4.34,2.2,20.65,20.65,0,0,1-3.84,1c-.55.11-1.07.13-1.51.18a8,8,0,0,1-1.15,0,3.18,3.18,0,0,1-1-.06c0-.09,1.39-.07,3.58-.5a21.26,21.26,0,0,0,3.74-1.1,24.43,24.43,0,0,0,4.23-2.19,25.49,25.49,0,0,0,3.69-3,23.85,23.85,0,0,0,2.48-3C398.55,127.51,399.08,126.22,399.17,126.26Z" style="fill:#455a64"></path><path d="M391.06,183.89s.19,0,.54-.06a2.48,2.48,0,0,0,1.31-.78,3.33,3.33,0,0,0,.84-2.22,10.67,10.67,0,0,0-.58-3.22,7,7,0,0,1-.25-4.08,12,12,0,0,1,2.72-3.81,7.32,7.32,0,0,0,1.35-2,2.78,2.78,0,0,0-.07-2.34,5.28,5.28,0,0,0-1.76-1.86c-.73-.53-1.53-1-2.31-1.57a5,5,0,0,1-1.85-2.22,3.41,3.41,0,0,1,.29-2.8c.88-1.61,2.25-2.78,2.57-4.33a5.27,5.27,0,0,0-1.15-4.16,18.24,18.24,0,0,0-2.73-2.91,18.84,18.84,0,0,1-2.29-2.46,7.43,7.43,0,0,1-1.18-2.25,4.62,4.62,0,0,1-.18-1.6,2.3,2.3,0,0,1,.1-.55,5.88,5.88,0,0,0,.26,2.09,11.51,11.51,0,0,0,3.52,4.51A17.68,17.68,0,0,1,393,148.2a7.41,7.41,0,0,1,1.1,2,4.49,4.49,0,0,1,.17,2.47c-.37,1.73-1.8,2.95-2.59,4.45a2.94,2.94,0,0,0-.25,2.42,4.57,4.57,0,0,0,1.68,2c.75.55,1.55,1,2.31,1.56a5.84,5.84,0,0,1,1.9,2,3.24,3.24,0,0,1,.07,2.72A7.75,7.75,0,0,1,396,170a11.65,11.65,0,0,0-2.67,3.65,6.72,6.72,0,0,0,.19,3.86,10.85,10.85,0,0,1,.53,3.32,3.48,3.48,0,0,1-1,2.34,2.46,2.46,0,0,1-1.42.75A1.44,1.44,0,0,1,391.06,183.89Z" style="fill:#455a64"></path><polygon points="350.21 173.44 393.49 258.75 393.49 251.8 354.63 172.58 350.21 173.44" style="fill:#455a64"></polygon><path d="M393.8,275.41c.23,5.58.69,17.57.69,17.57h3.95V277.63l11.39-.09.15-5.44-13.52.42A2.77,2.77,0,0,0,393.8,275.41Z" style="fill:#e0e0e0"></path><path d="M406.68,277.54a1.94,1.94,0,0,1-.15,2.76s1.41,2.42,0,3.57c0,0,1.79,2.05,0,3.58s-7.83,2.37-9.71,1.66a3.38,3.38,0,0,1-1.15-.81,7.89,7.89,0,0,1-1.85-7.93l.16-.49s2.45,1.72,3.48-.27l1-2Z" style="fill:#ffbe9d"></path><path d="M394.42,283.93c.05-.07.63.4,1.68.91a9.5,9.5,0,0,0,8.74-.19c1-.55,1.59-1,1.64-1s-.43.63-1.46,1.29a8.8,8.8,0,0,1-9.09.19A4.1,4.1,0,0,1,394.42,283.93Z" style="fill:#eb996e"></path><path d="M406.51,280.42a11.43,11.43,0,0,1-1.69.38c-1,.2-2.46.61-4.1.84a8.66,8.66,0,0,1-4.23-.33,2.92,2.92,0,0,1-1.48-1c.05-.07.59.33,1.59.61a10.06,10.06,0,0,0,4,.17c1.59-.23,3-.58,4.11-.7A4.23,4.23,0,0,1,406.51,280.42Z" style="fill:#eb996e"></path><path d="M392,277.67s-2.18-2.76-1.79-5.19,1.53-2.68,2.94-2.68,8.43,1.79,8.43,1.79l-5.71,2.14s.6,4.76-1.57,4.63S392,277.67,392,277.67Z" style="fill:#ffbe9d"></path><path d="M395,273.11c-.15,0-.35-.66-.9-1.29s-1.18-.94-1.14-1.09.88,0,1.54.75S395.15,273.11,395,273.11Z" style="fill:#eb996e"></path></g><g id="freepik--Door--inject-102"><rect x="264.43" y="63.32" width="19.08" height="414.44" style="fill:#455a64"></rect><rect x="264.43" y="46.16" width="220.19" height="17.16" style="fill:#455a64"></rect><path d="M463.05,63.61c0,.14-40.26.26-89.9.26s-89.92-.12-89.92-.26,40.25-.26,89.92-.26S463.05,63.47,463.05,63.61Z" style="fill:#263238"></path><rect x="465.53" y="63.32" width="19.08" height="414.44" style="fill:#455a64"></rect><path d="M485.07,46.62c.1.11-4.19,4-9.57,8.69s-9.81,8.41-9.91,8.3,4.19-4,9.57-8.69S485,46.51,485.07,46.62Z" style="fill:#263238"></path><path d="M283.51,63.32c-.09.11-4.53-3.45-9.91-8S263.93,47.12,264,47s4.52,3.45,9.9,8S283.6,63.21,283.51,63.32Z" style="fill:#263238"></path><polygon points="409.91 55.12 409.91 489.97 417.56 489.97 465.53 477.76 465.53 63.32 417.01 55.12 409.91 55.12" style="fill:#455a64"></polygon><path d="M421.55,246.31v72.35l3.18-3.17V248.21Z" style="fill:#e0e0e0"></path><rect x="409.91" y="55.11" width="6.98" height="434.86" style="fill:#263238"></rect><path d="M465.53,476.2s0-.41,0-1.19,0-2,0-3.48c0-3.07,0-7.58-.05-13.38,0-11.63-.05-28.45-.08-49.22,0-41.57-.05-99-.08-162.38,0-73.24.08-138.45.1-179.76l.12.16-35.74-8.68-9.48-2.33-2.44-.6c-.55-.14-.82-.23-.82-.23l.83.18,2.45.57,9.5,2.24,35.78,8.53.12,0v.13c0,41.31.06,106.52.1,179.76,0,63.41-.05,120.81-.07,162.38,0,20.77-.07,37.59-.09,49.22,0,5.8,0,10.31-.05,13.38,0,1.52,0,2.69,0,3.48S465.53,476.2,465.53,476.2Z" style="fill:#263238"></path><path d="M438.78,275.41c-.23,5.58-.69,17.57-.69,17.57h-3.95V277.63l-11.4-.09-.15-5.44,13.52.42A2.78,2.78,0,0,1,438.78,275.41Z" style="fill:#e0e0e0"></path><path d="M447,128.85c0,1.23-.31,2.22-.69,2.22s-.7-1-.7-2.22.31-2.22.7-2.22S447,127.63,447,128.85Z" style="fill:#e0e0e0"></path></g><g id="freepik--Measures--inject-102"><path d="M119.14,129.29l-1,1v1.85h-1.68v-7.32h1.68v3.42l3.24-3.42h1.88l-3,3.26,3.21,4.06h-2Z" style="fill:#263238"></path><path d="M129.88,130.81v1.36h-5.67v-7.32h5.53v1.36h-3.85v1.59h3.4v1.32h-3.4v1.69Z" style="fill:#263238"></path><path d="M136.89,130.81v1.36h-5.67v-7.32h5.53v1.36h-3.84v1.59h3.39v1.32h-3.39v1.69Z" style="fill:#263238"></path><path d="M144.58,127.51c0,1.63-1.22,2.64-3.18,2.64h-1.47v2h-1.69v-7.32h3.16C143.36,124.85,144.58,125.86,144.58,127.51Zm-1.71,0c0-.81-.53-1.28-1.56-1.28h-1.38v2.54h1.38C142.34,128.77,142.87,128.3,142.87,127.51Z" style="fill:#263238"></path><path d="M152.36,129.58v2.59h-1.7v-2.62l-2.83-4.7h1.8l2,3.25,2-3.25h1.66Z" style="fill:#263238"></path><path d="M155.14,128.51a4,4,0,1,1,4,3.78A3.78,3.78,0,0,1,155.14,128.51Zm6.29,0a2.29,2.29,0,1,0-2.29,2.34A2.23,2.23,0,0,0,161.43,128.51Z" style="fill:#263238"></path><path d="M164.35,129v-4.1h1.7v4c0,1.39.6,2,1.63,2s1.63-.57,1.63-2v-4H171V129a3.32,3.32,0,1,1-6.63,0Z" style="fill:#263238"></path><path d="M177.32,132.17l-1.42-2h-1.55v2h-1.7v-7.32h3.17c2,0,3.18,1,3.18,2.66a2.39,2.39,0,0,1-1.51,2.31l1.64,2.35Zm-1.59-5.94h-1.38v2.55h1.38c1,0,1.55-.48,1.55-1.27S176.76,126.23,175.73,126.23Z" style="fill:#263238"></path><path d="M182.72,131.45l.57-1.28a4.32,4.32,0,0,0,2.42.76c1,0,1.41-.33,1.41-.78,0-1.37-4.26-.43-4.26-3.15,0-1.24,1-2.27,3.09-2.27a4.89,4.89,0,0,1,2.54.64l-.53,1.29a4,4,0,0,0-2-.58c-1,0-1.39.38-1.39.84,0,1.35,4.25.42,4.25,3.1,0,1.23-1,2.27-3.1,2.27A5.24,5.24,0,0,1,182.72,131.45Z" style="fill:#263238"></path><path d="M196.67,124.85v7.32H195v-3h-3.33v3H190v-7.32h1.69v2.89H195v-2.89Z" style="fill:#263238"></path><path d="M198,128.51a4,4,0,1,1,4,3.78A3.78,3.78,0,0,1,198,128.51Zm6.29,0a2.29,2.29,0,1,0-2.29,2.34A2.23,2.23,0,0,0,204.24,128.51Z" style="fill:#263238"></path><path d="M212.89,130.81v1.36h-5.66v-7.32h5.53v1.36h-3.85v1.59h3.4v1.32h-3.4v1.69Z" style="fill:#263238"></path><path d="M213.66,131.45l.58-1.28a4.31,4.31,0,0,0,2.41.76c1,0,1.42-.33,1.42-.78,0-1.37-4.26-.43-4.26-3.15,0-1.24,1-2.27,3.08-2.27a4.87,4.87,0,0,1,2.54.64l-.52,1.29a4.11,4.11,0,0,0-2-.58c-1,0-1.39.38-1.39.84,0,1.35,4.26.42,4.26,3.1,0,1.23-1,2.27-3.11,2.27A5.24,5.24,0,0,1,213.66,131.45Z" style="fill:#263238"></path><path d="M145.85,141.05a3.84,3.84,0,1,1,3.85,3.72A3.68,3.68,0,0,1,145.85,141.05Zm6.91,0a3.08,3.08,0,1,0-3.06,3A3,3,0,0,0,152.76,141.05Z" style="fill:#263238"></path><path d="M155.2,141.58v-4.19H156v4.16c0,1.74.81,2.53,2.23,2.53s2.25-.79,2.25-2.53v-4.16h.75v4.19c0,2.1-1.12,3.19-3,3.19S155.2,143.68,155.2,141.58Z" style="fill:#263238"></path><path d="M164.82,138.06h-2.57v-.67h5.92v.67h-2.58v6.65h-.77Z" style="fill:#263238"></path><path d="M168.58,143.82l.31-.6a3.54,3.54,0,0,0,2.41.89c1.37,0,2-.57,2-1.29,0-2-4.51-.78-4.51-3.48,0-1.08.84-2,2.7-2a4.14,4.14,0,0,1,2.27.65l-.27.61a3.78,3.78,0,0,0-2-.6c-1.34,0-1.94.59-1.94,1.33,0,2,4.51.79,4.51,3.46,0,1.07-.86,2-2.73,2A4,4,0,0,1,168.58,143.82Z" style="fill:#263238"></path><path d="M175.71,137.39h.77v7.32h-.77Z" style="fill:#263238"></path><path d="M178.87,137.39h3a3.67,3.67,0,1,1,0,7.32h-3ZM181.8,144a3,3,0,1,0,0-6h-2.16v6Z" style="fill:#263238"></path><path d="M192.67,144v.67H187.5v-7.32h5v.67h-4.25v2.6h3.79v.66h-3.79V144Z" style="fill:#263238"></path><path d="M210.83,53.6a26.56,26.56,0,0,0-40.45-5.34c-3.54,3.25-6.32,7.56-10.72,9.52-4.72,2.1-10.22,1-15.3,1.91-9.57,1.72-16.8,11.15-17.05,20.87a25,25,0,0,0,3.26,12.72,28,28,0,0,0,19.84,13.64c11.24,2,25.47.67,33.77-1.84,10.71-3.24,20.67-9.9,26.3-19.57S216.81,63.05,210.83,53.6Z" style="fill:#ebebeb"></path><path d="M197.8,70.76h0c-8,4.47-15,5-24.12-.7l-5.07,2.37S136.55,85.93,136.33,92l63.07-1.57-.32-15.9A6.41,6.41,0,0,0,197.8,70.76Z" style="fill:#FF725E"></path><path d="M189.23,78a2.56,2.56,0,0,1,1.85,2.89c-.42,2.11-4.06,3.24-4.81-.73a1,1,0,0,1,0-.48c.39-1.2,2.06-2.18,3.19-1.61" style="fill:#fff"></path><path d="M199.4,90.39l-.1-5-60.39,2.9s-2.48,1.75-2.58,3.64Z" style="fill:#263238"></path><path d="M167.85,72.72c0,.31,1.56.41,3.1,1.37s2.38,2.22,2.66,2.09-.23-1.89-2.11-3S167.77,72.44,167.85,72.72Z" style="fill:#fff"></path><path d="M161.3,75.62c-.06.31,1.28.8,2.36,2.07s1.42,2.65,1.72,2.63.46-1.77-.91-3.33S161.3,75.33,161.3,75.62Z" style="fill:#fff"></path><path d="M157.74,83.64c.28,0,.67-1.5-.16-3.16s-2.29-2.3-2.41-2,.78,1.13,1.45,2.51S157.43,83.61,157.74,83.64Z" style="fill:#fff"></path><path d="M169.3,73a5.09,5.09,0,0,0,2.71-.42,12.61,12.61,0,0,0,4.15-2.35,3.47,3.47,0,0,0,.72-.75,1.18,1.18,0,0,0-.09-1.43,1.47,1.47,0,0,0-1.25-.43,3.22,3.22,0,0,0-1,.29,9.27,9.27,0,0,0-1.6.83,9.45,9.45,0,0,0-2.26,2c-1.08,1.35-1.37,2.4-1.27,2.44s.62-.85,1.76-2a11,11,0,0,1,2.22-1.72,9.21,9.21,0,0,1,1.48-.71c.55-.24,1-.31,1.23-.08s.08.13,0,.31a3,3,0,0,1-.53.56c-.43.38-.88.72-1.31,1A14.88,14.88,0,0,1,171.77,72,19.71,19.71,0,0,0,169.3,73Z" style="fill:#fff"></path><path d="M169.7,73.33c.1,0,.49-1,.33-2.73a8.86,8.86,0,0,0-.81-2.91,9.36,9.36,0,0,0-.93-1.55A2.3,2.3,0,0,0,166.35,65a1.29,1.29,0,0,0-1,.92,4.1,4.1,0,0,0-.13,1,6.32,6.32,0,0,0,.27,1.83A6.47,6.47,0,0,0,167,71.45c1.27,1.24,2.42,1.4,2.43,1.3s-.93-.52-1.94-1.75a6.2,6.2,0,0,1-1.23-2.42,5.73,5.73,0,0,1-.19-1.57c0-.59.15-1.08.37-1.06s.79.32,1.08.75a8.64,8.64,0,0,1,.89,1.37,9.82,9.82,0,0,1,.93,2.63C169.69,72.28,169.55,73.31,169.7,73.33Z" style="fill:#fff"></path><path d="M195.66,85.39a32.42,32.42,0,0,1-.26-5.85,32.42,32.42,0,0,1,.26-5.85,33.56,33.56,0,0,1,.26,5.85A33.56,33.56,0,0,1,195.66,85.39Z" style="fill:#263238"></path><path d="M152.65,87.75a19.12,19.12,0,0,0-1.2-3.31,19,19,0,0,0-2.2-2.75,5,5,0,0,1,2.66,2.5A4.91,4.91,0,0,1,152.65,87.75Z" style="fill:#263238"></path><path d="M156.38,435l-2.24,6.86h-1.7l-1.51-4.65-1.56,4.65h-1.7L145.42,435h1.65l1.55,4.82,1.61-4.82h1.47l1.57,4.86,1.6-4.86Z" style="fill:#263238"></path><path d="M161.56,440.35h-3.18l-.61,1.47h-1.62l3-6.86h1.57l3.07,6.86h-1.67Zm-.5-1.21L160,436.52l-1.09,2.62Z" style="fill:#263238"></path><path d="M164,441.14l.53-1.2a4,4,0,0,0,2.27.72c.94,0,1.32-.31,1.32-.73,0-1.29-4-.41-4-2.95,0-1.17.94-2.14,2.89-2.14a4.58,4.58,0,0,1,2.38.61l-.49,1.2a3.87,3.87,0,0,0-1.9-.54c-.94,0-1.3.36-1.3.79,0,1.26,4,.39,4,2.91,0,1.14-.95,2.12-2.91,2.12A4.86,4.86,0,0,1,164,441.14Z" style="fill:#263238"></path><path d="M177.1,435v6.86h-1.59V439H172.4v2.82h-1.59V435h1.59v2.7h3.11V435Z" style="fill:#263238"></path><path d="M184.79,439.39v2.43h-1.58v-2.45L180.55,435h1.69l1.83,3.05L185.9,435h1.56Z" style="fill:#263238"></path><path d="M187.4,438.39a3.76,3.76,0,1,1,3.76,3.54A3.55,3.55,0,0,1,187.4,438.39Zm5.9,0a2.15,2.15,0,1,0-2.14,2.19A2.09,2.09,0,0,0,193.3,438.39Z" style="fill:#263238"></path><path d="M196.05,438.8V435h1.59v3.78c0,1.3.56,1.84,1.52,1.84s1.53-.54,1.53-1.84V435h1.57v3.84a3.11,3.11,0,1,1-6.21,0Z" style="fill:#263238"></path><path d="M208.2,441.82l-1.32-1.91h-1.46v1.91h-1.59V435h3c1.83,0,3,1,3,2.49a2.23,2.23,0,0,1-1.41,2.16l1.53,2.21Zm-1.49-5.57h-1.29v2.39h1.29c1,0,1.46-.45,1.46-1.19S207.68,436.25,206.71,436.25Z" style="fill:#263238"></path><path d="M138.22,450.15a3.45,3.45,0,0,1,3.6-3.49,3.31,3.31,0,0,1,2.5,1l-.46.46a2.68,2.68,0,0,0-2-.81,2.84,2.84,0,1,0,0,5.68,2.66,2.66,0,0,0,2-.82l.46.46a3.33,3.33,0,0,1-2.51,1A3.44,3.44,0,0,1,138.22,450.15Z" style="fill:#263238"></path><path d="M145.88,446.72h.72V453h3.84v.63h-4.56Z" style="fill:#263238"></path><path d="M150.91,450.15a3.6,3.6,0,1,1,3.6,3.49A3.45,3.45,0,0,1,150.91,450.15Zm6.47,0a2.88,2.88,0,1,0-2.87,2.84A2.77,2.77,0,0,0,157.38,450.15Z" style="fill:#263238"></path><path d="M161,447.35h-2.41v-.63h5.55v.63H161.7v6.23H161Z" style="fill:#263238"></path><path d="M171,446.72v6.86h-.72v-3.17H166v3.17h-.72v-6.86H166v3.06h4.29v-3.06Z" style="fill:#263238"></path><path d="M178.08,453v.63h-4.85v-6.86h4.71v.63h-4v2.44h3.55v.61H174V453Z" style="fill:#263238"></path><path d="M179.14,452.75l.28-.56a3.36,3.36,0,0,0,2.26.83c1.29,0,1.84-.54,1.84-1.21,0-1.89-4.22-.73-4.22-3.27,0-1,.79-1.88,2.53-1.88a3.92,3.92,0,0,1,2.13.61l-.25.58a3.55,3.55,0,0,0-1.88-.57c-1.25,0-1.81.56-1.81,1.24,0,1.88,4.22.75,4.22,3.25,0,1-.8,1.87-2.56,1.87A3.72,3.72,0,0,1,179.14,452.75Z" style="fill:#263238"></path><path d="M187.73,452.75l.29-.56a3.36,3.36,0,0,0,2.26.83c1.28,0,1.84-.54,1.84-1.21,0-1.89-4.22-.73-4.22-3.27,0-1,.78-1.88,2.53-1.88a3.88,3.88,0,0,1,2.12.61l-.24.58a3.57,3.57,0,0,0-1.88-.57c-1.26,0-1.82.56-1.82,1.24,0,1.88,4.23.75,4.23,3.25,0,1-.81,1.87-2.56,1.87A3.77,3.77,0,0,1,187.73,452.75Z" style="fill:#263238"></path><path d="M193.81,450.15a3.6,3.6,0,1,1,3.6,3.49A3.45,3.45,0,0,1,193.81,450.15Zm6.47,0a2.88,2.88,0,1,0-2.87,2.84A2.77,2.77,0,0,0,200.28,450.15Z" style="fill:#263238"></path><path d="M202,450.15a3.6,3.6,0,1,1,3.61,3.49A3.45,3.45,0,0,1,202,450.15Zm6.48,0a2.88,2.88,0,1,0-2.87,2.84A2.78,2.78,0,0,0,208.51,450.15Z" style="fill:#263238"></path><path d="M216.59,446.72v6.86H216L211.59,448v5.57h-.73v-6.86h.6l4.42,5.57v-5.57Z" style="fill:#263238"></path><path d="M224,364c-2.36-10-7.76-19.39-15.91-25.61s-19.13-9-29-6.23c-6.45,1.78-12.51,6.15-14.76,12.46-1.48,4.15-1.28,8.94-3.72,12.61-3.46,5.23-10.62,6.1-16.26,8.84-9.66,4.69-15.24,16.13-13.87,26.77s9.15,20,19,24.14c22.06,11.52,49.77,1.45,61.35-9.81C222.66,395.65,227.7,379.67,224,364Z" style="fill:#e0e0e0"></path><rect x="156.46" y="343.22" width="53.98" height="60.76" style="fill:#455a64"></rect><path d="M210.44,353.66c0,.14-12.16.26-27.15.26s-27.16-.12-27.16-.26,12.16-.26,27.16-.26S210.44,353.51,210.44,353.66Z" style="fill:#263238"></path><path d="M166.77,348.72c-.05,0-.06-.26-.19-.69a3,3,0,0,0-1.09-1.5,2.78,2.78,0,0,0-2.59-.35,2.71,2.71,0,0,0,0,5.08,2.78,2.78,0,0,0,2.59-.34,3.07,3.07,0,0,0,1.09-1.5c.13-.44.14-.7.19-.7a1.47,1.47,0,0,1,0,.75,2.93,2.93,0,0,1-1.06,1.74,3.1,3.1,0,0,1-3,.5,3.17,3.17,0,0,1,0-6,3.1,3.1,0,0,1,3,.51,2.9,2.9,0,0,1,1.06,1.74A1.42,1.42,0,0,1,166.77,348.72Z" style="fill:#263238"></path><path d="M183.29,351.67a16.18,16.18,0,0,1-.09-1.64c0-1-.08-2.48-.1-4.25l.19.19c-3.4,0-8,.07-13.15.07l.26-.26h0v3c0,1,0,1.94,0,2.86l-.25-.25c3.77,0,7,.07,9.36.12l2.75.07a7.94,7.94,0,0,1,1,.06,5.18,5.18,0,0,1-.93.06l-2.69.07c-2.33,0-5.65.1-9.53.11h-.24v-.25c0-.92,0-1.87,0-2.86v-3h0c0,.06.5-.49.26-.26,5.11,0,9.75,0,13.15.07h.19v.19c0,1.86-.07,3.35-.11,4.36A13.1,13.1,0,0,1,183.29,351.67Z" style="fill:#263238"></path><path d="M203.26,375.91a29.81,29.81,0,0,0-.67-4.43,17.57,17.57,0,0,0-2-4.81A18,18,0,0,0,178.88,359a17.17,17.17,0,0,0-4.55,2.45,21.06,21.06,0,0,0-2,1.74,19.74,19.74,0,0,0-1.77,2.09,17.93,17.93,0,0,0,0,21.26,20.91,20.91,0,0,0,1.76,2.09,19.56,19.56,0,0,0,2,1.74,16.81,16.81,0,0,0,4.56,2.45,18.07,18.07,0,0,0,21.67-7.67,17.57,17.57,0,0,0,2-4.81,29.81,29.81,0,0,0,.67-4.43,1.36,1.36,0,0,1,0,.3c0,.22,0,.51,0,.87a7.85,7.85,0,0,1-.12,1.41,12.32,12.32,0,0,1-.35,1.9,16.91,16.91,0,0,1-2,4.91,18.41,18.41,0,0,1-12.38,8.75,18.55,18.55,0,0,1-9.71-.78,17.37,17.37,0,0,1-4.68-2.5,22,22,0,0,1-2.1-1.78,20.76,20.76,0,0,1-1.82-2.14,18.41,18.41,0,0,1,0-21.87,20.88,20.88,0,0,1,1.82-2.15,20.5,20.5,0,0,1,2.1-1.77,17.13,17.13,0,0,1,4.68-2.51,18.44,18.44,0,0,1,9.71-.77,18.36,18.36,0,0,1,12.38,8.74,17.14,17.14,0,0,1,2,4.91,12.32,12.32,0,0,1,.35,1.9,7.88,7.88,0,0,1,.12,1.42c0,.35,0,.64,0,.87A1.29,1.29,0,0,1,203.26,375.91Z" style="fill:#263238"></path><circle cx="185.01" cy="375.91" r="13.85" style="fill:#e0e0e0"></circle><path d="M198.86,375.91a24.52,24.52,0,0,0-.53-3.36,13.78,13.78,0,0,0-5.05-7.5,13.5,13.5,0,0,0-5.75-2.53,13.72,13.72,0,0,0-7.15.61,12.79,12.79,0,0,0-3.44,1.86,12.54,12.54,0,0,0-2.88,2.89,13.55,13.55,0,0,0,0,16.07,12.74,12.74,0,0,0,2.88,2.89,12.61,12.61,0,0,0,3.44,1.85,13.73,13.73,0,0,0,18-9.42,24.28,24.28,0,0,0,.53-3.36,5.52,5.52,0,0,1,0,.89,6.48,6.48,0,0,1-.09,1.07,9.2,9.2,0,0,1-.25,1.45,14,14,0,0,1-10.92,10.41,14,14,0,0,1-7.4-.59,14,14,0,0,1-6.56-4.89,14,14,0,0,1,0-16.68,13.63,13.63,0,0,1,3-3,13.13,13.13,0,0,1,3.57-1.91,14.13,14.13,0,0,1,7.4-.58,14,14,0,0,1,10.92,10.41,8.91,8.91,0,0,1,.25,1.44,6.51,6.51,0,0,1,.09,1.08A5.35,5.35,0,0,1,198.86,375.91Z" style="fill:#263238"></path><rect x="200.97" y="374.89" width="4.91" height="3.33" rx="1.52" style="fill:#455a64"></rect><path d="M204.36,378.22c0-.05.2-.05.5-.19a1.44,1.44,0,0,0,.79-1,2.67,2.67,0,0,0,0-.93,1.37,1.37,0,0,0-.6-.77,2,2,0,0,0-1.14-.17h-1.4a1.28,1.28,0,0,0-1,.49,1.47,1.47,0,0,0-.27,1.08,1.33,1.33,0,0,0,1.14,1.31,8.08,8.08,0,0,1,2,.19,7.16,7.16,0,0,1-2.05.17,1.71,1.71,0,0,1-1.58-1.67,2,2,0,0,1,.34-1.39,1.79,1.79,0,0,1,1.41-.7h1.4a2.38,2.38,0,0,1,1.39.27A1.79,1.79,0,0,1,206,376a2.73,2.73,0,0,1,0,1.11,1.6,1.6,0,0,1-1.08,1.13C204.56,378.32,204.36,378.24,204.36,378.22Z" style="fill:#263238"></path><path d="M144.61,364.94l-14.92,16.78,8.31,7.46,4.91-6.1,3.39,25.08,29-3.56-4.75-27.11,6.61,4.57,5.42-9.15-19.49-10.85s-3.05,8.48-9,8.14S144.61,364.94,144.61,364.94Z" style="fill:#FF725E"></path><path d="M567.77,295.36h4.08c2.94,0,5,1.77,5,4.49s-2,4.49-5,4.49h-4.08Zm4,7.28a2.79,2.79,0,1,0,0-5.57h-1.9v5.57Z" style="fill:#263238"></path><path d="M578.37,295.36h2.08v9h-2.08Z" style="fill:#263238"></path><path d="M581.87,303.46l.71-1.57a5.26,5.26,0,0,0,3,.94c1.23,0,1.73-.41,1.73-1,0-1.69-5.22-.53-5.22-3.87,0-1.52,1.23-2.79,3.78-2.79A6,6,0,0,1,589,296l-.64,1.58a5,5,0,0,0-2.49-.71c-1.23,0-1.7.47-1.7,1,0,1.66,5.22.51,5.22,3.81,0,1.5-1.25,2.79-3.81,2.79A6.43,6.43,0,0,1,581.87,303.46Z" style="fill:#263238"></path><path d="M590.76,295.36h2.08v9h-2.08Z" style="fill:#263238"></path><path d="M603.2,295.36v9h-1.7L597,298.89v5.45H595v-9h1.72l4.47,5.45v-5.45Z" style="fill:#263238"></path><path d="M607.41,297v2.37h4.16v1.67h-4.16v3.27h-2.08v-9h6.79V297Z" style="fill:#263238"></path><path d="M620.48,302.67v1.67h-7v-9h6.78V297h-4.72v2h4.17v1.62h-4.17v2.07Z" style="fill:#263238"></path><path d="M621.54,299.85a4.95,4.95,0,0,1,8.57-3.05L628.78,298a2.89,2.89,0,0,0-2.26-1,2.87,2.87,0,0,0,0,5.74,2.84,2.84,0,0,0,2.26-1.06l1.33,1.23a4.93,4.93,0,0,1-8.57-3Z" style="fill:#263238"></path><path d="M633.28,297.05H630.4v-1.69h7.83v1.69h-2.87v7.29h-2.08Z" style="fill:#263238"></path><path d="M647.29,301.16v3.18h-2.08v-3.21l-3.48-5.77h2.21l2.4,4,2.4-4h2Z" style="fill:#263238"></path><path d="M650.7,299.85a4.92,4.92,0,1,1,4.91,4.65A4.64,4.64,0,0,1,650.7,299.85Zm7.72,0a2.81,2.81,0,1,0-2.81,2.87A2.74,2.74,0,0,0,658.42,299.85Z" style="fill:#263238"></path><path d="M662,300.39v-5h2.08v4.95c0,1.71.74,2.41,2,2.41s2-.7,2-2.41v-4.95h2v5c0,2.64-1.51,4.11-4.06,4.11S662,303,662,300.39Z" style="fill:#263238"></path><path d="M677.92,304.34l-1.74-2.5h-1.91v2.5h-2.08v-9h3.89c2.4,0,3.9,1.24,3.9,3.26a2.91,2.91,0,0,1-1.85,2.83l2,2.89ZM676,297.05h-1.7v3.13H676c1.27,0,1.91-.59,1.91-1.56S677.24,297.05,676,297.05Z" style="fill:#263238"></path><path d="M614.33,317.33c0,1.53-1.13,2.4-3.38,2.4h-4.13v-9h3.88c2,0,3.16.85,3.16,2.31a2.09,2.09,0,0,1-1.38,2A2.14,2.14,0,0,1,614.33,317.33Zm-6.56-5.8v3.26h2.86c1.44,0,2.28-.55,2.28-1.63s-.84-1.63-2.28-1.63Zm5.61,5.73c0-1.17-.86-1.68-2.44-1.68h-3.17V319h3.17C612.52,319,613.38,318.44,613.38,317.26Z" style="fill:#263238"></path><path d="M622.13,317.33h-5l-1.08,2.4h-1l4.1-9h.94l4.11,9h-1Zm-.35-.77-2.16-4.82-2.15,4.82Z" style="fill:#263238"></path><path d="M631.89,315.24h.91v3.43a4.94,4.94,0,0,1-3.3,1.14,4.57,4.57,0,1,1,0-9.14,4.43,4.43,0,0,1,3.34,1.3l-.59.6a3.79,3.79,0,1,0-2.72,6.39,3.89,3.89,0,0,0,2.35-.69Z" style="fill:#263238"></path><path d="M634.62,318.64l.37-.73a4.39,4.39,0,0,0,3,1.09c1.69,0,2.42-.7,2.42-1.59,0-2.46-5.53-1-5.53-4.27,0-1.32,1-2.47,3.31-2.47a5.07,5.07,0,0,1,2.78.8l-.32.76a4.64,4.64,0,0,0-2.46-.75c-1.65,0-2.38.73-2.38,1.63,0,2.47,5.53,1,5.53,4.25,0,1.32-1,2.45-3.35,2.45A4.84,4.84,0,0,1,634.62,318.64Z" style="fill:#263238"></path><path d="M674,229.9c4.72,29.86-23,49.93-57.86,49.93a54,54,0,0,1-54-54c0-29.81,20.25-58,49.85-54.54,24.23,2.82,22.71,17.7,31.25,29.14C652.38,212.71,670.27,206.65,674,229.9Z" style="fill:#ebebeb"></path><path d="M599.8,218.24s-6,5.74-2.69,15.29c2.65,7.65,9.81,25.69,12.75,33.11a3.18,3.18,0,0,0,4.11,1.8l24.46-9.38a3.19,3.19,0,0,0,1.81-4.18l-13.65-33.51a16.6,16.6,0,0,0-2.91-5c-1.82-2.11-4.68-4.3-8.36-3.6Z" style="fill:#FF725E"></path><path d="M598.78,212.92,597,205.16l-5.25-.73a4.51,4.51,0,0,1-3.74-3.11,2.36,2.36,0,0,1,0-1.39c.58-1.75,21.8-11.34,21.8-11.34l2.48,5.09-1.79,8.77L613,207.6Z" style="fill:#fafafa"></path><polygon points="609.82 188.59 613.74 186.75 615.31 189.33 612.29 193.68 609.82 188.59" style="fill:#FF725E"></polygon><polygon points="611.95 195.35 623.63 207.49 622.74 209 610.8 201.01 611.95 195.35" style="fill:#FF725E"></polygon><polygon points="598.41 212.74 599.56 218.49 616.45 212.64 613.24 207.34 598.41 212.74" style="fill:#263238"></polygon><rect x="615.69" y="233.22" width="2.79" height="12.49" transform="translate(-44.8 232.77) rotate(-20.63)" style="fill:#fff"></rect><rect x="615.69" y="233.22" width="2.79" height="12.49" transform="translate(610.38 901.35) rotate(-110.63)" style="fill:#fff"></rect><path d="M627.37,235.28a20.81,20.81,0,0,0-1.36-2.35,11,11,0,0,0-16.09-2,10.12,10.12,0,0,0-2,2.36,9.91,9.91,0,0,0-1.33,3,10.79,10.79,0,0,0,4.51,12,10.82,10.82,0,0,0,6.05,1.78,10.86,10.86,0,0,0,9.11-5.06,11.07,11.07,0,0,0,1.68-7,19.19,19.19,0,0,0-.53-2.67,8.49,8.49,0,0,1,.73,2.65,11.05,11.05,0,0,1-1.56,7.26,11.33,11.33,0,0,1-3.68,3.68,11.45,11.45,0,0,1-5.74,1.66,11.24,11.24,0,0,1-6.33-1.83,11.27,11.27,0,0,1-4.73-12.57,11.32,11.32,0,0,1,3.55-5.54,11.41,11.41,0,0,1,5.41-2.54,11.26,11.26,0,0,1,5.19.34,11.08,11.08,0,0,1,6,4.42A8.67,8.67,0,0,1,627.37,235.28Z" style="fill:#fff"></path><path d="M600.69,218.15a8.81,8.81,0,0,1-.84-2.86,8.58,8.58,0,0,1-.32-2.95,16.64,16.64,0,0,1,1.16,5.81Z" style="fill:#455a64"></path><path d="M602.66,217.42a11.76,11.76,0,0,1-.89-2.78,7.94,7.94,0,0,1-.48-2.89,9.12,9.12,0,0,1,1,2.76A6.63,6.63,0,0,1,602.66,217.42Z" style="fill:#455a64"></path><path d="M604.85,216.64a12.17,12.17,0,0,1-.89-2.78,7.94,7.94,0,0,1-.48-2.89,9.13,9.13,0,0,1,1,2.75A6.68,6.68,0,0,1,604.85,216.64Z" style="fill:#455a64"></path><path d="M607,215.85a11.76,11.76,0,0,1-.89-2.78,7.92,7.92,0,0,1-.48-2.89,9.26,9.26,0,0,1,1,2.76A6.63,6.63,0,0,1,607,215.85Z" style="fill:#455a64"></path><path d="M609.23,215.07a11.76,11.76,0,0,1-.89-2.78,7.94,7.94,0,0,1-.48-2.89,8.82,8.82,0,0,1,1,2.76A6.63,6.63,0,0,1,609.23,215.07Z" style="fill:#455a64"></path><path d="M611.42,214.28a11.5,11.5,0,0,1-.88-2.77,7.84,7.84,0,0,1-.49-2.89,8.7,8.7,0,0,1,1,2.75A6.64,6.64,0,0,1,611.42,214.28Z" style="fill:#455a64"></path><path d="M613.85,213.5a7.88,7.88,0,0,1-1.23-2.73,7.13,7.13,0,0,1-.59-2.94,11.46,11.46,0,0,1,1.09,2.78A9.84,9.84,0,0,1,613.85,213.5Z" style="fill:#455a64"></path><path d="M515.48,126.85H519c2.53,0,4.26,1.52,4.26,3.85s-1.73,3.86-4.26,3.86h-3.5Zm3.42,6.25a2.4,2.4,0,1,0,0-4.79h-1.63v4.79Z" style="fill:#263238"></path><path d="M524.1,130.7a4.23,4.23,0,1,1,4.22,4A4,4,0,0,1,524.1,130.7Zm6.63,0a2.42,2.42,0,1,0-2.41,2.47A2.35,2.35,0,0,0,530.73,130.7Z" style="fill:#263238"></path><path d="M541,126.85v7.71h-1.47l-3.84-4.68v4.68h-1.77v-7.71h1.48l3.83,4.68v-4.68Z" style="fill:#263238"></path><path d="M545.66,126.29h1.85l-2,1.58h-1.34Z" style="fill:#263238"></path><path d="M551,128.3h-2.47v-1.45h6.72v1.45h-2.47v6.26H551Z" style="fill:#263238"></path><path d="M560.93,128.3h-2.47v-1.45h6.72v1.45h-2.47v6.26h-1.78Z" style="fill:#263238"></path><path d="M565.54,130.7a4.23,4.23,0,1,1,4.22,4A4,4,0,0,1,565.54,130.7Zm6.64,0a2.42,2.42,0,1,0-2.42,2.47A2.35,2.35,0,0,0,572.18,130.7Z" style="fill:#263238"></path><path d="M575.26,131.17v-4.32h1.79v4.25c0,1.47.64,2.07,1.72,2.07s1.71-.6,1.71-2.07v-4.25h1.77v4.32a3.5,3.5,0,1,1-7,0Z" style="fill:#263238"></path><path d="M583.53,130.7a4.25,4.25,0,0,1,7.36-2.62l-1.15,1.06a2.5,2.5,0,0,0-1.94-.9,2.47,2.47,0,1,0,0,4.93,2.48,2.48,0,0,0,1.94-.91l1.15,1.06a4.24,4.24,0,0,1-7.36-2.62Z" style="fill:#263238"></path><path d="M599.16,126.85v7.71h-1.78V131.4h-3.51v3.16h-1.78v-7.71h1.78v3h3.51v-3Z" style="fill:#263238"></path><path d="M609.19,132.91h-3.58l-.68,1.65H603.1l3.44-7.71h1.76l3.45,7.71h-1.88Zm-.56-1.36-1.22-3-1.23,3Z" style="fill:#263238"></path><path d="M619.63,126.85v7.71h-1.47l-3.84-4.68v4.68h-1.77v-7.71H614l3.83,4.68v-4.68Z" style="fill:#263238"></path><path d="M625.16,131.83v2.73h-1.79v-2.75l-3-5h1.89l2.06,3.43,2.06-3.43h1.76Z" style="fill:#263238"></path><path d="M630.36,128.3h-2.47v-1.45h6.72v1.45h-2.46v6.26h-1.79Z" style="fill:#263238"></path><path d="M642.65,126.85v7.71h-1.79V131.4h-3.5v3.16h-1.79v-7.71h1.79v3h3.5v-3Z" style="fill:#263238"></path><path d="M644.48,126.85h1.78v7.71h-1.78Z" style="fill:#263238"></path><path d="M655.17,126.85v7.71H653.7l-3.84-4.68v4.68h-1.77v-7.71h1.48l3.83,4.68v-4.68Z" style="fill:#263238"></path><path d="M662.21,130.58h1.63v3.13a5.33,5.33,0,0,1-3.12,1,4,4,0,1,1,0-8,4.11,4.11,0,0,1,3.23,1.33l-1.14,1.06a2.62,2.62,0,0,0-2-.87,2.47,2.47,0,1,0,0,4.93,2.87,2.87,0,0,0,1.39-.33Z" style="fill:#263238"></path><path d="M551.37,140.07h.82v7.71h-.82Z" style="fill:#263238"></path><path d="M561.15,140.07v7.71h-.68l-5-6.25v6.25h-.82v-7.71h.67l5,6.26v-6.26Z" style="fill:#263238"></path><path d="M565.16,140.78h-2.71v-.71h6.23v.71H566v7h-.81Z" style="fill:#263238"></path><path d="M576.43,140.07v7.71h-.8v-3.55H570.8v3.55H570v-7.71h.82v3.44h4.83v-3.44Z" style="fill:#263238"></path><path d="M584.4,147.08v.7h-5.46v-7.71h5.29v.71h-4.47v2.74h4v.7h-4v2.86Z" style="fill:#263238"></path><path d="M595.65,140.07v7.71h-.81v-3.55H590v3.55h-.82v-7.71H590v3.44h4.82v-3.44Z" style="fill:#263238"></path><path d="M597.48,143.93a4.05,4.05,0,1,1,4,3.92A3.88,3.88,0,0,1,597.48,143.93Zm7.28,0a3.24,3.24,0,1,0-3.23,3.19A3.13,3.13,0,0,0,604.76,143.93Z" style="fill:#263238"></path><path d="M607.34,144.49v-4.42h.82v4.39c0,1.83.86,2.66,2.35,2.66s2.37-.83,2.37-2.66v-4.39h.8v4.42c0,2.22-1.19,3.36-3.17,3.36S607.34,146.71,607.34,144.49Z" style="fill:#263238"></path><path d="M615.4,146.85l.32-.63a3.78,3.78,0,0,0,2.54.94c1.44,0,2.07-.61,2.07-1.37,0-2.11-4.75-.81-4.75-3.67,0-1.13.89-2.11,2.85-2.11a4.35,4.35,0,0,1,2.39.68l-.28.65a4,4,0,0,0-2.11-.64c-1.41,0-2,.63-2,1.4,0,2.12,4.75.84,4.75,3.65,0,1.13-.91,2.1-2.88,2.1A4.2,4.2,0,0,1,615.4,146.85Z" style="fill:#263238"></path><path d="M628.37,147.08v.7h-5.46v-7.71h5.29v.71h-4.47v2.74h4v.7h-4v2.86Z" style="fill:#263238"></path><path d="M625.64,62.87c-2.25-9.52-7.4-18.5-15.17-24.43S592.23,29.9,582.8,32.5c-6.15,1.7-11.94,5.87-14.08,11.89-1.41,4-1.22,8.52-3.54,12-3.31,5-10.13,5.81-15.51,8.43-9.21,4.47-14.54,15.38-13.23,25.53s8.72,19.06,18.16,23c21,11,47.46,1.38,58.51-9.35C624.37,93.09,629.18,77.84,625.64,62.87Z" style="fill:#e0e0e0"></path><path d="M595.1,86.78s-4.7-.43-6.94-2.82-11.61-18.81-11.61-18.81,1.91-1.67,4.81.86a78.29,78.29,0,0,1,6.06,6.62s-2.54-10.71-3.4-14.38c-.76-3.22-1.73-8.15-.2-9s3.12,5.38,4.32,7.85,2.82,6,2.82,6c0,.21-2.72-12.78-2.51-16.45.16-2.68,3.49-2,3.92,1,0,0,.89-3.21,2.57-1.16s4.18,14.7,5,14.38-.61-10.71.65-11.83c.71-.63,1.84.24,2.34,2.86s4,22.42,3.88,25.24a6.63,6.63,0,0,1-1.19,3.93Z" style="fill:#ffbe9d"></path><path d="M592.27,47.22c-.18,0,.29,3.69,1,8.19s1.9,8.06,2.09,8-.64-3.64-1.38-8.12S592.48,47.17,592.27,47.22Z" style="fill:#eb996e"></path><polygon points="590.85 84.3 593.82 107.52 609.13 103.35 604.96 78.26 590.85 84.3" style="fill:#ffbe9d"></polygon><path d="M593,115.39l-2.17-20.88L608,90.68l4.22,14.41A51.48,51.48,0,0,1,593,115.39Z" style="fill:#455a64"></path><rect x="563.58" y="69.71" width="8.01" height="35.91" transform="translate(139.24 -294.9) rotate(32.99)" style="fill:#FF725E"></rect><rect x="563.58" y="69.71" width="8.01" height="35.91" transform="translate(185.01 516) rotate(-57.01)" style="fill:#FF725E"></rect><path d="M121.36,282.92,118.7,291h-2l-1.78-5.5-1.85,5.5h-2l-2.67-8.12h2l1.83,5.7,1.91-5.7h1.74l1.86,5.75,1.89-5.75Z" style="fill:#263238"></path><path d="M127.48,289.3h-3.77L123,291h-1.93l3.62-8.12h1.86l3.63,8.12h-2Zm-.59-1.43-1.29-3.11-1.29,3.11Z" style="fill:#263238"></path><path d="M130.37,290.24l.64-1.42a4.8,4.8,0,0,0,2.68.85c1.11,0,1.57-.37,1.57-.87,0-1.52-4.72-.48-4.72-3.49,0-1.38,1.11-2.53,3.42-2.53a5.37,5.37,0,0,1,2.81.72l-.57,1.43a4.62,4.62,0,0,0-2.25-.64c-1.12,0-1.55.41-1.55.93,0,1.49,4.72.46,4.72,3.44,0,1.36-1.12,2.52-3.44,2.52A5.85,5.85,0,0,1,130.37,290.24Z" style="fill:#263238"></path><path d="M145.85,282.92V291H144v-3.33h-3.68V291h-1.88v-8.12h1.88v3.2H144v-3.2Z" style="fill:#263238"></path><path d="M155,288.16V291h-1.88v-2.9l-3.14-5.22h2l2.17,3.61,2.16-3.61h1.85Z" style="fill:#263238"></path><path d="M158,287a4.45,4.45,0,1,1,4.44,4.2A4.2,4.2,0,0,1,158,287Zm7,0a2.54,2.54,0,1,0-2.54,2.6A2.47,2.47,0,0,0,165,287Z" style="fill:#263238"></path><path d="M168.26,287.47v-4.55h1.88v4.47c0,1.55.67,2.19,1.81,2.19s1.81-.64,1.81-2.19v-4.47h1.85v4.55a3.68,3.68,0,1,1-7.35,0Z" style="fill:#263238"></path><path d="M182.64,291l-1.57-2.27h-1.72V291h-1.88v-8.12H181c2.17,0,3.53,1.12,3.53,2.94a2.66,2.66,0,0,1-1.67,2.57l1.82,2.61Zm-1.76-6.59h-1.53v2.83h1.53c1.15,0,1.73-.53,1.73-1.42S182,284.45,180.88,284.45Z" style="fill:#263238"></path><path d="M132.75,296.83V305h-.85V301.2h-5.08V305H126v-8.12h.86v3.62h5.08v-3.62Z" style="fill:#263238"></path><path d="M140.48,302.78H136L135,305h-.89l3.71-8.12h.85l3.71,8.12h-.91Zm-.31-.69-1.95-4.37-1.95,4.37Z" style="fill:#263238"></path><path d="M150.48,296.83V305h-.7l-5.22-6.59V305h-.86v-8.12h.71l5.23,6.59v-6.59Z" style="fill:#263238"></path><path d="M153.13,296.83h3.3a4.07,4.07,0,1,1,0,8.12h-3.3Zm3.26,7.38a3.33,3.33,0,1,0,0-6.64H154v6.64Z" style="fill:#263238"></path><path d="M161.93,304l.33-.66a4,4,0,0,0,2.68,1c1.52,0,2.18-.64,2.18-1.44,0-2.23-5-.86-5-3.86,0-1.2.93-2.23,3-2.23a4.6,4.6,0,0,1,2.51.72l-.29.69a4.11,4.11,0,0,0-2.22-.68c-1.49,0-2.15.66-2.15,1.48,0,2.22,5,.88,5,3.83,0,1.2-.95,2.22-3,2.22A4.36,4.36,0,0,1,161.93,304Z" style="fill:#263238"></path><path d="M199.61,213.22a36,36,0,0,0-44.88-32.14c-6.3,1.63-12.37,5-18.86,4.54-7-.51-12.83-5.32-19.48-7.47-12.52-4.05-27.16,2.61-33.65,14.06a33.68,33.68,0,0,0-4.21,16.7c0,11.61,5.91,22.42,15.08,29.54,12.18,9.45,29.92,17,41.4,19.24,14.84,2.95,31,1.35,43.85-6.6S200.73,228.32,199.61,213.22Z" style="fill:#e0e0e0"></path><path d="M132.92,200.07l19.25,34.32,35.91-16.79c12.87-8,10.52-17.41.72-27.49a34.89,34.89,0,0,0-14.28-8.48Z" style="fill:#FF725E"></path><path d="M99.1,266.35a5.56,5.56,0,0,0,7.35-.47,4.81,4.81,0,0,1,1.18,3.43,16.3,16.3,0,0,0,.21,3.7,3.05,3.05,0,0,0,2.48,2.44,2.89,2.89,0,0,0,2.57-1.63,8.58,8.58,0,0,0,.78-3.1c.25-2.06.51-4.13.76-6.19.53.88,1.27,1.87,2.3,1.81,1.25-.08,1.8-1.63,1.87-2.88s.07-2.74,1.11-3.44c.26,1,1.72,1.06,2.43.38a3.74,3.74,0,0,0,.84-2.75,6.45,6.45,0,0,1,.37-2.91l-10.17.7Z" style="fill:#fafafa"></path><path d="M88.5,217.47a3.87,3.87,0,0,1,2.74-1.66c1.76-.22,4.59-.59,6.05-.93,2.21-.51,14-6.13,16.43-7.24s8.44-1.79,10-1.62,12.33-.68,12.33-.68l18.07,20.79s-5.89,16.14-14.42,20.34a179.17,179.17,0,0,0-17.13,9.93L116,257.68s-12.61,9.42-15.92,8.78-4.09-2-4.09-2-4.08,2.34-6.23.25,0-5.22,0-5.22-3.3-.38-3.68-1.91a6.56,6.56,0,0,1,1.66-6c1.9-2.17,15-16.43,17.82-18.33s4.45-5.48,5.09-7.52-1.27-5.09-4.84-3.43-7.56,2.56-10.44,2.07C91.13,223.63,85.11,222.4,88.5,217.47Z" style="fill:#ffbe9d"></path><path d="M122,245.34c0,.06-.55-.11-1.47-.22a7.93,7.93,0,0,0-3.76.45l-.23.09-.1-.23a6.76,6.76,0,0,0-3.32-3.8,4.33,4.33,0,0,0-2.83-.13l-.49.16.14-.48a5.09,5.09,0,0,0-.13-2.91,10,10,0,0,0-1-2.15,13.29,13.29,0,0,0-1-1.28c-.24-.29-.38-.41-.37-.44s.76.41,1.6,1.53a9,9,0,0,1,1.21,2.19,5.44,5.44,0,0,1,.21,3.21l-.36-.33a4.68,4.68,0,0,1,3.23.1,5.64,5.64,0,0,1,2.32,1.85,9.8,9.8,0,0,1,1.24,2.3l-.32-.13a7.44,7.44,0,0,1,4-.28A3.83,3.83,0,0,1,122,245.34Z" style="fill:#eb996e"></path><path d="M109.73,241.2a33.7,33.7,0,0,1-3,2.58c-1.86,1.56-4.41,3.76-7.1,6.32s-5,5-6.68,6.77a31.08,31.08,0,0,1-2.73,2.85,4.48,4.48,0,0,1,.6-.88c.42-.54,1-1.31,1.83-2.24a93.92,93.92,0,0,1,6.59-6.91c2.71-2.57,5.31-4.73,7.24-6.22,1-.74,1.77-1.33,2.34-1.71A3.73,3.73,0,0,1,109.73,241.2Z" style="fill:#eb996e"></path><path d="M117.12,245.6a4.44,4.44,0,0,1-.85.71l-2.42,1.78c-2.06,1.49-4.89,3.54-7.94,5.92a56.23,56.23,0,0,0-7.4,6.5,21.61,21.61,0,0,0-2.29,3.37,3,3,0,0,1,.36-1.05,12.54,12.54,0,0,1,1.62-2.57,46.19,46.19,0,0,1,7.36-6.7c3.06-2.39,6-4.39,8.06-5.8,1.06-.71,1.92-1.26,2.53-1.63A4.34,4.34,0,0,1,117.12,245.6Z" style="fill:#eb996e"></path><path d="M125.05,246.15a4.73,4.73,0,0,1-1,.84,27.19,27.19,0,0,1-2.9,1.9,31.51,31.51,0,0,1-4.68,2.16,37.78,37.78,0,0,1-6.09,1.6,5.78,5.78,0,0,0-2.76,1.31,2.8,2.8,0,0,0-.87,2.51,3.45,3.45,0,0,0,1.26,2.15,4.67,4.67,0,0,0,2.07.9,6.77,6.77,0,0,0,3.31-.35,12.29,12.29,0,0,1,1.19-.42,3.38,3.38,0,0,1-1.11.63,6.54,6.54,0,0,1-3.45.53,4.81,4.81,0,0,1-2.29-.92,3.85,3.85,0,0,1-1.49-2.44,3.28,3.28,0,0,1,1-3,6.16,6.16,0,0,1,3-1.46,41.32,41.32,0,0,0,6-1.54,34.62,34.62,0,0,0,4.66-2C123.56,247.18,125,246.07,125.05,246.15Z" style="fill:#eb996e"></path><path d="M110.08,242a2.11,2.11,0,0,1-1.24,2.13,2.72,2.72,0,0,1-2.51-.14c-.52-.32-1-.81-1.61-.78s-1.19.65-1.83.56a1.25,1.25,0,0,1-.91-1.48,3.13,3.13,0,0,1,1.33-1.65,4.66,4.66,0,0,1,3.36-1C108.72,239.85,109.88,241,110.08,242Z" style="fill:#fafafa"></path><path d="M147.64,212.8a6,6,0,0,0-6.49-2.18,6.64,6.64,0,0,0-2.6-7c-2.24-1.39-5.71-.58-6.68,1.88a5.18,5.18,0,0,0-9.24,3.53s-4.62-3.71-7.9,1a13.17,13.17,0,0,0,7.43,2.17,6.81,6.81,0,0,0,4.51,6.2c4.5,1.58,6.7-1,6.7-1s.87,6.26,4.64,5.75l9.12-3.32.53-.25A6,6,0,0,0,147.64,212.8Zm-10.73-9.17a.45.45,0,0,1,.45.45.46.46,0,0,1-.45.46.47.47,0,0,1-.46-.46A.46.46,0,0,1,136.91,203.63Zm-1.56,3.09a.46.46,0,0,1-.45-.46.45.45,0,0,1,.9,0A.46.46,0,0,1,135.35,206.72Zm.06-1.35a.83.83,0,0,1-.83-.83.83.83,0,1,1,1.66,0A.83.83,0,0,1,135.41,205.37Zm1.71,4.74a.84.84,0,0,1,0-1.67.84.84,0,1,1,0,1.67Zm.65-2.24a1.67,1.67,0,1,1,1.67-1.67A1.67,1.67,0,0,1,137.77,207.87Zm2.18,6.47a.83.83,0,0,1,0-1.66.83.83,0,1,1,0,1.66Zm1.47-1.56a.46.46,0,0,1-.45-.46.45.45,0,0,1,.45-.45.46.46,0,0,1,.46.45A.47.47,0,0,1,141.42,212.78Zm1.93,1.92a1.19,1.19,0,1,1,1.18-1.19A1.19,1.19,0,0,1,143.35,214.7Zm1.55.72a.46.46,0,0,1-.46-.45.47.47,0,0,1,.46-.46.46.46,0,0,1,.45.46A.45.45,0,0,1,144.9,215.42Z" style="fill:#fafafa"></path><path d="M138.38,240.73a3.46,3.46,0,0,0-2.79-.87,10.54,10.54,0,0,0-2.88.88,4.22,4.22,0,0,0-8.05.09,4.5,4.5,0,0,0-3.42-.62,3.33,3.33,0,0,0-2.44,2.37,2.64,2.64,0,0,0,1.43,3,13.07,13.07,0,0,0,2.16.41c.71.17,1.45.73,1.38,1.46a2.91,2.91,0,0,1-.66,1.25,3.29,3.29,0,0,0,.67,4.14l-1.61,1c-.81,1.71.63,2.89,2.5,3.24a3.27,3.27,0,0,0,3.69-3.27,5.79,5.79,0,0,0,6.17-.94,4.26,4.26,0,0,0,.15-5.92,6.14,6.14,0,0,0,3.75-2.15A3.23,3.23,0,0,0,138.38,240.73Zm-5.78,10.2a.32.32,0,1,1-.32.32A.32.32,0,0,1,132.6,250.93Zm-1.82-11.33a1.12,1.12,0,1,1-1.12,1.12A1.12,1.12,0,0,1,130.78,239.6Zm-2.28-.32a.43.43,0,1,1-.42.43A.43.43,0,0,1,128.5,239.28Zm-2.75,16.79a1.18,1.18,0,1,1,1.17-1.17A1.17,1.17,0,0,1,125.75,256.07ZM128,253a.64.64,0,0,1-.64-.64.64.64,0,1,1,1.28,0A.64.64,0,0,1,128,253Zm.6-10.82a.74.74,0,1,1,.73-.74A.74.74,0,0,1,128.56,242.19Zm1.88,10.57a1.28,1.28,0,1,1,1.28-1.28A1.28,1.28,0,0,1,130.44,252.76Zm2,.58a.64.64,0,0,1-.64-.64.64.64,0,1,1,.64.64Zm1.24-.71a.32.32,0,0,1-.32-.32.32.32,0,1,1,.64,0A.32.32,0,0,1,133.67,252.63Zm1.18-10.4a.78.78,0,1,1,.77-.78A.78.78,0,0,1,134.85,242.23Zm1.14-1.17a.38.38,0,0,1-.37-.38.38.38,0,0,1,.75,0A.38.38,0,0,1,136,241.06Z" style="fill:#fafafa"></path><path d="M128.17,231.89a4.41,4.41,0,0,0-.59-2.64c-.55-.73-1.82-1-2.34-.23a3.13,3.13,0,0,0-4.62-3.89,3.21,3.21,0,0,0-5.77,2.75,3.85,3.85,0,0,0-3.37,4.92s-3.07.72-1.75,2.7,8,1.19,8,1.19-1.88,1.77,1.08,2.15a6.53,6.53,0,0,0,5.1-1.83s3.89-.21,4.76-.92S128.17,231.89,128.17,231.89Zm-15.78-1.33a.22.22,0,0,1,.22.22.21.21,0,0,1-.22.21.21.21,0,0,1-.21-.21A.21.21,0,0,1,112.39,230.56Zm.06,1.66a.44.44,0,1,1,0-.87.44.44,0,0,1,0,.87Zm1.31-.58a1.07,1.07,0,1,1,0-2.13,1.07,1.07,0,0,1,0,2.13Zm8.84-2.91a.45.45,0,1,1,.44-.44A.45.45,0,0,1,122.6,228.73Zm-.32-2.15a1.07,1.07,0,1,1,1.07,1.06A1.07,1.07,0,0,1,122.28,226.58Zm1.76,2.5a.62.62,0,1,1,.62-.62A.62.62,0,0,1,124,229.08Z" style="fill:#fafafa"></path><path d="M174.74,209.35l7,25.61s-15.4,12.28-16.31,13a5.62,5.62,0,0,1-3.15,1.48c-.84-.07-2.25-1.06-3.3-1.34s-3.58-.56-4.28-.21a16.85,16.85,0,0,1-5.4,1.55c-2.38.21-7.29,3.78-9.75,2.24a5.32,5.32,0,0,1-2.64-3.67s4.87-1.95,5.58-3.24,4.36-6.84,4.78-8.1a31.76,31.76,0,0,0,.56-5.26s-6.81.07-8.14.56-2.52,1.46-5.05,2.38-7.36,1.68-8.2,0-1-3.67-.71-4.2c0,0,5.19-5.68,6.32-6.52s14.59-7.23,17.53-8.77,13.77-9.14,25.11-5.56" style="fill:#ffbe9d"></path><path d="M174.74,209.35a1.27,1.27,0,0,1-.26,0l-.75-.17c-.34-.08-.74-.19-1.23-.29l-1.73-.23a25.72,25.72,0,0,0-11.09,1.54,43.27,43.27,0,0,0-7.25,3.37c-2.48,1.53-5.36,2.89-8.36,4.37s-6.21,3-9.54,4.72a21.65,21.65,0,0,0-2.42,1.36c-.7.61-1.37,1.32-2.05,2q-2,2.12-4.08,4.37l0,0a2.94,2.94,0,0,0-.07,1.35,8.35,8.35,0,0,0,.34,1.48c.08.25.17.48.27.72s.11.23.16.35.13.17.18.26a2.26,2.26,0,0,0,1.3.54,10.92,10.92,0,0,0,3.17-.09,18.34,18.34,0,0,0,3.17-.78,21.21,21.21,0,0,0,3-1.38c.5-.27,1-.55,1.54-.8a4.83,4.83,0,0,1,1.73-.46c2.33-.26,4.67-.31,7-.35h.29v.3a39.16,39.16,0,0,1-.4,4.61,4.21,4.21,0,0,1-.37,1.19c-.18.37-.38.72-.57,1.07-.4.69-.81,1.38-1.23,2.06-.54.86-1.07,1.71-1.59,2.56l-.79,1.27-.38.64a2.66,2.66,0,0,1-.52.64,13.69,13.69,0,0,1-2.57,1.6c-.88.44-1.77.84-2.68,1.21l.18-.28a5,5,0,0,0,1.87,3,3.1,3.1,0,0,0,1.54.78,5.87,5.87,0,0,0,1.76-.14,23.07,23.07,0,0,0,3.45-1.27,13.79,13.79,0,0,1,3.54-1.19,15.36,15.36,0,0,0,3.43-.77,16.58,16.58,0,0,0,1.62-.65,3.75,3.75,0,0,1,1.84-.27,10.9,10.9,0,0,1,3.48.62c.54.24,1,.51,1.54.74a2.29,2.29,0,0,0,1.46.32,7,7,0,0,0,2.75-1.53l2.52-2,4.83-3.86,8.79-7-.07.21c-2.13-7.91-3.86-14.32-5.07-18.77-.58-2.2-1-3.91-1.35-5.11l-.33-1.33a2.3,2.3,0,0,1-.1-.46,3,3,0,0,1,.15.45c.1.32.23.75.39,1.31.34,1.19.83,2.9,1.46,5.08,1.24,4.44,3,10.83,5.24,18.72l0,.13-.1.08-8.75,7L168.35,246l-2.51,2a7.46,7.46,0,0,1-3,1.65,2,2,0,0,1-1,0,6.65,6.65,0,0,1-.82-.32c-.52-.25-1-.51-1.53-.73a10.48,10.48,0,0,0-3.3-.57,3.18,3.18,0,0,0-1.59.22,14.92,14.92,0,0,1-1.67.67,15.74,15.74,0,0,1-3.56.81,13.69,13.69,0,0,0-3.38,1.16,23.48,23.48,0,0,1-3.53,1.29,5.87,5.87,0,0,1-2,.16,3.65,3.65,0,0,1-1.81-.9,5.47,5.47,0,0,1-2.08-3.37l0-.2.2-.09q1.34-.54,2.64-1.2a12.8,12.8,0,0,0,2.44-1.51,2,2,0,0,0,.41-.5l.39-.65.79-1.28,1.58-2.55c.42-.69.83-1.37,1.22-2.05a5.88,5.88,0,0,0,.88-2.08,39.05,39.05,0,0,0,.4-4.53l.28.29c-2.36,0-4.71.09-7,.34a4.16,4.16,0,0,0-1.57.42c-.51.23-1,.51-1.51.78a21.25,21.25,0,0,1-3.12,1.4,17.93,17.93,0,0,1-3.27.8,11.27,11.27,0,0,1-3.33.09,2.85,2.85,0,0,1-1.6-.7,2.79,2.79,0,0,1-.44-.77,7.87,7.87,0,0,1-.29-.76,8.8,8.8,0,0,1-.36-1.58,3.08,3.08,0,0,1,.15-1.7h0l0,0q2.07-2.25,4.11-4.37c.69-.7,1.35-1.4,2.1-2.05a21.14,21.14,0,0,1,2.51-1.41c3.35-1.68,6.56-3.22,9.57-4.68s5.86-2.79,8.36-4.31a43.68,43.68,0,0,1,7.34-3.34,25.5,25.5,0,0,1,11.21-1.41l1.73.28c.49.11.9.24,1.23.32l.74.22Z" style="fill:#eb996e"></path><path d="M135.87,228.86c-.17,0-.34-1-.82-2.12s-1.09-1.94-1-2.05,1,.6,1.49,1.83A3.1,3.1,0,0,1,135.87,228.86Z" style="fill:#eb996e"></path><path d="M159,243.34a4.87,4.87,0,0,1-.86,1.54,11.08,11.08,0,0,1-3,3.08,9.06,9.06,0,0,1-4,1.47,3.94,3.94,0,0,1-1.77,0,8.81,8.81,0,0,1,1.71-.37,10.53,10.53,0,0,0,3.78-1.55,13.92,13.92,0,0,0,3-2.85C158.5,243.81,158.94,243.29,159,243.34Z" style="fill:#eb996e"></path><path d="M147.4,227a6.51,6.51,0,0,1,.36,5.54,18.28,18.28,0,0,1-.13-2.78A16.77,16.77,0,0,1,147.4,227Z" style="fill:#eb996e"></path><path d="M145.7,228.47c.08-.12.86.27,1.36,1.18s.44,1.78.29,1.78-.34-.72-.78-1.5S145.61,228.6,145.7,228.47Z" style="fill:#eb996e"></path><path d="M127.89,234.57c0-.08.34-.33.82-.85a3.76,3.76,0,0,0,1.08-2.38,2.65,2.65,0,0,0-1-2.29c-.55-.42-1-.47-1-.56s.51-.17,1.22.22a2.73,2.73,0,0,1,1,1,3,3,0,0,1,.39,1.66A3.68,3.68,0,0,1,129,234C128.38,234.5,127.92,234.63,127.89,234.57Z" style="fill:#eb996e"></path><path d="M123.85,267.51a1.7,1.7,0,1,1-1.7-1.7A1.7,1.7,0,0,1,123.85,267.51Z" style="fill:#fafafa"></path><path d="M100.69,244.44a1.6,1.6,0,1,1-1.6-1.59A1.6,1.6,0,0,1,100.69,244.44Z" style="fill:#fafafa"></path><polygon points="173.19 204.53 182.01 238.27 208.93 228.86 198.16 198.2 173.19 204.53" style="fill:#FF725E"></polygon><path d="M195.39,198.9a1.53,1.53,0,0,1-.42.16l-1.24.36-4.65,1.25-15.83,4.11.18-.31,1.52,5.79c2,7.69,3.78,14.66,5.1,19.78.61,2.49,1.12,4.52,1.49,6,.15.67.28,1.21.37,1.64a2,2,0,0,1,.1.58,3.75,3.75,0,0,1-.2-.55c-.12-.43-.28-1-.47-1.62l-1.65-6c-1.36-5.11-3.2-12.06-5.24-19.74-.52-2-1-3.93-1.51-5.79l-.07-.25.25-.06L189,200.35l4.68-1.11,1.26-.27A2.06,2.06,0,0,1,195.39,198.9Z" style="fill:#263238"></path><path d="M547.82,438.19a4,4,0,0,1,7-2.51l-1.09,1a2.37,2.37,0,0,0-1.84-.86,2.36,2.36,0,0,0,0,4.71,2.32,2.32,0,0,0,1.84-.87l1.09,1a4,4,0,0,1-7-2.49Z" style="fill:#263238"></path><path d="M562.65,434.51v7.36H561v-3h-3.32v3h-1.7v-7.36h1.7v2.9H561v-2.9Z" style="fill:#263238"></path><path d="M570.05,440.5v1.37h-5.66v-7.36h5.53v1.36h-3.85v1.6h3.4v1.33h-3.4v1.7Z" style="fill:#263238"></path><path d="M570.92,438.19a4,4,0,0,1,7-2.51l-1.08,1a2.39,2.39,0,0,0-1.84-.86,2.36,2.36,0,0,0,0,4.71,2.33,2.33,0,0,0,1.84-.87l1.08,1a4,4,0,0,1-7-2.49Z" style="fill:#263238"></path><path d="M581.71,439l-1,1v1.86H579v-7.36h1.69v3.43l3.24-3.43h1.88l-3,3.28,3.2,4.08h-2Z" style="fill:#263238"></path><path d="M593.25,439.26v2.61h-1.7v-2.63l-2.83-4.73h1.8l2,3.27,2-3.27h1.66Z" style="fill:#263238"></path><path d="M596,438.19a4,4,0,1,1,4,3.8A3.79,3.79,0,0,1,596,438.19Zm6.29,0a2.29,2.29,0,1,0-2.29,2.35A2.24,2.24,0,0,0,602.32,438.19Z" style="fill:#263238"></path><path d="M605.24,438.63v-4.12h1.7v4.06c0,1.39.6,2,1.63,2s1.63-.58,1.63-2v-4.06h1.67v4.12a3.32,3.32,0,1,1-6.63,0Z" style="fill:#263238"></path><path d="M618.2,441.87l-1.41-2.05h-1.56v2.05h-1.69v-7.36h3.17c1.95,0,3.18,1,3.18,2.67a2.4,2.4,0,0,1-1.51,2.32l1.64,2.37Zm-1.59-6h-1.38v2.57h1.38c1,0,1.56-.48,1.56-1.28S617.65,435.89,616.61,435.89Z" style="fill:#263238"></path><path d="M533.66,452.52c0,1.25-.92,2-2.75,2h-3.37v-7.36h3.16c1.63,0,2.57.7,2.57,1.89a1.72,1.72,0,0,1-1.12,1.68A1.76,1.76,0,0,1,533.66,452.52Zm-5.34-4.76v2.67h2.33c1.17,0,1.85-.45,1.85-1.33s-.68-1.34-1.85-1.34Zm4.56,4.69c0-.95-.7-1.37-2-1.37h-2.58v2.76h2.58C532.18,453.84,532.88,453.42,532.88,452.45Z" style="fill:#263238"></path><path d="M534.78,450.8a3.84,3.84,0,1,1,3.84,3.75A3.69,3.69,0,0,1,534.78,450.8Zm6.9,0a3.07,3.07,0,1,0-3.06,3.05A3,3,0,0,0,541.68,450.8Z" style="fill:#263238"></path><path d="M544.19,447.12h3a3.69,3.69,0,1,1,0,7.36h-3Zm2.94,6.69a3,3,0,1,0,0-6H545v6Z" style="fill:#263238"></path><path d="M555,451.94v2.54h-.76v-2.54l-2.93-4.82h.83l2.5,4.13,2.51-4.13H558Z" style="fill:#263238"></path><path d="M563.31,447.8h-2.57v-.68h5.91v.68h-2.57v6.68h-.77Z" style="fill:#263238"></path><path d="M573.06,453.81v.67h-5.17v-7.36h5v.68h-4.24v2.61h3.78v.67h-3.78v2.73Z" style="fill:#263238"></path><path d="M582.48,447.12v7.36h-.75v-5.89l-2.87,5h-.37l-2.87-4.92v5.85h-.74v-7.36h.64l3.17,5.46,3.15-5.46Z" style="fill:#263238"></path><path d="M590.59,449.65c0,1.56-1.13,2.51-3,2.51h-2v2.32h-.77v-7.36h2.74C589.46,447.12,590.59,448.07,590.59,449.65Zm-.78,0c0-1.18-.77-1.85-2.23-1.85h-2v3.67h2C589,451.47,589.81,450.8,589.81,449.65Z" style="fill:#263238"></path><path d="M597.43,453.81v.67h-5.17v-7.36h5v.68H593v2.61h3.79v.67H593v2.73Z" style="fill:#263238"></path><path d="M604.25,454.48l-1.68-2.36a5.22,5.22,0,0,1-.58,0h-2v2.33h-.77v-7.36H602c1.86,0,3,.95,3,2.53a2.29,2.29,0,0,1-1.67,2.31l1.78,2.52Zm0-4.83c0-1.18-.77-1.85-2.23-1.85h-2v3.69h2C603.43,451.49,604.2,450.8,604.2,449.65Z" style="fill:#263238"></path><path d="M611.4,452.52h-4.08l-.88,2h-.8l3.34-7.36h.76l3.35,7.36h-.82Zm-.29-.63-1.75-4-1.76,4Z" style="fill:#263238"></path><path d="M615.36,447.8h-2.57v-.68h5.91v.68h-2.57v6.68h-.77Z" style="fill:#263238"></path><path d="M619.73,451.34v-4.22h.77v4.19c0,1.74.81,2.54,2.23,2.54s2.25-.8,2.25-2.54v-4.19h.75v4.22c0,2.11-1.12,3.21-3,3.21S619.73,453.45,619.73,451.34Z" style="fill:#263238"></path><path d="M633.06,454.48l-1.67-2.36a5.54,5.54,0,0,1-.59,0h-2v2.33h-.77v-7.36h2.73c1.86,0,3,.95,3,2.53a2.28,2.28,0,0,1-1.67,2.31l1.79,2.52Zm0-4.83c0-1.18-.77-1.85-2.24-1.85h-1.94v3.69h1.94C632.25,451.49,633,450.8,633,449.65Z" style="fill:#263238"></path><path d="M640.8,453.81v.67h-5.18v-7.36h5v.68H636.4v2.61h3.78v.67H636.4v2.73Z" style="fill:#263238"></path><path d="M625.42,363.24A26.59,26.59,0,0,0,585,357.9c-3.54,3.26-6.32,7.57-10.72,9.53-4.72,2.1-10.21,1-15.3,1.91-9.57,1.72-16.8,11.15-17.05,20.87a25,25,0,0,0,3.26,12.72A28,28,0,0,0,565,416.57c11.25,1.95,25.48.67,33.78-1.84,10.7-3.24,20.66-9.91,26.29-19.57S631.4,372.7,625.42,363.24Z" style="fill:#e0e0e0"></path><path d="M565.68,400.24H572a0,0,0,0,1,0,0V405a0,0,0,0,1,0,0h-6.32a2.31,2.31,0,0,1-2.31-2.31v-.12A2.31,2.31,0,0,1,565.68,400.24Z" transform="translate(-118.42 519.33) rotate(-45)" style="fill:#263238"></path><path d="M566.49,400.25l5.52-7.11s-.56-6.9,3.84-10.92c3-2.78,14-13.61,20.55-20a7.55,7.55,0,0,1,10.18-.38h0a7.55,7.55,0,0,1,.66,10.89l-18.57,20.05s-5.5,7.15-11.67,4.59l-6.7,6.08Z" style="fill:#fff"></path><polygon points="581.51 384.08 585.58 388.14 595.73 377.91 591.67 374.21 581.51 384.08" style="fill:#455a64"></polygon><path d="M594,364.53l11.33,10.2,2.47-2.63a7.33,7.33,0,0,0-1-10.2h0a7.29,7.29,0,0,0-10.17,0Z" style="fill:#FF725E"></path></g></svg>